<svg width="16" height="16" viewBox="0 0 16 16" fill="none" xmlns="http://www.w3.org/2000/svg">
<path fill-rule="evenodd" clip-rule="evenodd" d="M10.5936 2.10746C10.7186 1.98268 10.888 1.9126 11.0646 1.9126C11.2412 1.9126 11.4106 1.98268 11.5356 2.10746L13.4169 3.98879L13.4216 3.99279L13.4256 3.99746L13.8923 4.46412C14.0138 4.58977 14.0811 4.75813 14.0797 4.93293C14.0783 5.10773 14.0083 5.27499 13.8848 5.39868C13.7613 5.52237 13.5941 5.59261 13.4193 5.59425C13.2445 5.59589 13.0761 5.52881 12.9503 5.40746L12.0069 6.35012L13.1856 7.52879C13.307 7.65452 13.3742 7.82293 13.3727 7.99772C13.3712 8.17252 13.3011 8.33973 13.1775 8.46333C13.0539 8.58694 12.8867 8.65705 12.7119 8.65857C12.5371 8.66009 12.3687 8.59289 12.2429 8.47146L11.7716 8.00012L8.00026 11.7715C7.81454 11.9572 7.59405 12.1046 7.35137 12.2051C7.1087 12.3056 6.8486 12.3574 6.58593 12.3574C6.32325 12.3574 6.06316 12.3056 5.82048 12.2051C5.57781 12.1046 5.35732 11.9572 5.17159 11.7715L3.09159 13.8521C2.96659 13.9772 2.79701 14.0475 2.62016 14.0476C2.44332 14.0477 2.27369 13.9775 2.14859 13.8525C2.0235 13.7275 1.95319 13.5579 1.95313 13.381C1.95306 13.2042 2.02325 13.0345 2.14826 12.9095L4.22893 10.8281C3.85398 10.4531 3.64335 9.94445 3.64335 9.41412C3.64335 8.88379 3.85398 8.37518 4.22893 8.00012L8.00026 4.22879L7.52893 3.75746C7.40749 3.63172 7.34029 3.46332 7.34181 3.28852C7.34333 3.11372 7.41344 2.94652 7.53705 2.82291C7.66065 2.6993 7.82786 2.62919 8.00266 2.62767C8.17746 2.62615 8.34586 2.69335 8.47159 2.81479L9.65026 3.99279L10.5929 3.05012C10.4679 2.9251 10.3977 2.75557 10.3977 2.57879C10.3977 2.40201 10.4679 2.23247 10.5929 2.10746M12.0063 4.46479L11.0643 5.40679L10.5929 4.93546L11.5356 3.99279L12.0063 4.46479ZM6.11426 8.94279L5.64293 8.47146L6.58559 7.52879L7.05693 8.00012C7.17837 8.12586 7.24556 8.29426 7.24404 8.46906C7.24252 8.64385 7.17241 8.81106 7.04881 8.93467C6.9252 9.05827 6.75799 9.12839 6.58319 9.12991C6.4084 9.13142 6.23999 9.06423 6.11426 8.94279ZM7.52759 7.52879L7.05693 7.05746L8.00026 6.11479L8.47159 6.58612C8.53527 6.64762 8.58606 6.72118 8.62099 6.80252C8.65593 6.88385 8.67432 6.97133 8.67509 7.05985C8.67586 7.14837 8.659 7.23616 8.62547 7.31809C8.59195 7.40002 8.54245 7.47446 8.47986 7.53705C8.41726 7.59965 8.34283 7.64915 8.2609 7.68267C8.17897 7.71619 8.09118 7.73306 8.00266 7.73229C7.91414 7.73152 7.82666 7.71313 7.74532 7.67819C7.66399 7.64325 7.59043 7.59246 7.52893 7.52879" fill="#E6F7F9"/>
</svg>
