<svg width="16" height="16" viewBox="0 0 16 16" fill="none" xmlns="http://www.w3.org/2000/svg">
<path d="M10.0002 15.1666H6.00016C2.38016 15.1666 0.833496 13.62 0.833496 9.99998V5.99998C0.833496 2.37998 2.38016 0.833313 6.00016 0.833313H10.0002C13.6202 0.833313 15.1668 2.37998 15.1668 5.99998V9.99998C15.1668 13.62 13.6202 15.1666 10.0002 15.1666ZM6.00016 1.83331C2.92683 1.83331 1.8335 2.92665 1.8335 5.99998V9.99998C1.8335 13.0733 2.92683 14.1666 6.00016 14.1666H10.0002C13.0735 14.1666 14.1668 13.0733 14.1668 9.99998V5.99998C14.1668 2.92665 13.0735 1.83331 10.0002 1.83331H6.00016Z" fill="#004951"/>
<path d="M14.3202 5.23999H1.68018C1.40684 5.23999 1.18018 5.01332 1.18018 4.73999C1.18018 4.46666 1.40018 4.23999 1.68018 4.23999H14.3202C14.5935 4.23999 14.8202 4.46666 14.8202 4.73999C14.8202 5.01332 14.6002 5.23999 14.3202 5.23999Z" fill="#004951"/>
<path d="M5.68018 5.14668C5.40684 5.14668 5.18018 4.92001 5.18018 4.64668V1.40668C5.18018 1.13334 5.40684 0.906677 5.68018 0.906677C5.95351 0.906677 6.18018 1.13334 6.18018 1.40668V4.64668C6.18018 4.92001 5.95351 5.14668 5.68018 5.14668Z" fill="#004951"/>
<path d="M10.3198 4.84668C10.0465 4.84668 9.81982 4.62001 9.81982 4.34668V1.40668C9.81982 1.13334 10.0465 0.906677 10.3198 0.906677C10.5932 0.906677 10.8198 1.13334 10.8198 1.40668V4.34668C10.8198 4.62668 10.5998 4.84668 10.3198 4.84668Z" fill="#004951"/>
<path d="M7.39333 12.08C7.15333 12.08 6.92667 12.02 6.72 11.9067C6.26667 11.64 6 11.1067 6 10.4334V8.83336C6 8.16003 6.26667 7.62003 6.72667 7.35336C7.18667 7.08669 7.78667 7.12669 8.36667 7.46669L9.75333 8.26669C10.3333 8.60003 10.6733 9.10003 10.6733 9.63336C10.6733 10.1667 10.3333 10.6667 9.74667 11L8.36 11.8C8.04 11.9867 7.70667 12.08 7.39333 12.08ZM7.4 8.18003C7.33333 8.18003 7.27333 8.19336 7.22667 8.22003C7.08667 8.30003 7 8.52669 7 8.83336V10.4334C7 10.7334 7.08667 10.96 7.22667 11.0467C7.36667 11.1267 7.60667 11.0867 7.86667 10.9334L9.25333 10.1334C9.51333 9.98003 9.67333 9.79336 9.67333 9.63336C9.67333 9.47336 9.52 9.28669 9.25333 9.13336L7.86667 8.33336C7.69333 8.23336 7.52667 8.18003 7.4 8.18003Z" fill="#004951"/>
</svg>
