<svg width="16" height="16" viewBox="0 0 16 16" fill="none" xmlns="http://www.w3.org/2000/svg">
<path d="M10.6668 1.33331H5.3335C2.66683 1.33331 1.3335 2.66665 1.3335 5.33331V14C1.3335 14.3666 1.6335 14.6666 2.00016 14.6666H10.6668C13.3335 14.6666 14.6668 13.3333 14.6668 10.6666V5.33331C14.6668 2.66665 13.3335 1.33331 10.6668 1.33331ZM9.3335 10.1666H4.66683C4.3935 10.1666 4.16683 9.93998 4.16683 9.66665C4.16683 9.39331 4.3935 9.16665 4.66683 9.16665H9.3335C9.60683 9.16665 9.8335 9.39331 9.8335 9.66665C9.8335 9.93998 9.60683 10.1666 9.3335 10.1666ZM11.3335 6.83331H4.66683C4.3935 6.83331 4.16683 6.60665 4.16683 6.33331C4.16683 6.05998 4.3935 5.83331 4.66683 5.83331H11.3335C11.6068 5.83331 11.8335 6.05998 11.8335 6.33331C11.8335 6.60665 11.6068 6.83331 11.3335 6.83331Z" fill="#00AEC0"/>
</svg>
