<svg width="16" height="16" viewBox="0 0 16 16" fill="none" xmlns="http://www.w3.org/2000/svg">
<path d="M8.00016 14.72C7.80016 14.72 7.60016 14.6734 7.4335 14.58C6.18683 13.9 3.9935 13.18 2.62016 13L2.42683 12.9734C1.5535 12.8667 0.833496 12.0467 0.833496 11.16V3.10669C0.833496 2.58003 1.04016 2.10003 1.42016 1.75336C1.80016 1.40669 2.2935 1.24003 2.8135 1.28669C4.28016 1.40003 6.4935 2.13336 7.74683 2.92003L7.90683 3.01336C7.9535 3.04003 8.0535 3.04003 8.0935 3.02003L8.20016 2.95336C9.4535 2.16669 11.6668 1.42003 13.1402 1.29336C13.1535 1.29336 13.2068 1.29336 13.2202 1.29336C13.7068 1.24669 14.2068 1.42003 14.5802 1.76669C14.9602 2.11336 15.1668 2.59336 15.1668 3.12003V11.1667C15.1668 12.06 14.4468 12.8734 13.5668 12.98L13.3468 13.0067C11.9735 13.1867 9.7735 13.9134 8.5535 14.5867C8.3935 14.68 8.20016 14.72 8.00016 14.72ZM2.6535 2.28003C2.44016 2.28003 2.24683 2.35336 2.0935 2.49336C1.92683 2.64669 1.8335 2.86669 1.8335 3.10669V11.16C1.8335 11.5534 2.1735 11.9334 2.5535 11.9867L2.7535 12.0134C4.2535 12.2134 6.5535 12.9667 7.88683 13.6934C7.94683 13.72 8.0335 13.7267 8.06683 13.7134C9.40016 12.9734 11.7135 12.2134 13.2202 12.0134L13.4468 11.9867C13.8268 11.94 14.1668 11.5534 14.1668 11.16V3.11336C14.1668 2.86669 14.0735 2.65336 13.9068 2.49336C13.7335 2.34003 13.5135 2.26669 13.2668 2.28003C13.2535 2.28003 13.2002 2.28003 13.1868 2.28003C11.9135 2.39336 9.86016 3.08003 8.74016 3.78003L8.6335 3.85336C8.26683 4.08003 7.74683 4.08003 7.3935 3.86003L7.2335 3.76669C6.0935 3.06669 4.04016 2.38669 2.7335 2.28003C2.70683 2.28003 2.68016 2.28003 2.6535 2.28003Z" fill="#004951"/>
<path d="M8 14.16C7.72667 14.16 7.5 13.9333 7.5 13.66V3.65997C7.5 3.38664 7.72667 3.15997 8 3.15997C8.27333 3.15997 8.5 3.38664 8.5 3.65997V13.66C8.5 13.94 8.27333 14.16 8 14.16Z" fill="#004951"/>
<path d="M5.1665 6.15997H3.6665C3.39317 6.15997 3.1665 5.93331 3.1665 5.65997C3.1665 5.38664 3.39317 5.15997 3.6665 5.15997H5.1665C5.43984 5.15997 5.6665 5.38664 5.6665 5.65997C5.6665 5.93331 5.43984 6.15997 5.1665 6.15997Z" fill="#004951"/>
<path d="M5.6665 8.15997H3.6665C3.39317 8.15997 3.1665 7.93331 3.1665 7.65997C3.1665 7.38664 3.39317 7.15997 3.6665 7.15997H5.6665C5.93984 7.15997 6.1665 7.38664 6.1665 7.65997C6.1665 7.93331 5.93984 8.15997 5.6665 8.15997Z" fill="#004951"/>
</svg>
