<svg width="130" height="65" viewBox="0 0 130 65" fill="none" xmlns="http://www.w3.org/2000/svg">
<path d="M84.5944 64.4003C83.1731 63.9428 82.0295 62.9626 81.5557 61.8517C81.1473 60.8551 81.2126 59.205 81.7191 58.2084C82.7483 56.1989 84.7251 55.3984 88.8258 55.3984H91.1784L91.064 54.6306C90.9497 53.7157 90.3288 52.7191 89.6917 52.3923C88.2703 51.6572 86.5222 51.9349 85.1662 53.1275C84.4147 53.781 84.137 53.9281 83.6305 53.9281C82.4216 53.9281 81.6701 52.7681 82.1438 51.6408C82.6503 50.4155 84.7905 49.1575 86.898 48.8471C90.1001 48.3734 93.1389 49.7784 94.2825 52.2616C94.6256 52.9968 94.6419 53.3072 94.6909 58.2901C94.7236 61.77 94.6746 63.6651 94.5602 63.8775C94.2498 64.482 92.1259 64.531 91.5378 63.9592C91.4071 63.8121 91.2927 63.4364 91.2927 63.126V62.5378L90.7046 63.1423C89.757 64.1225 88.8912 64.4166 86.8 64.482C85.8197 64.5146 84.8232 64.482 84.5944 64.4003ZM89.463 61.2962C90.2635 60.8878 90.7373 60.2016 90.8843 59.254C90.9497 58.8783 91.0313 58.4535 91.064 58.3065C91.1457 58.0287 90.966 58.0124 88.9728 58.0124C87.7802 58.0124 86.5386 58.0941 86.2118 58.1758C85.3296 58.4208 84.8722 59.009 84.8722 59.8912C84.8722 60.708 85.1826 61.1818 85.9831 61.5576C86.702 61.8843 88.5807 61.7536 89.463 61.2962Z" fill="#EFA987"/>
<path d="M118.135 64.3195C116.926 63.9274 116.028 63.1595 115.423 62.0159C115.162 61.5258 115.08 61.0683 115.08 60.1371C115.08 58.7321 115.407 57.9479 116.322 57.0984C117.727 55.8077 118.658 55.5463 122.138 55.4483L124.948 55.3503V54.8438C124.948 54.1086 124.311 52.9324 123.673 52.5076C122.955 52.0338 121.844 51.8868 120.782 52.1155C120.128 52.2625 119.687 52.5076 118.985 53.1121C118.233 53.7819 117.955 53.9289 117.449 53.9289C116.24 53.9289 115.488 52.769 115.962 51.6417C116.485 50.3837 118.641 49.1421 120.814 48.848C124.049 48.4232 126.957 49.6649 128.133 52.0175L128.542 52.8507V58.3563C128.542 62.7838 128.493 63.8947 128.313 64.0417C128.199 64.1398 127.66 64.2541 127.137 64.3031C125.879 64.4338 125.405 64.1888 125.193 63.3066L125.029 62.6531L124.637 63.1268C124.409 63.4046 123.82 63.813 123.33 64.0417C122.546 64.4012 122.154 64.4665 120.618 64.4992C119.442 64.5319 118.592 64.4665 118.135 64.3195ZM123.167 61.4441C124.164 60.9213 124.637 60.1698 124.85 58.7811L124.964 58.0133H122.791C121.599 58.0133 120.357 58.095 120.03 58.1766C119.148 58.4217 118.658 59.0425 118.658 59.8921C118.658 60.6763 119.001 61.1827 119.801 61.5585C120.39 61.8199 122.579 61.7545 123.167 61.4441Z" fill="#EFA987"/>
<path d="M61.8529 64.205C61.6242 64.1069 61.3628 63.9109 61.2974 63.7639C61.0851 63.2737 61.0034 45.2863 61.2158 44.5838C61.4445 43.8323 61.4118 43.8487 64.5486 43.7343C69.2047 43.5873 72.0801 44.0284 74.1386 45.221C75.3312 45.9235 76.8342 47.4755 77.4551 48.6682C78.4026 50.4816 78.615 51.4455 78.6313 53.8471C78.6313 56.314 78.4353 57.2453 77.5531 59.0914C76.0337 62.2935 73.5831 63.8292 69.3191 64.2213C67.0809 64.4174 62.4411 64.4173 61.8529 64.205ZM70.7894 60.4964C73.4034 59.5325 74.7431 57.5883 74.9064 54.5006C74.9554 53.6674 74.9228 52.6381 74.8084 52.1644C74.2693 49.5994 72.3905 47.7043 69.9562 47.2468C69.4988 47.1488 68.1755 47.0671 67.0155 47.0508L64.908 47.0344L64.859 54.0105L64.8263 60.9865L67.3096 60.9212C69.3517 60.8558 69.9889 60.7905 70.7894 60.4964Z" fill="#00AEC0"/>
<path d="M98.7267 64.1886C98.547 64.0906 98.3509 63.9272 98.2856 63.8292C98.2202 63.7311 98.1549 60.5127 98.1549 56.6734C98.1549 48.4884 98.0405 49.0276 99.8703 49.0276C101.161 49.0276 101.586 49.338 101.586 50.3019V50.9227L102.386 50.1548C103.432 49.1419 104.461 48.7988 106.405 48.7988C108.235 48.8152 109.395 49.2236 110.555 50.2692C111.568 51.1841 112.172 52.393 112.368 53.9614C112.45 54.6313 112.466 57.0819 112.417 59.4671C112.303 64.6134 112.385 64.3846 110.522 64.3846C108.611 64.3846 108.692 64.597 108.692 59.2547C108.676 54.4679 108.594 53.8307 107.843 52.9322C107.271 52.2623 106.552 51.9683 105.425 51.9683C104.396 51.9683 103.661 52.2297 103.023 52.8505C102.043 53.7817 102.01 53.9288 101.896 59.075C101.782 63.6658 101.765 63.8128 101.422 64.0906C100.998 64.4337 99.2658 64.499 98.7267 64.1886Z" fill="#00AEC0"/>
<path d="M25.5679 63.0774C24.5386 62.767 16.2066 56.2811 12.7104 53.0789C5.83239 46.7564 1.32329 39.4046 0.212347 32.7063C-0.130736 30.6805 -0.0490488 27.6744 0.392059 25.9917C1.48666 21.7603 4.6561 18.2478 8.62607 16.9081C10.0147 16.4343 13.805 16.467 15.5368 16.9734C18.5918 17.8557 20.6994 19.13 23.1336 21.5806C24.6857 23.1326 26.3357 25.2401 26.9402 26.4491C27.3977 27.3313 27.3487 28.2299 26.7768 29.1284C26.2214 30.0106 25.5025 30.321 24.3099 30.2067C23.2153 30.0923 22.7088 29.6676 21.3529 27.6744C19.7845 25.3382 18.2324 23.8025 16.5497 22.9366C13.2659 21.2375 10.5702 21.2538 8.28299 23.0183C6.24082 24.5703 5.37495 26.4491 5.24425 29.5859C5.14622 31.7914 5.48931 33.6375 6.43687 36.0718C8.21764 40.7116 13.1515 46.7401 19.5067 52.066C21.1405 53.4384 25.4045 56.7058 26.058 57.0816C26.2704 57.2123 29.9953 54.5003 32.3969 52.4745C35.55 49.8115 38.4254 46.7891 40.0428 44.4202C42.6077 40.6462 42.9998 37.052 41.072 34.8628C40.2061 33.8662 39.3566 33.4742 37.9026 33.3761C36.3832 33.2781 34.9292 33.6539 33.6549 34.4871C32.3642 35.3203 31.9068 35.8757 31.1062 37.4605C30.273 39.1105 29.7176 39.5516 28.4759 39.5516C25.862 39.5516 25.3718 36.7743 27.4303 33.7029C29.0641 31.2686 31.8578 29.3408 34.7331 28.671C36.2525 28.3116 39.1769 28.4259 40.6799 28.916C44.7642 30.223 47.5579 34.4707 47.2965 38.9308C46.9698 44.2568 42.9181 50.3669 35.6644 56.4608C33.3118 58.4376 28.0185 62.3912 27.1036 62.865C26.3194 63.2734 26.254 63.2734 25.5679 63.0774Z" fill="#00AEC0"/>
<path d="M67.3587 36.2845C65.2185 36.0394 63.7481 35.3532 62.4902 34.0136C61.6243 33.0824 61.0035 31.8897 60.7421 30.6318C60.6277 30.0926 60.5787 25.5509 60.6114 17.2188C60.6604 2.76028 60.4807 4.26332 62.3431 3.00534C63.5031 2.22115 64.8591 1.84539 65.6759 2.07411L66.2151 2.23749L66.2968 15.7158C66.3948 30.9748 66.2804 29.7822 67.7345 30.4521C68.4533 30.7788 68.7637 30.8115 72.0148 30.8115C76.0992 30.8115 76.8344 30.6644 77.7819 29.6025C78.6641 28.6223 78.7458 27.9361 78.6151 22.6101C78.4844 17.5129 78.4517 17.7743 79.5627 17.0718C80.8697 16.2386 82.8955 15.7975 83.6307 16.1896C83.9247 16.3529 83.9411 16.598 83.9411 22.2834C83.9411 27.7074 83.9738 28.2465 84.2515 28.8673C85.003 30.5174 86.457 30.9585 90.8681 30.8605C94.2009 30.7788 95.0505 30.6154 95.8347 29.8639C96.7332 29.0307 96.7659 28.8347 96.7659 24.5216C96.7822 22.3161 96.7986 20.3556 96.8149 20.1595C96.9129 19.1303 98.7754 17.9377 100.327 17.9213C101.798 17.905 101.749 17.7253 101.749 23.1983V27.8708L102.909 25.8286C105.572 21.1398 107.859 18.7872 111.469 17.0064C113.887 15.8138 115.243 15.4871 118.004 15.4707C119.753 15.4544 120.586 15.5197 121.517 15.7648C125.487 16.7614 128.215 19.2937 129.522 23.2146C130.029 24.7503 130.159 27.7891 129.784 29.4718C129.016 32.87 126.859 35.1572 123.559 36.0394C122.726 36.2681 121.272 36.3172 114.247 36.3662C109.672 36.3988 105.114 36.3662 104.118 36.3008C102.059 36.1701 101.226 35.8597 100.001 34.7324L99.2492 34.0626L98.4486 34.5854C97.5174 35.2225 96.2104 35.729 94.642 36.0721C93.1063 36.4152 87.3556 36.4642 86.0649 36.1374C84.7253 35.8107 83.2549 35.0592 82.3727 34.2586L81.5722 33.5561L80.8533 34.0953C79.2359 35.3532 77.1284 36.0394 74.3021 36.2845C72.1619 36.4642 69.0414 36.4642 67.3587 36.2845ZM122.465 30.6318C124.017 29.9946 124.703 28.6223 124.588 26.4004C124.507 24.7177 123.984 23.574 122.824 22.4958C121.027 20.813 118.413 20.2249 115.472 20.8457C112.107 21.5482 109.558 23.525 107.107 27.3153C106.013 28.998 105.016 30.6808 105.016 30.8278C105.016 30.8605 108.807 30.8932 113.43 30.8932C120.667 30.8932 121.942 30.8605 122.465 30.6318Z" fill="#00AEC0"/>
<path d="M34.7819 25.5994C30.5996 24.227 29.3579 18.8194 32.5437 15.895C33.7853 14.7514 34.8963 14.3103 36.5627 14.3266C37.739 14.3266 38.0984 14.392 38.9643 14.7841C40.2059 15.3559 41.3169 16.4831 41.9213 17.7901C42.5422 19.1461 42.5421 20.9269 41.8887 22.3482C41.3332 23.5572 40.0425 24.8642 38.8989 25.3706C37.9024 25.8118 35.8112 25.9261 34.7819 25.5994Z" fill="#EFA987"/>
<path d="M19.719 15.3071C18.1833 14.8987 16.4188 13.5591 15.504 12.1377C13.9356 9.65443 13.9192 5.76615 15.504 3.39723C16.1738 2.36798 17.3664 1.33873 18.461 0.799599C23.6073 -1.73269 29.5377 2.05757 29.5377 7.84099C29.5377 11.3535 27.4956 14.2289 24.2934 15.2255C23.1335 15.5849 20.8953 15.6339 19.719 15.3071Z" fill="#EFA987"/>
<path d="M115.734 12.3994C112.956 11.8113 112.466 7.8086 115.015 6.56697C117.204 5.52138 119.72 7.05709 119.72 9.45868C119.72 10.3082 118.854 11.6806 118.005 12.1543C117.498 12.4321 116.436 12.5464 115.734 12.3994Z" fill="#00AEC0"/>
<path d="M80.0203 11.7789C77.3083 11.2888 76.3281 8.08667 78.2885 6.12619C79.3341 5.06426 80.6575 4.8192 81.9808 5.42368C83.4675 6.09351 84.0066 7.0084 83.9086 8.67481C83.8106 10.4066 82.912 11.4522 81.2946 11.7462C80.9025 11.8116 80.3307 11.8279 80.0203 11.7789Z" fill="#00AEC0"/>
</svg>
