<svg width="250" height="247" viewBox="0 0 250 247" fill="none" xmlns="http://www.w3.org/2000/svg">
<g clip-path="url(#clip0_1345_7784)">
<path d="M204.745 246.694H30.6436V68.6844C30.6436 30.8117 61.5631 0 99.5685 0H135.82C173.825 0 204.745 30.8117 204.745 68.6844V246.694Z" fill="#F3F6F6"/>
<path d="M168.493 246.694H30.6428V68.6847C30.6048 54.1727 35.2162 40.0274 43.8057 28.3085C44.1223 27.8784 44.4382 27.454 44.7638 27.0342C48.9185 21.6041 53.8627 16.8218 59.4333 12.8454C59.748 12.6171 60.0639 12.3929 60.3845 12.1687C65.0458 8.95423 70.0881 6.32648 75.3965 4.34524C75.7118 4.22628 76.0327 4.10701 76.3537 3.99241C81.1547 2.28481 86.1315 1.11503 91.1922 0.504679C91.5047 0.462016 91.8281 0.428699 92.15 0.395067C97.0816 -0.130387 102.055 -0.130387 106.987 0.395067C107.308 0.428388 107.63 0.462018 107.948 0.504992C113.007 1.11553 117.982 2.2853 122.782 3.99273C123.103 4.10701 123.424 4.22628 123.74 4.34586C128.983 6.30197 133.967 8.89042 138.579 12.0534C138.899 12.2714 139.22 12.4969 139.536 12.7211C142.658 14.9422 145.591 17.4166 148.304 20.1192C150.48 22.2868 152.508 24.5974 154.374 27.0355C154.698 27.454 155.014 27.8784 155.33 28.3079C163.92 40.0269 168.532 54.1724 168.494 68.6847L168.493 246.694Z" fill="#8ADAE2"/>
<path d="M157.284 123.11C161.499 123.11 164.916 119.705 164.916 115.505C164.916 111.304 161.499 107.899 157.284 107.899C153.069 107.899 149.652 111.304 149.652 115.505C149.652 119.705 153.069 123.11 157.284 123.11Z" fill="#E06464"/>
<path d="M249.598 247H0.401863C0.179991 247 0 246.747 0 246.434C0 246.122 0.179991 245.868 0.401863 245.868H249.598C249.82 245.868 250 246.122 250 246.434C250 246.747 249.82 247 249.598 247Z" fill="#004951"/>
<path d="M130.573 195.121H68.5644C67.7478 195.126 66.9627 194.807 66.3815 194.236C65.8002 193.664 65.4702 192.886 65.4639 192.072V54.147C65.4702 53.3332 65.8002 52.5553 66.3814 51.9836C66.9626 51.412 67.7475 51.0934 68.5641 51.0977H130.573C131.389 51.0934 132.174 51.412 132.756 51.9836C133.337 52.5553 133.667 53.3332 133.673 54.147V192.072C133.667 192.886 133.337 193.664 132.756 194.236C132.174 194.807 131.39 195.126 130.573 195.121Z" fill="#F9FAFA"/>
<path d="M133.673 95.7256H65.4639V96.6763H133.673V95.7256Z" fill="#8ADAE2"/>
<path d="M133.912 149.966H65.7021V150.917H133.912V149.966Z" fill="#8ADAE2"/>
<path d="M87.8818 51.0977H86.9277V195.597H87.8818V51.0977Z" fill="#8ADAE2"/>
<path d="M111.731 51.0977H110.777V195.597H111.731V51.0977Z" fill="#8ADAE2"/>
<path d="M203.685 90.6502C203.685 91.2053 203.62 91.7586 203.491 92.2987L197.995 115.606C197.809 116.394 197.47 117.137 196.996 117.794C196.522 118.451 195.922 119.008 195.232 119.433C194.541 119.859 193.773 120.145 192.972 120.274C192.171 120.404 191.352 120.375 190.562 120.188L168.534 113.377L167.459 113.046C166.76 113.524 165.973 113.859 165.144 114.03C164.314 114.202 163.459 114.207 162.627 114.046C159.43 113.482 157.216 110.889 157.683 108.251C158.15 105.612 161.121 103.934 164.318 104.495C165.155 104.626 165.957 104.922 166.678 105.366C167.399 105.809 168.024 106.391 168.518 107.077L168.534 107.081L168.59 107.09L187.762 109.454L189.374 90.0763C189.522 88.2375 190.379 86.5273 191.764 85.3038C193.15 84.0804 194.957 83.4385 196.806 83.5126C198.656 83.5867 200.405 84.3711 201.688 85.7015C202.97 87.0319 203.686 88.8051 203.686 90.6499L203.685 90.6502Z" fill="#F4C5AF"/>
<path d="M203.686 90.65C203.685 91.2051 203.62 91.7584 203.492 92.2985L198.982 116.588C198.797 117.376 198.457 118.119 197.983 118.776C197.509 119.433 196.909 119.99 196.219 120.415C195.528 120.841 194.761 121.127 193.959 121.256C193.158 121.386 192.339 121.356 191.549 121.17L169.521 115.067L170.508 105.562L187.283 107.856L189.375 90.0748C189.523 88.236 190.38 86.5258 191.765 85.3024C193.151 84.0789 194.958 83.437 196.807 83.5111C198.657 83.5853 200.406 84.3697 201.688 85.7001C202.971 87.0305 203.687 88.8037 203.687 90.6484L203.686 90.65Z" fill="#E06464"/>
<path d="M232.294 218.645L226.974 222.554L230.896 227.855L236.216 223.947L232.294 218.645Z" fill="#F4C5AF"/>
<path d="M238.875 229.437L227.565 237.746C226.592 238.459 225.471 238.946 224.284 239.172L221.46 239.705C221.149 239.764 220.828 239.726 220.538 239.598C220.249 239.47 220.006 239.257 219.842 238.987C219.677 238.717 219.599 238.404 219.618 238.089C219.637 237.774 219.752 237.473 219.947 237.225L223.371 232.879L227.878 223.618L227.904 223.642C228.556 224.235 229.545 225.128 229.619 225.172C231.011 225.479 232.08 225.306 232.796 224.659C234.046 223.53 233.794 221.317 233.791 221.296L233.789 221.279L233.804 221.27C233.945 221.175 234.107 221.113 234.276 221.09C234.445 221.067 234.617 221.083 234.779 221.137C235.429 221.374 235.769 222.224 235.817 222.355C236.452 222.444 238.104 224.331 238.237 224.484C239.187 224.655 239.842 225.011 240.182 225.54C240.333 225.804 240.426 226.097 240.456 226.399C240.485 226.702 240.45 227.007 240.353 227.295C240.12 228.156 239.598 228.912 238.875 229.437Z" fill="#004951"/>
<path d="M186.668 234.116H180.059V240.703H186.668V234.116Z" fill="#F4C5AF"/>
<path d="M185.54 246.694H171.489C170.281 246.692 169.089 246.422 167.999 245.902L165.409 244.661C165.124 244.524 164.887 244.304 164.73 244.03C164.574 243.756 164.505 243.44 164.534 243.126C164.562 242.812 164.685 242.514 164.888 242.271C165.091 242.029 165.363 241.854 165.668 241.77L171.012 240.296L180.154 235.508L180.161 235.542C180.331 236.405 180.596 237.709 180.629 237.788C181.567 238.858 182.53 239.351 183.492 239.254C185.17 239.085 186.285 237.154 186.296 237.134L186.305 237.119L186.322 237.121C186.492 237.128 186.659 237.174 186.808 237.256C186.958 237.337 187.087 237.452 187.185 237.59C187.568 238.166 187.335 239.051 187.296 239.185C187.755 239.632 187.96 242.128 187.976 242.33C188.639 243.03 188.954 243.703 188.914 244.331C188.878 244.632 188.779 244.923 188.623 245.184C188.467 245.445 188.257 245.67 188.008 245.844C187.307 246.4 186.437 246.7 185.541 246.695L185.54 246.694Z" fill="#004951"/>
<path d="M213.638 131.149H181.959L176.909 235.877H188.065L195.273 188.273L224.198 226.356L234.757 216.835L213.638 188.273L213.638 131.149Z" fill="#004951"/>
<path d="M206.356 66.3427C206.356 64.1923 205.757 62.0841 204.627 60.2522C203.497 58.4203 201.879 56.9363 199.954 55.9651C198.029 54.9939 195.871 54.5734 193.72 54.7504C191.57 54.9274 189.51 55.6948 187.771 56.9675C186.032 58.2403 184.68 59.9685 183.867 61.9603C183.054 63.9522 182.81 66.1296 183.164 68.251C183.517 70.3724 184.454 72.3546 185.869 73.9776C187.285 75.6007 189.124 76.801 191.183 77.4453L193.44 92.3096L204.946 82.7547C204.946 82.7547 202.461 79.5999 201.127 76.0421C202.736 74.9821 204.055 73.5412 204.968 71.8486C205.88 70.1559 206.357 68.2642 206.356 66.3427Z" fill="#F4C5AF"/>
<path d="M206.682 116.792L211.856 131.986L182.583 131.658L186.948 117.776L206.682 116.792Z" fill="#F4C5AF"/>
<path d="M204.039 78.23L191.057 82.7273L178.785 145.863L204.039 148.935H216.383L206.952 86.1515C206.529 83.3415 205.538 80.6463 204.038 78.23H204.039Z" fill="#E06464"/>
<path d="M200.399 152.413L200.625 142.036L194.545 141.904L194.319 152.282C193.713 152.872 193.23 153.576 192.9 154.354C192.57 155.131 192.398 155.966 192.395 156.811C192.325 160.046 194.446 162.715 197.132 162.773C199.819 162.831 202.054 160.256 202.124 157.021C202.158 156.177 202.023 155.335 201.727 154.544C201.431 153.753 200.979 153.028 200.399 152.412V152.413Z" fill="#F4C5AF"/>
<path d="M203.799 73.4853C204.406 73.5884 205.119 72.1223 205.799 70.6942C207.225 67.7047 208.131 65.8051 208.2 63.1183C208.258 60.8289 207.62 61.4299 206.999 56.34C206.795 54.6612 203.916 54.6643 203.331 53.8671C202.341 52.5206 203.859 51.9653 201.397 51.1579C196.786 49.6429 194.701 51.9965 191.773 52.1992C191.699 52.2042 190.247 53.6192 189.436 53.6924C188.015 53.8207 185.967 53.599 185.048 51.4434C184.189 49.4268 183.62 55.3198 184.387 56.0488C185.06 56.7528 185.664 57.5183 186.192 58.3351C186.224 58.4631 184.839 54.3043 184.387 55.5356C184.062 56.4215 183.765 62.1511 184.592 62.3224C185.283 62.4656 191.027 64.6641 197.396 60.3294C197.622 60.1755 197.408 60.4209 198.196 62.3224C199.19 64.7202 199.415 64.8513 199.397 65.5121C199.359 66.9424 198.281 67.3637 198.596 68.3032C198.754 68.692 199.035 69.019 199.395 69.2348C199.756 69.4506 200.178 69.5434 200.596 69.4993C201.44 69.3255 201.585 68.2848 202.197 68.3032C202.721 68.3191 203.342 69.1051 203.397 69.8982C203.514 71.5692 201.031 72.0289 200.596 74.2844C200.351 75.5574 203.239 73.3922 203.797 73.4869L203.799 73.4853Z" fill="#644739"/>
</g>
<defs>
<clipPath id="clip0_1345_7784">
<rect width="250" height="247" fill="white"/>
</clipPath>
</defs>
</svg>
