<svg width="20" height="20" viewBox="0 0 20 20" fill="none" xmlns="http://www.w3.org/2000/svg">
<path d="M5.76005 1.6001H7.84005C10.4 1.6001 12 3.2001 12 5.7601V9.0001H7.00005C6.67205 9.0001 6.40005 9.2721 6.40005 9.6001C6.40005 9.9281 6.67205 10.2001 7.00005 10.2001H12V13.4401C12 16.0001 10.4 17.6001 7.84005 17.6001H5.76805C3.20805 17.6001 1.60805 16.0001 1.60805 13.4401V5.7601C1.60005 3.2001 3.20005 1.6001 5.76005 1.6001Z" fill="#E06464"/>
<path d="M15.552 8.99978L13.8959 7.34378C13.7759 7.22378 13.72 7.07178 13.72 6.91978C13.72 6.76778 13.7759 6.60778 13.8959 6.49578C14.1279 6.26378 14.5119 6.26378 14.7439 6.49578L17.4239 9.17578C17.6559 9.40778 17.6559 9.79178 17.4239 10.0238L14.7439 12.7038C14.5119 12.9358 14.1279 12.9358 13.8959 12.7038C13.6639 12.4718 13.6639 12.0878 13.8959 11.8558L15.552 10.1998H11.9999V8.99978H15.552V8.99978Z" fill="#E06464"/>
</svg>
