<svg width="24" height="24" viewBox="0 0 24 24" fill="none" xmlns="http://www.w3.org/2000/svg">
<path d="M10.4289 15.2588L10.4237 15.2468C10.3203 15.2224 10.2174 15.1955 10.1152 15.1662L10.1074 15.1637C9.12969 14.8826 8.22673 14.3875 7.46402 13.7142C6.62521 12.9743 5.98015 12.0404 5.58508 10.9939C5.19001 9.94746 5.05694 8.82024 5.19746 7.71056C5.33797 6.60088 5.74781 5.54242 6.39125 4.62747C7.03468 3.71252 7.89217 2.96886 8.88895 2.46134C9.88572 1.95381 10.9915 1.69784 12.1099 1.71572C13.2283 1.73361 14.3254 2.02481 15.3054 2.56395C16.2854 3.10308 17.1187 3.87378 17.7326 4.80884C18.3464 5.74389 18.7222 6.81492 18.8272 7.92853C18.8606 8.28253 18.57 8.57138 18.2143 8.57138C17.8594 8.57138 17.5757 8.28253 17.5346 7.92938C17.4213 6.95506 17.0527 6.02792 16.4662 5.24169C15.8797 4.45546 15.0961 3.838 14.1944 3.45174C13.2928 3.06547 12.3052 2.9241 11.3314 3.04189C10.3576 3.15969 9.43215 3.53249 8.64863 4.1226C7.86511 4.71271 7.25126 5.49922 6.86915 6.40263C6.48704 7.30603 6.35021 8.2943 6.47249 9.26754C6.59477 10.2408 6.97182 11.1645 7.56554 11.9453C8.15925 12.7261 8.94858 13.3363 9.85373 13.7142L9.88802 13.7288C10.0594 13.7991 10.2354 13.8611 10.416 13.9148C10.5677 13.5482 10.8419 13.2456 11.1918 13.0585C11.5417 12.8715 11.9456 12.8116 12.3347 12.889C12.7238 12.9665 13.074 13.1765 13.3256 13.4833C13.5772 13.7901 13.7145 14.1746 13.7143 14.5714C13.7147 14.9654 13.5793 15.3474 13.3311 15.6533C13.0828 15.9593 12.7367 16.1703 12.3511 16.251C11.9655 16.3317 11.5638 16.2771 11.2137 16.0964C10.8636 15.9157 10.5865 15.6199 10.4289 15.2588ZM9.58373 16.3491C8.06105 15.8755 6.71093 14.9653 5.70087 13.7314C5.07491 13.8047 4.49768 14.1053 4.07878 14.5762C3.65989 15.0471 3.42851 15.6554 3.42859 16.2857V16.8985C3.42859 20.0854 7.03716 22.2857 12 22.2857C16.9629 22.2857 20.5714 19.9645 20.5714 16.8985V16.2857C20.5714 15.6037 20.3005 14.9496 19.8183 14.4674C19.3361 13.9852 18.682 13.7142 18 13.7142H14.8757C15.0779 14.3914 15.0346 15.1182 14.7533 15.7665C14.472 16.4149 13.9709 16.9431 13.3382 17.2581C12.7056 17.5731 11.9821 17.6546 11.2952 17.4883C10.6083 17.322 10.0022 16.9186 9.58373 16.3491ZM16.2857 8.57138C16.2857 7.27538 15.7114 6.11396 14.802 5.32796C14.3457 4.93432 13.8115 4.64135 13.2343 4.46815C12.6571 4.29496 12.0499 4.24544 11.4522 4.32283C10.8546 4.40022 10.28 4.60277 9.76597 4.91727C9.25192 5.23178 8.80997 5.65115 8.46898 6.14802C8.12799 6.6449 7.89562 7.2081 7.78704 7.80086C7.67846 8.39363 7.69611 9.00262 7.83884 9.5881C7.98157 10.1736 8.24616 10.7224 8.61536 11.1987C8.98455 11.675 9.45005 12.068 9.98145 12.3522C10.5337 11.8499 11.2534 11.5714 12 11.5714C12.7469 11.5712 13.467 11.8497 14.0194 12.3522C14.7042 11.9864 15.2768 11.4414 15.6759 10.7755C16.0751 10.1096 16.2859 9.34777 16.2857 8.57138Z" fill="#00AEC0"/>
</svg>
