<svg width="16" height="16" viewBox="0 0 16 16" fill="none" xmlns="http://www.w3.org/2000/svg">
<path d="M6.04533 1.3335H9.95467C10.568 1.3335 10.876 1.3335 11.0667 1.52883C11.422 1.89283 11.422 3.44083 11.0667 3.80483C10.8753 4.00016 10.5687 4.00016 9.95467 4.00016H6.04533C5.432 4.00016 5.12467 4.00016 4.93333 3.80483C4.578 3.44083 4.578 1.89283 4.93333 1.52883C5.124 1.3335 5.43133 1.3335 6.04533 1.3335ZM5.33333 4.00016C5.40883 4.14232 5.47692 4.2883 5.53733 4.4375C5.63796 4.71387 5.67638 5.00903 5.64988 5.30195C5.62338 5.59487 5.53259 5.87834 5.384 6.13216C5.29795 6.26799 5.20494 6.39927 5.10533 6.5255L4.83667 6.88483C4.53667 7.28483 4.38667 7.48483 4.278 7.70416C4.16816 7.92556 4.08963 8.16114 4.04467 8.40416C4 8.6435 4 8.8935 4 9.39483V10.6668C4 12.5522 4 13.4955 4.586 14.0808C5.17133 14.6668 6.11467 14.6668 8 14.6668C9.88533 14.6668 10.8287 14.6668 11.414 14.0808C12 13.4955 12 12.5522 12 10.6668V9.39483C12 8.89483 12 8.64416 11.9553 8.4035C11.9104 8.16048 11.8318 7.92489 11.722 7.7035C11.6133 7.48483 11.4633 7.28483 11.1633 6.88483L10.8947 6.52616C10.7948 6.39995 10.7016 6.26867 10.6153 6.13283C10.4666 5.87892 10.3758 5.59534 10.3493 5.30229C10.3228 5.00924 10.3613 4.71396 10.462 4.4375C10.502 4.33016 10.5567 4.22016 10.6667 4.00016" fill="#4BAE7E"/>
<path d="M5.33333 4.00016C5.40883 4.14232 5.47692 4.2883 5.53733 4.4375C5.63796 4.71387 5.67638 5.00903 5.64988 5.30195C5.62338 5.59487 5.53259 5.87834 5.384 6.13216C5.29795 6.26799 5.20494 6.39927 5.10533 6.5255L4.83667 6.88483C4.53667 7.28483 4.38667 7.48483 4.278 7.70416C4.16816 7.92556 4.08963 8.16114 4.04467 8.40416C4 8.6435 4 8.8935 4 9.39483V10.6668C4 12.5522 4 13.4955 4.586 14.0808C5.17133 14.6668 6.11467 14.6668 8 14.6668C9.88533 14.6668 10.8287 14.6668 11.414 14.0808C12 13.4955 12 12.5522 12 10.6668V9.39483C12 8.89483 12 8.64416 11.9553 8.4035C11.9104 8.16048 11.8318 7.92489 11.722 7.7035C11.6133 7.48483 11.4633 7.28483 11.1633 6.88483L10.8947 6.52616C10.7948 6.39995 10.7016 6.26867 10.6153 6.13283C10.4666 5.87892 10.3758 5.59534 10.3493 5.30229C10.3228 5.00924 10.3613 4.71396 10.462 4.4375C10.502 4.33016 10.5567 4.22016 10.6667 4.00016M6.04533 1.3335H9.95467C10.568 1.3335 10.876 1.3335 11.0667 1.52883C11.422 1.89283 11.422 3.44083 11.0667 3.80483C10.8753 4.00016 10.5687 4.00016 9.95467 4.00016H6.04533C5.432 4.00016 5.12467 4.00016 4.93333 3.80483C4.578 3.44083 4.578 1.89283 4.93333 1.52883C5.124 1.3335 5.43133 1.3335 6.04533 1.3335Z" stroke="#E6F5ED" stroke-width="0.5"/>
<path d="M6.33301 10.5C6.33301 11.6047 7.16634 12 7.99967 12C8.83301 12 9.66634 11.6047 9.66634 10.5C9.66634 9.39533 7.99967 8 7.99967 8C7.99967 8 6.33301 9.39533 6.33301 10.5Z" fill="#E6F5ED"/>
</svg>
