<svg width="32" height="32" viewBox="0 0 32 32" fill="none" xmlns="http://www.w3.org/2000/svg">
<mask id="path-1-inside-1_2065_8221" fill="white">
<path d="M0 16C0 7.16344 7.16344 0 16 0C24.8366 0 32 7.16344 32 16C32 24.8366 24.8366 32 16 32C7.16344 32 0 24.8366 0 16Z"/>
</mask>
<path d="M0 16C0 7.16344 7.16344 0 16 0C24.8366 0 32 7.16344 32 16C32 24.8366 24.8366 32 16 32C7.16344 32 0 24.8366 0 16Z" fill="#F3F6F6"/>
<path d="M0 16M32 16M32 16M0 16M16 0M32 16M16 32M0 16M16 32V31.4C7.49482 31.4 0.6 24.5052 0.6 16H0H-0.6C-0.6 25.1679 6.83207 32.6 16 32.6V32ZM32 16H31.4C31.4 24.5052 24.5052 31.4 16 31.4V32V32.6C25.1679 32.6 32.6 25.1679 32.6 16H32ZM16 0V0.6C24.5052 0.6 31.4 7.49482 31.4 16H32H32.6C32.6 6.83207 25.1679 -0.6 16 -0.6V0ZM16 0V-0.6C6.83207 -0.6 -0.6 6.83207 -0.6 16H0H0.6C0.6 7.49482 7.49482 0.6 16 0.6V0Z" fill="#E3E7E8" mask="url(#path-1-inside-1_2065_8221)"/>
<path d="M22.1163 18.0748L21.283 16.6915C21.108 16.3832 20.9496 15.7998 20.9496 15.4582V13.3498C20.9496 11.3915 19.7996 9.69984 18.1413 8.90817C17.708 8.1415 16.908 7.6665 15.9913 7.6665C15.083 7.6665 14.2663 8.15817 13.833 8.93317C12.208 9.7415 11.083 11.4165 11.083 13.3498V15.4582C11.083 15.7998 10.9246 16.3832 10.7496 16.6832L9.90796 18.0748C9.57463 18.6332 9.49963 19.2498 9.70796 19.8165C9.90796 20.3748 10.383 20.8082 10.9996 21.0165C12.6163 21.5665 14.3163 21.8332 16.0163 21.8332C17.7163 21.8332 19.4163 21.5665 21.033 21.0248C21.6163 20.8332 22.0663 20.3915 22.283 19.8165C22.4996 19.2415 22.4413 18.6082 22.1163 18.0748Z" fill="#004951"/>
<path d="M18.3587 22.6748C18.0087 23.6415 17.0837 24.3332 16.0004 24.3332C15.3421 24.3332 14.6921 24.0665 14.2337 23.5915C13.9671 23.3415 13.7671 23.0082 13.6504 22.6665C13.7587 22.6832 13.8671 22.6915 13.9837 22.7082C14.1754 22.7332 14.3754 22.7582 14.5754 22.7748C15.0504 22.8165 15.5337 22.8415 16.0171 22.8415C16.4921 22.8415 16.9671 22.8165 17.4337 22.7748C17.6087 22.7582 17.7837 22.7498 17.9504 22.7248C18.0837 22.7082 18.2171 22.6915 18.3587 22.6748Z" fill="#004951"/>
</svg>
