<svg width="65" height="32" viewBox="0 0 65 32" fill="none" xmlns="http://www.w3.org/2000/svg">
<path d="M41.965 31.9472C41.2599 31.7203 40.6926 31.2341 40.4575 30.6829C40.2549 30.1886 40.2873 29.37 40.5386 28.8757C41.0491 27.8788 42.0298 27.4817 44.064 27.4817H45.231L45.1743 27.1008C45.1176 26.6469 44.8096 26.1526 44.4935 25.9905C43.7884 25.6258 42.9213 25.7635 42.2486 26.3552C41.8758 26.6793 41.738 26.7523 41.4868 26.7523C40.8871 26.7523 40.5143 26.1769 40.7493 25.6177C41.0005 25.0098 42.0622 24.3858 43.1077 24.2318C44.6961 23.9968 46.2036 24.6938 46.7709 25.9256C46.9411 26.2903 46.9492 26.4443 46.9735 28.9162C46.9897 30.6424 46.9654 31.5825 46.9087 31.6879C46.7547 31.9878 45.7011 32.0121 45.4093 31.7284C45.3445 31.6555 45.2878 31.4691 45.2878 31.3151V31.0233L44.996 31.3232C44.526 31.8095 44.0964 31.9553 43.0591 31.9878C42.5728 32.004 42.0784 31.9878 41.965 31.9472ZM44.3801 30.4074C44.7772 30.2048 45.0122 29.8644 45.0852 29.3943C45.1176 29.2079 45.1581 28.9972 45.1743 28.9243C45.2148 28.7865 45.1257 28.7784 44.1369 28.7784C43.5453 28.7784 42.9294 28.8189 42.7673 28.8594C42.3296 28.981 42.1027 29.2728 42.1027 29.7104C42.1027 30.1156 42.2567 30.3507 42.6538 30.5371C43.0104 30.6992 43.9424 30.6343 44.3801 30.4074Z" fill="#E6F7F9"/>
<path d="M58.6024 31.9067C58.0027 31.7122 57.557 31.3313 57.2571 30.764C57.1274 30.5208 57.0869 30.2939 57.0869 29.832C57.0869 29.135 57.249 28.746 57.7029 28.3245C58.3998 27.6843 58.8618 27.5546 60.588 27.506L61.982 27.4574V27.2061C61.982 26.8414 61.6659 26.2579 61.3499 26.0472C60.9933 25.8122 60.4422 25.7392 59.9154 25.8527C59.5912 25.9256 59.3724 26.0472 59.0239 26.3471C58.6511 26.6793 58.5133 26.7523 58.2621 26.7523C57.6623 26.7523 57.2895 26.1769 57.5246 25.6177C57.7839 24.9936 58.8537 24.3777 59.9316 24.2318C61.5363 24.0211 62.9789 24.637 63.5624 25.8041L63.765 26.2174V28.9486C63.765 31.1449 63.7407 31.696 63.6515 31.7689C63.5948 31.8176 63.3273 31.8743 63.068 31.8986C62.444 31.9634 62.2089 31.8419 62.1036 31.4042L62.0225 31.0801L61.828 31.3151C61.7146 31.4529 61.4228 31.6555 61.1797 31.7689C60.7906 31.9472 60.5961 31.9796 59.8343 31.9959C59.2508 32.0121 58.8294 31.9796 58.6024 31.9067ZM61.0986 30.4803C61.593 30.221 61.828 29.8482 61.9334 29.1593L61.9901 28.7784H60.9122C60.3206 28.7784 59.7047 28.8189 59.5426 28.8594C59.1049 28.981 58.8618 29.289 58.8618 29.7104C58.8618 30.0994 59.032 30.3507 59.4291 30.5371C59.7209 30.6667 60.8069 30.6343 61.0986 30.4803Z" fill="#E6F7F9"/>
<path d="M30.6834 31.85C30.5699 31.8014 30.4402 31.7042 30.4078 31.6312C30.3024 31.3881 30.2619 22.4651 30.3673 22.1166C30.4807 21.7438 30.4645 21.7519 32.0206 21.6952C34.3304 21.6222 35.7567 21.841 36.7779 22.4327C37.3695 22.7812 38.1151 23.5511 38.4231 24.1427C38.8932 25.0423 38.9985 25.5205 39.0066 26.7118C39.0066 27.9356 38.9094 28.3975 38.4717 29.3133C37.718 30.9018 36.5023 31.6636 34.3871 31.8581C33.2768 31.9554 30.9751 31.9554 30.6834 31.85ZM35.1165 30.0103C36.4132 29.5322 37.0778 28.5677 37.1588 27.036C37.1831 26.6227 37.1669 26.1121 37.1102 25.8771C36.8427 24.6047 35.9107 23.6645 34.7032 23.4376C34.4762 23.389 33.8198 23.3485 33.2444 23.3404L32.1989 23.3323L32.1746 26.7929L32.1584 30.2535L33.3902 30.221C34.4033 30.1886 34.7194 30.1562 35.1165 30.0103Z" fill="#EFA987"/>
<path d="M48.9748 31.8419C48.8856 31.7933 48.7884 31.7122 48.756 31.6636C48.7235 31.615 48.6911 30.0184 48.6911 28.1139C48.6911 24.0535 48.6344 24.321 49.5421 24.321C50.1823 24.321 50.3931 24.475 50.3931 24.9531V25.2611L50.7902 24.8802C51.3089 24.3777 51.8194 24.2075 52.7839 24.2075C53.6916 24.2156 54.267 24.4182 54.8424 24.9369C55.3449 25.3908 55.6447 25.9905 55.742 26.7685C55.7825 27.1008 55.7906 28.3165 55.7663 29.4997C55.7096 32.0526 55.7501 31.9392 54.8262 31.9392C53.878 31.9392 53.9185 32.0445 53.9185 29.3944C53.9104 27.0198 53.8699 26.7037 53.4971 26.2579C53.2134 25.9257 52.8568 25.7798 52.2976 25.7798C51.787 25.7798 51.4223 25.9095 51.1063 26.2174C50.62 26.6794 50.6038 26.7523 50.547 29.3052C50.4903 31.5826 50.4822 31.6555 50.312 31.7933C50.1013 31.9635 49.2422 31.9959 48.9748 31.8419Z" fill="#EFA987"/>
<path d="M12.6834 31.2905C12.1729 31.1365 8.03959 27.919 6.30524 26.3305C2.89327 23.1941 0.656442 19.5471 0.105339 16.2243C-0.0648543 15.2193 -0.0243316 13.7281 0.194489 12.8934C0.737487 10.7943 2.30975 9.05186 4.27913 8.3873C4.96801 8.15227 6.84824 8.16848 7.70731 8.41972C9.22285 8.85736 10.2683 9.48951 11.4759 10.7052C12.2458 11.4751 13.0644 12.5206 13.3642 13.1203C13.5911 13.5579 13.5668 14.0037 13.2832 14.4494C13.0076 14.8871 12.651 15.0411 12.0594 14.9843C11.5164 14.9276 11.2652 14.7169 10.5925 13.7281C9.81447 12.5692 9.04455 11.8074 8.20979 11.3778C6.58079 10.535 5.24356 10.5431 4.10894 11.4184C3.09588 12.1883 2.66635 13.1203 2.60151 14.6764C2.55288 15.7705 2.72308 16.6863 3.19314 17.8938C4.07652 20.1955 6.52406 23.186 9.67669 25.8281C10.4871 26.5088 12.6024 28.1297 12.9266 28.3161C13.0319 28.381 14.8798 27.0356 16.0711 26.0307C17.6353 24.7097 19.0616 23.2103 19.864 22.0352C21.1364 20.1631 21.3309 18.3801 20.3746 17.2941C19.945 16.7997 19.5236 16.6052 18.8023 16.5566C18.0486 16.508 17.3273 16.6944 16.6951 17.1077C16.0549 17.521 15.828 17.7966 15.4309 18.5827C15.0175 19.4012 14.742 19.6201 14.126 19.6201C12.8293 19.6201 12.5862 18.2423 13.6074 16.7187C14.4178 15.5111 15.8037 14.5548 17.23 14.2225C17.9838 14.0442 19.4345 14.1009 20.1801 14.3441C22.2062 14.9924 23.592 17.0996 23.4624 19.3121C23.3003 21.9541 21.2904 24.9852 17.692 28.0082C16.525 28.9888 13.8991 30.9501 13.4453 31.1851C13.0563 31.3877 13.0238 31.3877 12.6834 31.2905Z" fill="#EFA987"/>
<path d="M33.4146 17.9992C32.3529 17.8776 31.6235 17.5373 30.9994 16.8727C30.5699 16.4107 30.2619 15.8191 30.1323 15.1951C30.0755 14.9276 30.0512 12.6746 30.0674 8.54132C30.0917 1.36888 30.0026 2.11449 30.9265 1.49045C31.5019 1.10144 32.1746 0.915033 32.5798 1.02849L32.8473 1.10954L32.8878 7.79571C32.9364 15.3653 32.8797 14.7736 33.601 15.1059C33.9576 15.268 34.1116 15.2842 35.7243 15.2842C37.7505 15.2842 38.1152 15.2113 38.5852 14.6845C39.0229 14.1982 39.0634 13.8578 38.9985 11.2158C38.9337 8.6872 38.9175 8.81687 39.4686 8.46838C40.1169 8.05505 41.1219 7.83623 41.4866 8.03074C41.6325 8.11179 41.6406 8.23335 41.6406 11.0537C41.6406 13.7444 41.6568 14.0118 41.7946 14.3198C42.1674 15.1383 42.8887 15.3572 45.0769 15.3085C46.7302 15.268 47.1516 15.187 47.5406 14.8142C47.9864 14.4008 48.0026 14.3036 48.0026 12.164C48.0107 11.0699 48.0188 10.0974 48.0269 10.0001C48.0755 9.48954 48.9994 8.89791 49.7694 8.88981C50.4988 8.88171 50.4744 8.79256 50.4744 11.5075V13.8254L51.0499 12.8124C52.3709 10.4864 53.5055 9.31935 55.2966 8.43596C56.496 7.84434 57.1687 7.68225 58.5384 7.67414C59.4055 7.66604 59.8189 7.69846 60.2808 7.82002C62.2502 8.3144 63.6036 9.57059 64.252 11.5157C64.5032 12.2775 64.5681 13.7849 64.3817 14.6197C64.0008 16.3054 62.931 17.44 61.2939 17.8776C60.8806 17.9911 60.1593 18.0154 56.6743 18.0397C54.4051 18.0559 52.144 18.0397 51.6496 18.0073C50.6284 17.9425 50.2151 17.7885 49.6073 17.2293L49.2345 16.897L48.8373 17.1563C48.3754 17.4724 47.727 17.7237 46.949 17.8939C46.1872 18.064 43.3344 18.0884 42.6942 17.9263C42.0296 17.7642 41.3002 17.3914 40.8626 16.9943L40.4654 16.6458L40.1088 16.9132C39.3065 17.5373 38.261 17.8776 36.859 17.9992C35.7973 18.0884 34.2493 18.0884 33.4146 17.9992ZM60.7509 15.1951C61.5208 14.879 61.8612 14.1982 61.8045 13.096C61.7639 12.2613 61.5046 11.6939 60.9292 11.1591C60.0377 10.3243 58.741 10.0325 57.2822 10.3405C55.6127 10.689 54.3484 11.6696 53.1327 13.5499C52.5897 14.3846 52.0953 15.2194 52.0953 15.2923C52.0953 15.3085 53.9756 15.3247 56.2691 15.3247C59.8594 15.3247 60.4915 15.3085 60.7509 15.1951Z" fill="#EFA987"/>
<path d="M17.254 12.6992C15.1793 12.0184 14.5633 9.33587 16.1437 7.88518C16.7596 7.31787 17.3107 7.09905 18.1374 7.10715C18.7209 7.10715 18.8992 7.13957 19.3287 7.33408C19.9447 7.61773 20.4958 8.17694 20.7957 8.82529C21.1036 9.49796 21.1036 10.3813 20.7794 11.0864C20.5039 11.6862 19.8636 12.3345 19.2963 12.5858C18.802 12.8046 17.7646 12.8613 17.254 12.6992Z" fill="#E6F7F9"/>
<path d="M9.782 7.59341C9.02018 7.39079 8.1449 6.72623 7.69106 6.02114C6.91303 4.78927 6.90492 2.86041 7.69106 1.68526C8.02334 1.17468 8.61496 0.664103 9.15796 0.396656C11.7109 -0.859533 14.6528 1.0207 14.6528 3.88967C14.6528 5.63213 13.6397 7.05851 12.0512 7.55288C11.4758 7.73118 10.3655 7.75549 9.782 7.59341Z" fill="#E6F7F9"/>
<path d="M57.4122 6.15056C56.0345 5.8588 55.7913 3.87321 57.0556 3.25727C58.1416 2.73858 59.3897 3.5004 59.3897 4.69176C59.3897 5.11319 58.9602 5.79396 58.5388 6.02899C58.2875 6.16677 57.7607 6.2235 57.4122 6.15056Z" fill="#EFA987"/>
<path d="M39.6954 5.84269C38.3501 5.59956 37.8638 4.01108 38.8363 3.03855C39.355 2.51176 40.0115 2.39019 40.6679 2.69006C41.4054 3.02234 41.6729 3.47619 41.6243 4.30285C41.5756 5.16192 41.1299 5.6806 40.3276 5.82648C40.133 5.8589 39.8494 5.867 39.6954 5.84269Z" fill="#EFA987"/>
</svg>
