<svg width="45" height="50" viewBox="0 0 45 50" fill="none" xmlns="http://www.w3.org/2000/svg">
<path d="M22.5 10C21.125 10 19.9479 9.51042 18.9688 8.53125C17.9896 7.55208 17.5 6.375 17.5 5C17.5 3.625 17.9896 2.44792 18.9688 1.46875C19.9479 0.489583 21.125 0 22.5 0C23.875 0 25.0521 0.489583 26.0312 1.46875C27.0104 2.44792 27.5 3.625 27.5 5C27.5 6.375 27.0104 7.55208 26.0312 8.53125C25.0521 9.51042 23.875 10 22.5 10ZM15 50V17.5C12.5 17.2917 9.95833 16.9792 7.375 16.5625C4.79167 16.1458 2.33333 15.625 0 15L1.25 10C4.5 10.875 7.95833 11.5104 11.625 11.9062C15.2917 12.3021 18.9167 12.5 22.5 12.5C26.0833 12.5 29.7083 12.3021 33.375 11.9062C37.0417 11.5104 40.5 10.875 43.75 10L45 15C42.6667 15.625 40.2083 16.1458 37.625 16.5625C35.0417 16.9792 32.5 17.2917 30 17.5V50H25V35H20V50H15Z" fill="#00AEC0"/>
</svg>
