<svg width="12" height="12" viewBox="0 0 12 12" fill="none" xmlns="http://www.w3.org/2000/svg">
<path d="M6.00004 2.3252C3.61004 2.3252 1.66504 4.2702 1.66504 6.6602C1.66504 9.0502 3.61004 11.0002 6.00004 11.0002C8.39004 11.0002 10.335 9.0552 10.335 6.6652C10.335 4.2752 8.39004 2.3252 6.00004 2.3252ZM6.37504 6.5002C6.37504 6.7052 6.20504 6.8752 6.00004 6.8752C5.79504 6.8752 5.62504 6.7052 5.62504 6.5002V4.0002C5.62504 3.7952 5.79504 3.6252 6.00004 3.6252C6.20504 3.6252 6.37504 3.7952 6.37504 4.0002V6.5002Z" fill="#004951"/>
<path d="M7.44531 1.725H4.55531C4.35531 1.725 4.19531 1.565 4.19531 1.365C4.19531 1.165 4.35531 1 4.55531 1H7.44531C7.64531 1 7.80531 1.16 7.80531 1.36C7.80531 1.56 7.64531 1.725 7.44531 1.725Z" fill="#004951"/>
</svg>
