<svg width="21" height="21" viewBox="0 0 21 21" fill="none" xmlns="http://www.w3.org/2000/svg">
<path d="M9.7026 16.0919H10.0442L10.05 16.0744V16.8216C10.05 16.9267 10.056 17.026 10.0677 17.1252C9.90872 18.3569 8.81329 20.044 7.53531 20.0265C6.53413 20.0148 5.6743 19.4077 5.29739 18.5437C5.25027 18.4387 5.15016 18.3745 5.03826 18.3745H5.03236C3.31858 18.3745 1.92284 16.2963 1.92284 14.5917C1.92284 14.3874 1.94638 14.1947 1.98172 14.0021C1.99938 13.8853 1.94639 13.7686 1.84627 13.7102C0.56241 12.9805 0.0500488 11.6087 0.0500488 10.0384C0.0500488 8.46804 0.56241 7.09621 1.84627 6.36651C1.95228 6.30813 2.00527 6.19138 1.98172 6.07463C1.94049 5.88199 1.92284 5.6835 1.92284 5.48502C1.92284 3.78628 3.31269 1.70226 5.03236 1.70226H5.03826C5.15016 1.70226 5.25027 1.63805 5.29739 1.53297C5.6743 0.669008 6.52824 0.0618926 7.53531 0.0502174C8.81329 0.0327046 9.90872 1.01926 10.0677 2.251C10.056 2.35024 10.05 3.14999 10.05 3.25506V4.41674C10.0206 4.41674 9.99114 4.41674 9.96169 4.41674C8.00645 4.46344 6.41637 6.06879 6.41637 8.00687C6.41048 9.30282 7.09361 10.4353 8.12424 11.0716C8.28914 11.1767 8.38927 11.3518 8.38927 11.5445V12.0698C8.38927 12.3617 8.61895 12.6011 8.90753 12.6186C8.68962 12.7003 8.5306 12.9046 8.5306 13.1498V13.2374C8.5306 13.5001 8.71319 13.7219 8.96054 13.7861C8.71319 13.8503 8.5306 14.0721 8.5306 14.3348V14.4224C8.5306 14.7376 8.78976 14.9945 9.10778 14.9945H9.12543M9.7026 16.0919C9.38458 16.0919 9.12543 15.8351 9.12543 15.5199V14.9945M9.7026 16.0919L10.3916 16.092C10.7097 16.092 10.9688 15.8351 10.9688 15.5199V14.9945L9.12543 14.9945M4.27855 7.47565C4.0901 6.99113 3.6955 6.75179 3.08891 6.75763M4.13132 12.1457C3.60717 12.2625 3.20082 12.5602 2.91813 13.0389M6.7815 15.5432C6.25735 15.66 5.85099 15.9577 5.56831 16.4364M15.7862 6.97361C15.9747 6.48909 16.3693 6.24975 16.9759 6.25559M15.9393 11.6379C16.4635 11.7546 16.8698 12.0523 17.1525 12.531M13.2892 15.0412C13.8133 15.1579 14.2197 15.4557 14.5023 15.9343M10.0442 12.6244V7.38225M9.12543 8.25789H10.9629M18.2479 6.37818C18.1478 6.3198 18.0948 6.20305 18.1125 6.0863C18.1478 5.89366 18.1714 5.70102 18.1714 5.4967C18.1714 3.79212 16.7756 1.71394 15.0618 1.71394H15.0559C14.944 1.71394 14.8439 1.64972 14.7968 1.54464C14.4199 0.680677 13.5601 0.0735703 12.5589 0.0618951C11.2809 0.0443823 10.2209 1.03094 10.0677 2.26267C10.056 2.36191 10.05 3.16167 10.05 3.26674V4.42842C10.05 4.42842 10.0795 4.42842 10.0913 4.42842C12.076 4.45177 13.6837 6.05128 13.6837 8.02439C13.6837 9.3145 13.0006 10.4412 11.9759 11.0774C11.811 11.1767 11.7108 11.3577 11.7108 11.5503V12.0757C11.7108 12.3676 11.4811 12.6069 11.1926 12.6244C11.4105 12.7061 11.5695 12.9105 11.5695 13.1556V13.2432C11.5695 13.5059 11.3869 13.7277 11.1396 13.7919C11.3869 13.8562 11.5695 14.078 11.5695 14.3407V14.4282C11.5695 14.7435 11.3103 15.0003 10.9923 15.0003H10.9747V15.5257C10.9747 15.8409 10.7156 16.0978 10.3975 16.0978H10.0559V16.845C10.0559 16.9501 10.0618 17.0493 10.0736 17.1486C10.2267 18.3803 11.2868 20.0674 12.5648 20.0499C13.5719 20.0382 14.4258 19.4311 14.8027 18.5671C14.8498 18.462 14.9499 18.3978 15.0618 18.3978H15.0677C16.7874 18.3978 18.1773 16.3138 18.1773 14.615C18.1773 14.4166 18.1596 14.2181 18.1184 14.0254C18.0948 13.9087 18.1478 13.7919 18.2538 13.7336C19.5377 13.0039 20.05 11.632 20.05 10.0617C20.05 8.4914 19.5377 7.11956 18.2538 6.38985L18.2479 6.37818ZM11.1219 13.7861C11.0748 13.7978 11.0277 13.8095 10.9747 13.8095H9.10188C9.04888 13.8095 9.00176 13.8036 8.95465 13.7861C8.7073 13.8503 8.52474 14.0721 8.52474 14.3348V14.4224C8.52474 14.7376 8.78386 14.9945 9.10188 14.9945H10.9747C11.2927 14.9945 11.5518 14.7376 11.5518 14.4224V14.3348C11.5518 14.0721 11.3693 13.8503 11.1219 13.7861ZM10.0854 4.42842C10.0854 4.42842 10.0559 4.42842 10.0442 4.42842C10.0147 4.42842 9.98528 4.42842 9.95584 4.42842C8.00059 4.47512 6.41636 6.08047 6.41047 8.01855C6.41047 9.30866 7.09364 10.447 8.11838 11.0833C8.28328 11.1825 8.38337 11.3635 8.38337 11.5561V12.0815C8.38337 12.3734 8.61306 12.6127 8.90163 12.6303C8.91341 12.6303 8.92519 12.6303 8.93696 12.6303H11.1278C11.1278 12.6303 11.1514 12.6303 11.1631 12.6303C11.4517 12.6127 11.6814 12.3734 11.6814 12.0815V11.5561C11.6814 11.3635 11.7815 11.1884 11.9464 11.0833C12.9712 10.447 13.6543 9.32033 13.6543 8.03022C13.6543 6.05711 12.0524 4.45762 10.0618 4.43427L10.0854 4.42842ZM11.1749 12.6186C11.1749 12.6186 11.1513 12.6186 11.1396 12.6186H8.94875C8.94875 12.6186 8.9252 12.6186 8.91342 12.6186C8.69552 12.7003 8.5365 12.9046 8.5365 13.1498V13.2374C8.5365 13.5001 8.71909 13.7219 8.96644 13.7861C9.01355 13.7978 9.06067 13.8095 9.11367 13.8095H10.9865C11.0395 13.8095 11.0866 13.8036 11.1337 13.7861C11.381 13.7219 11.5636 13.5001 11.5636 13.2374V13.1498C11.5636 12.9046 11.4046 12.7003 11.1867 12.6186H11.1749Z" stroke="#004951" stroke-width="0.1" stroke-linecap="round" stroke-linejoin="round"/>
</svg>
