<svg width="281" height="200" viewBox="0 0 281 200" fill="none" xmlns="http://www.w3.org/2000/svg">
<path d="M228.858 0H57.4292C49.5395 0 43.1436 6.39593 43.1436 14.2857V185.714C43.1436 193.604 49.5395 200 57.4292 200H228.858C236.747 200 243.143 193.604 243.143 185.714V14.2857C243.143 6.39593 236.747 0 228.858 0Z" fill="url(#paint0_linear_2045_6263)"/>
<g filter="url(#filter0_d_2045_6263)">
<path d="M206 14.2856H13.1428C9.19796 14.2856 6 17.4836 6 21.4285V57.1428C6 61.0877 9.19796 64.2856 13.1428 64.2856H206C209.945 64.2856 213.143 61.0877 213.143 57.1428V21.4285C213.143 17.4836 209.945 14.2856 206 14.2856Z" fill="white"/>
</g>
<path d="M104.571 25.7144H67.4283C65.0614 25.7144 63.1426 27.6331 63.1426 30.0001C63.1426 32.367 65.0614 34.2858 67.4283 34.2858H104.571C106.938 34.2858 108.857 32.367 108.857 30.0001C108.857 27.6331 106.938 25.7144 104.571 25.7144Z" fill="#F8D7C8"/>
<path d="M130.285 44.2856H67.4283C65.0614 44.2856 63.1426 46.2044 63.1426 48.5714C63.1426 50.9383 65.0614 52.8571 67.4283 52.8571H130.285C132.652 52.8571 134.571 50.9383 134.571 48.5714C134.571 46.2044 132.652 44.2856 130.285 44.2856Z" fill="#FDF6F3"/>
<path d="M44.5718 18.5713H17.429C13.4841 18.5713 10.2861 21.7693 10.2861 25.7141V52.857C10.2861 56.8019 13.4841 59.9999 17.429 59.9999H44.5718C48.5167 59.9999 51.7146 56.8019 51.7146 52.857V25.7141C51.7146 21.7693 48.5167 18.5713 44.5718 18.5713Z" fill="#EFA987"/>
<path d="M27.7449 43.9713H30.602L30.6335 42.8713C30.6335 41.4256 31.5449 41.0484 32.8335 40.6399C34.1261 40.2722 35.2638 39.4936 36.0746 38.422C36.8855 37.3503 37.3253 36.0437 37.3277 34.6999C37.3561 33.8794 37.2137 33.0619 36.9097 32.2993C36.6058 31.5367 36.1468 30.8454 35.5619 30.2693C34.9769 29.6933 34.2788 29.2449 33.5116 28.9526C32.7444 28.6603 31.9249 28.5305 31.1049 28.5713C30.2383 28.5524 29.377 28.7097 28.5731 29.0337C27.7691 29.3577 27.0394 29.8417 26.4281 30.4562C25.8168 31.0706 25.3367 31.8029 25.017 32.6085C24.6972 33.4141 24.5443 34.2763 24.5678 35.1427H27.522C27.5108 34.6643 27.5952 34.1885 27.7703 33.7431C27.9453 33.2978 28.2075 32.8918 28.5414 32.5491C28.8754 32.2064 29.2744 31.9337 29.7151 31.7472C30.1558 31.5606 30.6292 31.4639 31.1078 31.4627C31.5393 31.4377 31.9712 31.5059 32.374 31.6626C32.7768 31.8194 33.1412 32.061 33.4424 32.3711C33.7435 32.6812 33.9744 33.0525 34.1193 33.4597C34.2642 33.867 34.3197 34.3007 34.282 34.7313C34.263 35.4283 34.0206 36.1007 33.5906 36.6496C33.1606 37.1984 32.5657 37.5947 31.8935 37.7799L30.8563 38.1913C29.8409 38.436 28.9544 39.053 28.3724 39.9203C27.7903 40.7875 27.5552 41.8418 27.7135 42.8742L27.7449 43.9713ZM29.1592 50.7627C29.439 50.7727 29.7179 50.7264 29.9795 50.6267C30.2411 50.527 30.48 50.3758 30.6822 50.1822C30.8844 49.9885 31.0457 49.7563 31.1565 49.4993C31.2674 49.2422 31.3256 48.9655 31.3278 48.6856C31.3253 48.4059 31.2668 48.1295 31.1557 47.8728C31.0447 47.6161 30.8833 47.3842 30.6812 47.1908C30.479 46.9975 30.2402 46.8466 29.9788 46.7471C29.7174 46.6475 29.4387 46.6014 29.1592 46.6113C28.8797 46.6014 28.601 46.6475 28.3396 46.7471C28.0782 46.8466 27.8393 46.9975 27.6372 47.1908C27.4351 47.3842 27.2737 47.6161 27.1627 47.8728C27.0516 48.1295 26.9931 48.4059 26.9906 48.6856C26.9927 48.9655 27.051 49.2422 27.1618 49.4993C27.2727 49.7563 27.434 49.9885 27.6362 50.1822C27.8384 50.3758 28.0773 50.527 28.3389 50.6267C28.6005 50.7264 28.8794 50.7727 29.1592 50.7627Z" fill="white"/>
<g filter="url(#filter1_d_2045_6263)">
<path d="M74.5716 75.7144H267.428C269.323 75.7144 271.14 76.4669 272.479 77.8064C273.819 79.146 274.571 80.9628 274.571 82.8572V118.571C274.571 120.466 273.819 122.283 272.479 123.622C271.14 124.962 269.323 125.714 267.428 125.714H74.5716C72.6772 125.714 70.8603 124.962 69.5208 123.622C68.1813 122.283 67.4287 120.466 67.4287 118.571V82.8572C67.4287 80.9628 68.1813 79.146 69.5208 77.8064C70.8603 76.4669 72.6772 75.7144 74.5716 75.7144V75.7144Z" fill="white"/>
</g>
<path d="M166 87.1431H128.857C126.49 87.1431 124.571 89.0618 124.571 91.4288C124.571 93.7957 126.49 95.7145 128.857 95.7145H166C168.367 95.7145 170.286 93.7957 170.286 91.4288C170.286 89.0618 168.367 87.1431 166 87.1431Z" fill="#F8D7C8"/>
<path d="M191.714 105.714H128.857C126.49 105.714 124.571 107.633 124.571 110C124.571 112.367 126.49 114.286 128.857 114.286H191.714C194.081 114.286 196 112.367 196 110C196 107.633 194.081 105.714 191.714 105.714Z" fill="#FDF6F3"/>
<path d="M106 80H78.8567C74.9118 80 71.7139 83.198 71.7139 87.1429V114.286C71.7139 118.231 74.9118 121.429 78.8567 121.429H106C109.944 121.429 113.142 118.231 113.142 114.286V87.1429C113.142 83.198 109.944 80 106 80Z" fill="#EFA987"/>
<path d="M89.1736 105.4H92.0308L92.0622 104.3C92.0622 102.854 92.9736 102.477 94.2622 102.069C95.5548 101.701 96.6925 100.922 97.5033 99.8507C98.3142 98.779 98.7541 97.4724 98.7565 96.1286C98.7848 95.3081 98.6424 94.4906 98.3385 93.728C98.0345 92.9654 97.5755 92.2741 96.9906 91.6981C96.4056 91.122 95.7075 90.6736 94.9403 90.3813C94.1731 90.089 93.3536 89.9592 92.5336 90C91.6671 89.9811 90.8057 90.1384 90.0018 90.4624C89.1979 90.7864 88.4681 91.2704 87.8568 91.8849C87.2455 92.4994 86.7655 93.2316 86.4457 94.0372C86.1259 94.8428 85.9731 95.705 85.9965 96.5714H88.9508C88.9395 96.093 89.0239 95.6172 89.199 95.1718C89.374 94.7265 89.6362 94.3205 89.9702 93.9778C90.3041 93.6351 90.7031 93.3624 91.1438 93.1759C91.5845 92.9893 92.0579 92.8926 92.5365 92.8914C92.968 92.8664 93.3999 92.9346 93.8027 93.0913C94.2056 93.2481 94.5699 93.4897 94.8711 93.7998C95.1722 94.1099 95.4031 94.4812 95.548 94.8885C95.6929 95.2957 95.7484 95.7294 95.7107 96.16C95.6917 96.857 95.4494 97.5294 95.0193 98.0783C94.5893 98.6271 93.9944 99.0234 93.3222 99.2086L92.285 99.62C91.2696 99.8647 90.3831 100.482 89.8011 101.349C89.219 102.216 88.9839 103.27 89.1422 104.303L89.1736 105.4ZM90.5879 112.191C90.8677 112.201 91.1466 112.155 91.4082 112.055C91.6698 111.956 91.9087 111.805 92.1109 111.611C92.3131 111.417 92.4744 111.185 92.5853 110.928C92.6961 110.671 92.7544 110.394 92.7565 110.114C92.754 109.835 92.6955 109.558 92.5844 109.302C92.4734 109.045 92.312 108.813 92.1099 108.62C91.9078 108.426 91.6689 108.275 91.4075 108.176C91.1461 108.076 90.8674 108.03 90.5879 108.04C90.3084 108.03 90.0297 108.076 89.7683 108.176C89.5069 108.275 89.268 108.426 89.0659 108.62C88.8638 108.813 88.7024 109.045 88.5914 109.302C88.4803 109.558 88.4218 109.835 88.4193 110.114C88.4214 110.394 88.4797 110.671 88.5905 110.928C88.7014 111.185 88.8627 111.417 89.0649 111.611C89.2671 111.805 89.506 111.956 89.7676 112.055C90.0292 112.155 90.3081 112.201 90.5879 112.191Z" fill="white"/>
<g filter="url(#filter2_d_2045_6263)">
<path d="M13.1428 137.143H206C207.894 137.143 209.711 137.896 211.051 139.235C212.39 140.575 213.143 142.392 213.143 144.286V180C213.143 181.895 212.39 183.711 211.051 185.051C209.711 186.391 207.894 187.143 206 187.143H13.1428C11.2484 187.143 9.43164 186.391 8.09209 185.051C6.75255 183.711 6 181.895 6 180V144.286C6 142.392 6.75255 140.575 8.09209 139.235C9.43164 137.896 11.2484 137.143 13.1428 137.143V137.143Z" fill="white"/>
</g>
<path d="M104.571 148.572H67.4283C65.0614 148.572 63.1426 150.491 63.1426 152.857C63.1426 155.224 65.0614 157.143 67.4283 157.143H104.571C106.938 157.143 108.857 155.224 108.857 152.857C108.857 150.491 106.938 148.572 104.571 148.572Z" fill="#F8D7C8"/>
<path d="M130.285 167.143H67.4283C65.0614 167.143 63.1426 169.062 63.1426 171.429C63.1426 173.796 65.0614 175.714 67.4283 175.714H130.285C132.652 175.714 134.571 173.796 134.571 171.429C134.571 169.062 132.652 167.143 130.285 167.143Z" fill="#FDF6F3"/>
<path d="M44.5718 141.429H17.429C13.4841 141.429 10.2861 144.627 10.2861 148.572V175.714C10.2861 179.659 13.4841 182.857 17.429 182.857H44.5718C48.5167 182.857 51.7146 179.659 51.7146 175.714V148.572C51.7146 144.627 48.5167 141.429 44.5718 141.429Z" fill="#EFA987"/>
<path d="M27.7449 166.829H30.602L30.6335 165.729C30.6335 164.283 31.5449 163.906 32.8335 163.497C34.1261 163.13 35.2638 162.351 36.0746 161.279C36.8855 160.208 37.3253 158.901 37.3277 157.557C37.3561 156.737 37.2137 155.919 36.9097 155.157C36.6058 154.394 36.1468 153.703 35.5619 153.127C34.9769 152.551 34.2788 152.102 33.5116 151.81C32.7444 151.518 31.9249 151.388 31.1049 151.429C30.2383 151.41 29.377 151.567 28.5731 151.891C27.7691 152.215 27.0394 152.699 26.4281 153.314C25.8168 153.928 25.3367 154.66 25.017 155.466C24.6972 156.272 24.5443 157.134 24.5678 158H27.522C27.5108 157.522 27.5952 157.046 27.7703 156.601C27.9453 156.155 28.2075 155.749 28.5414 155.407C28.8754 155.064 29.2744 154.791 29.7151 154.605C30.1558 154.418 30.6292 154.321 31.1078 154.32C31.5393 154.295 31.9712 154.363 32.374 154.52C32.7768 154.677 33.1412 154.918 33.4424 155.229C33.7435 155.539 33.9744 155.91 34.1193 156.317C34.2642 156.724 34.3197 157.158 34.282 157.589C34.263 158.286 34.0206 158.958 33.5906 159.507C33.1606 160.056 32.5657 160.452 31.8935 160.637L30.8563 161.049C29.8409 161.293 28.9544 161.91 28.3724 162.778C27.7903 163.645 27.5552 164.699 27.7135 165.732L27.7449 166.829ZM29.1592 173.62C29.439 173.63 29.7179 173.584 29.9795 173.484C30.2411 173.384 30.48 173.233 30.6822 173.04C30.8844 172.846 31.0457 172.614 31.1565 172.357C31.2674 172.1 31.3256 171.823 31.3278 171.543C31.3253 171.263 31.2668 170.987 31.1557 170.73C31.0447 170.473 30.8833 170.242 30.6812 170.048C30.479 169.855 30.2402 169.704 29.9788 169.604C29.7174 169.505 29.4387 169.459 29.1592 169.469C28.8797 169.459 28.601 169.505 28.3396 169.604C28.0782 169.704 27.8393 169.855 27.6372 170.048C27.4351 170.242 27.2737 170.473 27.1627 170.73C27.0516 170.987 26.9931 171.263 26.9906 171.543C26.9927 171.823 27.051 172.1 27.1618 172.357C27.2727 172.614 27.434 172.846 27.6362 173.04C27.8384 173.233 28.0773 173.384 28.3389 173.484C28.6005 173.584 28.8794 173.63 29.1592 173.62Z" fill="white"/>
<defs>
<filter id="filter0_d_2045_6263" x="0" y="11.2856" width="219.143" height="62" filterUnits="userSpaceOnUse" color-interpolation-filters="sRGB">
<feFlood flood-opacity="0" result="BackgroundImageFix"/>
<feColorMatrix in="SourceAlpha" type="matrix" values="0 0 0 0 0 0 0 0 0 0 0 0 0 0 0 0 0 0 127 0" result="hardAlpha"/>
<feOffset dy="3"/>
<feGaussianBlur stdDeviation="3"/>
<feColorMatrix type="matrix" values="0 0 0 0 0 0 0 0 0 0 0 0 0 0 0 0 0 0 0.161 0"/>
<feBlend mode="normal" in2="BackgroundImageFix" result="effect1_dropShadow_2045_6263"/>
<feBlend mode="normal" in="SourceGraphic" in2="effect1_dropShadow_2045_6263" result="shape"/>
</filter>
<filter id="filter1_d_2045_6263" x="61.4287" y="72.7144" width="219.143" height="62" filterUnits="userSpaceOnUse" color-interpolation-filters="sRGB">
<feFlood flood-opacity="0" result="BackgroundImageFix"/>
<feColorMatrix in="SourceAlpha" type="matrix" values="0 0 0 0 0 0 0 0 0 0 0 0 0 0 0 0 0 0 127 0" result="hardAlpha"/>
<feOffset dy="3"/>
<feGaussianBlur stdDeviation="3"/>
<feColorMatrix type="matrix" values="0 0 0 0 0 0 0 0 0 0 0 0 0 0 0 0 0 0 0.161 0"/>
<feBlend mode="normal" in2="BackgroundImageFix" result="effect1_dropShadow_2045_6263"/>
<feBlend mode="normal" in="SourceGraphic" in2="effect1_dropShadow_2045_6263" result="shape"/>
</filter>
<filter id="filter2_d_2045_6263" x="0" y="134.143" width="219.143" height="62" filterUnits="userSpaceOnUse" color-interpolation-filters="sRGB">
<feFlood flood-opacity="0" result="BackgroundImageFix"/>
<feColorMatrix in="SourceAlpha" type="matrix" values="0 0 0 0 0 0 0 0 0 0 0 0 0 0 0 0 0 0 127 0" result="hardAlpha"/>
<feOffset dy="3"/>
<feGaussianBlur stdDeviation="3"/>
<feColorMatrix type="matrix" values="0 0 0 0 0 0 0 0 0 0 0 0 0 0 0 0 0 0 0.161 0"/>
<feBlend mode="normal" in2="BackgroundImageFix" result="effect1_dropShadow_2045_6263"/>
<feBlend mode="normal" in="SourceGraphic" in2="effect1_dropShadow_2045_6263" result="shape"/>
</filter>
<linearGradient id="paint0_linear_2045_6263" x1="143.143" y1="0" x2="143.143" y2="200" gradientUnits="userSpaceOnUse">
<stop stop-color="#FAE4DA"/>
<stop offset="1" stop-color="#F8D7C8"/>
</linearGradient>
</defs>
</svg>
