<svg width="20" height="20" viewBox="0 0 20 20" fill="none" xmlns="http://www.w3.org/2000/svg">
<path d="M18.3337 6.50817V10.4165H14.9337C14.8337 10.4082 14.617 10.2832 14.567 10.1915L13.7003 8.54984C13.3587 7.89984 12.767 7.53317 12.1337 7.5665C11.5003 7.59984 10.9587 8.02484 10.6837 8.7165L9.53366 11.5998L9.36699 11.1665C8.95866 10.1082 7.79199 9.30817 6.64199 9.30817L1.66699 9.33317V6.50817C1.66699 3.47484 3.47533 1.6665 6.50866 1.6665H13.492C16.5253 1.6665 18.3337 3.47484 18.3337 6.50817Z" fill="#004951"/>
<path d="M18.3337 13.4919V11.6669H14.9337C14.3753 11.6669 13.717 11.2669 13.4587 10.7752L12.592 9.13354C12.3587 8.69187 12.0253 8.71687 11.842 9.1752L9.92533 14.0169C9.71699 14.5585 9.36699 14.5585 9.15032 14.0169L8.20033 11.6169C7.97533 11.0335 7.27533 10.5585 6.65033 10.5585L1.66699 10.5835V13.4919C1.66699 16.4752 3.41699 18.2752 6.35866 18.3252C6.45033 18.3335 6.55033 18.3335 6.64199 18.3335H13.3087C13.4337 18.3335 13.5587 18.3335 13.6753 18.3252C16.6003 18.2585 18.3337 16.4669 18.3337 13.4919Z" fill="#004951"/>
<path d="M1.6666 10.5835V13.3418C1.64993 13.0752 1.6416 12.7918 1.6416 12.5002V10.5835H1.6666Z" fill="#004951"/>
</svg>
