<svg viewBox="0 0 16 16" fill="none" xmlns="http://www.w3.org/2000/svg">
<path d="M14.6663 15.1668H3.33301C1.95301 15.1668 0.833008 14.0468 0.833008 12.6668V1.3335C0.833008 1.06016 1.05967 0.833496 1.33301 0.833496C1.60634 0.833496 1.83301 1.06016 1.83301 1.3335V12.6668C1.83301 13.4935 2.50634 14.1668 3.33301 14.1668H14.6663C14.9397 14.1668 15.1663 14.3935 15.1663 14.6668C15.1663 14.9402 14.9397 15.1668 14.6663 15.1668Z" fill="#004951"/>
<path d="M3.33289 11.8335C3.21956 11.8335 3.09956 11.7935 3.00622 11.7135C2.79956 11.5335 2.77289 11.2202 2.95289 11.0069L6.01289 7.43354C6.34622 7.04687 6.82622 6.81354 7.33289 6.79354C7.83956 6.78021 8.33956 6.96687 8.69956 7.32687L9.33289 7.96021C9.49956 8.12688 9.71956 8.20687 9.95289 8.20687C10.1862 8.20021 10.3996 8.09354 10.5529 7.91354L13.6129 4.34021C13.7929 4.13355 14.1062 4.10687 14.3196 4.28687C14.5262 4.46687 14.5529 4.7802 14.3729 4.99353L11.3129 8.56688C10.9796 8.95354 10.4996 9.18687 9.99289 9.20687C9.48622 9.22021 8.98622 9.03355 8.62622 8.67355L7.99956 8.04021C7.83289 7.87354 7.61289 7.78688 7.37956 7.79354C7.14622 7.80021 6.93289 7.90688 6.77956 8.08688L3.71956 11.6602C3.61289 11.7735 3.47289 11.8335 3.33289 11.8335Z" fill="#004951"/>
</svg>
