<svg width="15" height="21" viewBox="0 0 15 21" fill="none" xmlns="http://www.w3.org/2000/svg">
<path d="M12.3839 14.5205L11.7804 13.1411C11.5014 12.5023 11.1086 11.9144 10.6246 11.4056C10.4709 11.2474 10.3514 11.0608 10.266 10.8629C10.1863 10.8629 10.1009 10.8516 10.0268 10.8234L6.61082 10.5351C6.11549 11.4848 5.76249 12.5023 5.56892 13.5538L5.4038 14.43C5.38103 14.5657 5.36396 14.7014 5.35826 14.8371L5.20455 18.9129H7.22569L7.32249 16.3804C7.33957 15.9055 7.26555 15.4306 7.10044 14.984L7.08906 14.9558C7.07198 14.9106 7.07766 14.8597 7.11182 14.8201C7.65269 14.153 8.06832 13.4012 8.33591 12.5928L8.39853 12.4119C8.4213 12.3441 8.5181 12.3384 8.54657 12.4006C8.75153 12.8019 8.99634 13.2712 9.39487 13.7856C9.79341 14.3 10.3229 14.7862 10.7157 15.0915C10.7442 15.1141 10.7556 15.1536 10.7385 15.1876C10.4709 15.7076 10.266 16.2616 10.1635 16.8383L9.78202 18.9129H11.7918L12.4693 15.2271C12.5148 14.9897 12.4864 14.7523 12.3896 14.5318L12.3839 14.5205Z" fill="#EFA987"/>
<path d="M11.3477 0.659134C10.9776 -0.0248897 9.85035 0.0825224 9.48597 0.150359L8.6889 0.291687C8.39284 0.342564 8.21635 0.647834 8.31883 0.930488C8.31883 0.947447 8.33022 0.95874 8.33591 0.970047C8.44409 1.22444 8.64904 1.42795 8.91093 1.52406C8.92801 1.52971 8.95079 1.53536 8.96787 1.54101C9.38918 1.66538 9.68524 2.0498 9.68524 2.48509V2.89211C9.68524 3.0504 9.73079 3.19172 9.8105 3.31609C9.83327 3.35001 9.86173 3.38392 9.8902 3.41784C10.0382 3.58744 11.137 2.75643 11.2623 2.42855L11.3022 2.3268C11.5128 1.77845 11.7235 1.11138 11.3477 0.659134Z" fill="#EFA987"/>
<path d="M13.9097 7.66331L11.7462 5.19855C11.5185 4.93851 11.194 4.78588 10.8467 4.78023H10.4083C10.4311 4.43539 9.93005 4.32797 9.81618 4.64455C9.76494 4.72369 9.85604 5.30031 9.85604 5.39642C9.89589 5.48687 8.97925 6.38006 8.89385 6.25004C8.84261 6.13698 8.15941 5.53208 8.2619 5.3851C8.30744 5.23247 8.58642 4.75762 8.49533 4.59933C8.38146 4.29972 7.94876 4.39017 7.90321 4.69544H7.67548C7.43635 4.68413 7.20291 4.60498 7.00364 4.4693L1.93085 0.964397L1.54369 1.50709L1.15084 2.0611L5.99592 5.96172C6.46278 6.34048 6.78162 6.87753 6.87841 7.46545L7.20861 9.43271L6.76453 10.2298C6.7076 10.3259 6.65636 10.422 6.60512 10.5238L10.0212 10.8121C9.91867 10.7668 9.82188 10.6934 9.75356 10.5916C9.58276 10.3259 9.65108 9.97542 9.91298 9.79452L10.0952 9.67581L10.6873 7.36934C10.7556 7.06972 11.1484 6.95666 11.3762 7.17713L12.2928 8.08163C12.2928 8.08163 12.3156 8.10425 12.3156 8.13817C12.3156 8.17774 12.2814 8.20035 12.2814 8.206L10.6987 9.26878L11.3363 10.2976L13.6991 8.89002C14.1375 8.62998 14.2343 8.0364 13.8983 7.65199L13.9097 7.66331Z" fill="#EFA987"/>
<path d="M10.7157 9.28009L10.1065 9.68711L10.6987 7.38066C10.767 7.07539 11.1598 6.96797 11.3876 7.18844L12.3042 8.09293C12.3099 8.09859 12.327 8.11555 12.327 8.14947C12.327 8.18904 12.2928 8.2173 12.2928 8.2173H12.2985L10.7157 9.28009ZM10.7157 9.28009L11.3534 10.3089L10.5506 10.7838C10.4595 10.8347 10.3627 10.8629 10.266 10.8629M10.7157 9.28009L10.71 9.28008L10.1008 9.68711L9.91867 9.80582C9.65677 9.98106 9.58276 10.3372 9.75925 10.6029C9.82757 10.7047 9.91868 10.7782 10.0268 10.8234M10.266 10.8629C10.3514 11.0608 10.4709 11.2474 10.6246 11.4056C11.1086 11.9144 11.5014 12.5023 11.7804 13.1411L12.3839 14.5205L12.3896 14.5318C12.4864 14.7523 12.5148 14.9897 12.4693 15.2271L11.7918 18.9129H9.78202L10.1635 16.8383C10.266 16.2616 10.4709 15.7076 10.7385 15.1876C10.7556 15.1536 10.7442 15.1141 10.7157 15.0915C10.3229 14.7862 9.79341 14.3 9.39487 13.7856C8.99634 13.2712 8.75153 12.8019 8.54656 12.4006C8.5181 12.3384 8.4213 12.3441 8.39853 12.4119L8.33591 12.5928C8.06832 13.4012 7.65269 14.153 7.11182 14.8201C7.07766 14.8597 7.07198 14.9106 7.08906 14.9558L7.10044 14.984C7.26555 15.4306 7.33957 15.9055 7.32249 16.3804L7.22569 18.9129M10.266 10.8629C10.1863 10.8629 10.1009 10.8516 10.0268 10.8234M10.266 10.8629C10.1806 10.8686 10.1009 10.8516 10.0268 10.8234M10.0268 10.8234L6.61082 10.5351C6.11549 11.4848 5.76249 12.5023 5.56892 13.5538L5.4038 14.43C5.38103 14.5657 5.36396 14.7014 5.35826 14.8371L5.20455 18.9129H7.22569M7.22569 18.9129L7.25415 19.6761C7.26554 19.9079 7.07766 20.1001 6.84423 20.1001H4.54979C4.43593 20.1001 4.34484 20.0096 4.34484 19.8966V19.727C4.34484 19.2747 4.71492 18.9073 5.17039 18.9073H7.22569V18.9129ZM9.81618 4.64455V3.47437C9.81618 3.47437 9.86743 3.43479 9.89589 3.41218C9.86743 3.37826 9.83895 3.34434 9.81618 3.31043C9.73647 3.18606 9.69092 3.04473 9.69092 2.88644V2.47942C9.69092 2.03848 9.40057 1.65406 8.97357 1.53535C8.95649 1.53535 8.93371 1.52404 8.91663 1.51839C8.65473 1.42229 8.44407 1.22444 8.34159 0.964398C8.00568 1.20183 7.44773 3.49132 8.50101 3.69483V4.60499C8.34728 5.76952 7.9089 5.14202 8.89955 6.25568C8.97926 6.41962 9.74218 5.54339 9.8105 5.53208C9.95283 5.37945 9.73648 4.81979 9.82188 4.64455H9.81618ZM9.81618 4.64455C9.93005 4.32797 10.4311 4.43539 10.4083 4.78023H10.8467C11.194 4.78588 11.5185 4.93851 11.7462 5.19855L13.9097 7.66331L13.8983 7.65199C14.2343 8.0364 14.1375 8.62998 13.6991 8.89002L11.3363 10.2976L10.6987 9.26878L12.2814 8.206C12.2814 8.20035 12.3156 8.17774 12.3156 8.13817C12.3156 8.10425 12.2928 8.08163 12.2928 8.08163L11.3762 7.17713C11.1484 6.95666 10.7556 7.06972 10.6873 7.36934L10.0952 9.67581L9.91297 9.79452C9.65108 9.97541 9.58276 10.3259 9.75356 10.5916C9.82188 10.6934 9.91867 10.7668 10.0212 10.8121L6.60512 10.5238C6.65636 10.422 6.7076 10.3259 6.76453 10.2298L7.20861 9.43271L6.87841 7.46545C6.78162 6.87753 6.46278 6.34048 5.99592 5.96172L1.15084 2.0611M9.81618 4.64455C9.76494 4.72369 9.85604 5.30031 9.85604 5.39642C9.89589 5.48687 8.97925 6.38006 8.89385 6.25004C8.84261 6.13698 8.15941 5.53208 8.2619 5.3851C8.30744 5.23247 8.58642 4.75761 8.49533 4.59933C8.38146 4.29971 7.94876 4.39017 7.90321 4.69544H7.67548C7.43635 4.68413 7.20291 4.60498 7.00364 4.4693L1.93085 0.964397M1.15084 2.0611L0.336691 1.40534C0.0861821 1.20183 0.0235603 0.845681 0.200055 0.574333C0.211442 0.55172 0.228515 0.529099 0.245595 0.51214C0.45625 0.257751 0.826326 0.201225 1.1053 0.39343L1.93085 0.964397M1.15084 2.0611L1.54369 1.50709L1.93085 0.964397M11.8373 18.9073H9.77634L9.58845 19.5743C9.51443 19.8344 9.71371 20.0944 9.98699 20.0944H12.4579C12.5718 20.0944 12.6629 20.004 12.6629 19.8909V19.7213C12.6629 19.2691 12.2928 18.9016 11.8373 18.9016V18.9073ZM11.3477 0.659134C10.9776 -0.0248897 9.85035 0.0825224 9.48597 0.150359L8.6889 0.291687C8.39284 0.342564 8.21635 0.647834 8.31883 0.930488C8.31883 0.947447 8.33022 0.95874 8.33591 0.970047C8.44408 1.22444 8.64904 1.42795 8.91093 1.52406C8.92801 1.52971 8.95079 1.53536 8.96787 1.54101C9.38918 1.66538 9.68524 2.0498 9.68524 2.48509V2.89211C9.68524 3.0504 9.73079 3.19172 9.8105 3.31609C9.83327 3.35001 9.86173 3.38392 9.8902 3.41784C10.0382 3.58744 11.137 2.75643 11.2623 2.42855L11.3022 2.3268C11.5128 1.77845 11.7235 1.11138 11.3477 0.659134Z" stroke="#EFA987" stroke-width="0.2" stroke-linecap="round" stroke-linejoin="round"/>
</svg>
