<svg width="70" height="74" viewBox="0 0 70 74" fill="none" xmlns="http://www.w3.org/2000/svg">
<path d="M18 24C18 17.3726 23.3726 12 30 12H46C52.6274 12 58 17.3726 58 24V40C58 46.6274 52.6274 52 46 52H30C23.3726 52 18 46.6274 18 40V24Z" fill="#FDF6F3"/>
<g filter="url(#filter0_d_2069_7118)">
<rect x="18" y="12" width="40" height="40" rx="12" fill="#FDF6F3"/>
</g>
<path d="M35.8488 31.5337C36.5579 31.5332 37.2378 31.2511 37.7391 30.7495C38.2403 30.2479 38.5219 29.5678 38.5219 28.8587C38.5218 28.5075 38.4525 28.1598 38.3181 27.8354C38.1836 27.511 37.9866 27.2162 37.7382 26.968C37.4899 26.7197 37.195 26.5228 36.8706 26.3885C36.5461 26.2542 36.1984 26.1851 35.8472 26.1852C35.496 26.1853 35.1483 26.2545 34.8239 26.389C34.4995 26.5235 34.2048 26.7205 33.9565 26.9689C33.7083 27.2172 33.5114 27.5121 33.3771 27.8365C33.2428 28.161 33.1737 28.5087 33.1738 28.8599C33.1741 29.5691 33.4561 30.2492 33.9577 30.7506C34.4593 31.252 35.1395 31.5337 35.8488 31.5337ZM37.7888 31.5149C37.2277 31.9312 36.548 32.1568 35.8494 32.1587C35.1502 32.1568 34.4699 31.9312 33.9081 31.5149C33.4394 31.9055 32.9719 32.4649 32.5894 33.1543C31.7 34.7562 31.6019 36.3993 32.3706 36.8255C32.7144 37.0212 33.0744 36.8755 33.4469 36.5162C33.3777 36.9025 33.343 37.2943 33.3431 37.6868C33.3431 39.523 34.0556 41.0068 34.9325 41.0068C35.4613 41.0068 35.7231 40.4662 35.8488 39.6393C35.9738 40.458 36.2363 41.0068 36.7613 41.0068C37.6344 41.0068 38.3519 39.5224 38.3519 37.6868C38.3519 37.2743 38.3131 36.8805 38.2475 36.5162C38.6213 36.8749 38.9813 37.0237 39.3256 36.8262C40.0931 36.4012 39.9944 34.7574 39.105 33.1555C38.7238 32.4649 38.2563 31.9068 37.7875 31.5162L37.7888 31.5149ZM40.3888 24.3193L39.5044 25.2037C39.9857 25.6834 40.3675 26.2535 40.6281 26.8811C40.8886 27.5087 41.0227 28.1816 41.0227 28.8612C41.0227 29.5407 40.8886 30.2136 40.6281 30.8412C40.3675 31.4689 39.9857 32.0389 39.5044 32.5187L40.3875 33.3999C40.985 32.8045 41.4591 32.0969 41.7825 31.3178C42.1058 30.5387 42.2722 29.7034 42.2719 28.8599C42.2719 27.0887 41.5519 25.4824 40.3881 24.3193H40.3888ZM38.18 31.1924L39.0625 32.0749C39.8875 31.2518 40.3975 30.1143 40.3975 28.8599C40.3975 27.6055 39.8875 26.4687 39.0638 25.6437L38.18 26.528C38.4867 26.834 38.73 27.1974 38.8961 27.5976C39.0621 27.9977 39.1476 28.4267 39.1476 28.8599C39.1476 29.2931 39.0621 29.7221 38.8961 30.1222C38.73 30.5224 38.4867 30.8858 38.18 31.1918V31.1924ZM41.7125 22.9937L40.8313 23.8774C41.4869 24.5306 42.007 25.3069 42.3617 26.1618C42.7164 27.0166 42.8987 27.9331 42.8981 28.8587C42.8981 30.8024 42.1075 32.5649 40.8306 33.8418L41.7138 34.7255C42.4861 33.9565 43.0987 33.0424 43.5165 32.0357C43.9343 31.0291 44.149 29.9498 44.1481 28.8599C44.1481 26.5724 43.2169 24.4974 41.7144 22.9943L41.7125 22.9937Z" fill="#EFA987"/>
<defs>
<filter id="filter0_d_2069_7118" x="0" y="-2" width="76" height="76" filterUnits="userSpaceOnUse" color-interpolation-filters="sRGB">
<feFlood flood-opacity="0" result="BackgroundImageFix"/>
<feColorMatrix in="SourceAlpha" type="matrix" values="0 0 0 0 0 0 0 0 0 0 0 0 0 0 0 0 0 0 127 0" result="hardAlpha"/>
<feMorphology radius="2" operator="erode" in="SourceAlpha" result="effect1_dropShadow_2069_7118"/>
<feOffset dy="4"/>
<feGaussianBlur stdDeviation="10"/>
<feComposite in2="hardAlpha" operator="out"/>
<feColorMatrix type="matrix" values="0 0 0 0 0.168627 0 0 0 0 0.615686 0 0 0 0 0.933333 0 0 0 0.08 0"/>
<feBlend mode="normal" in2="BackgroundImageFix" result="effect1_dropShadow_2069_7118"/>
<feBlend mode="normal" in="SourceGraphic" in2="effect1_dropShadow_2069_7118" result="shape"/>
</filter>
</defs>
</svg>
