<svg width="19" height="21" viewBox="0 0 19 21" fill="none" xmlns="http://www.w3.org/2000/svg">
<path d="M6.10099 10.9836H6.10645M6.10099 10.9836C6.10099 10.9836 6.08461 10.9836 6.07369 10.9836C5.80077 10.9836 5.55514 11.086 5.35317 11.2453L6.10099 10.9836ZM6.10645 10.9836L5.35863 11.2453C5.08024 11.4728 4.90011 11.8198 4.90011 12.218C4.90011 12.9006 5.42959 13.4524 6.08461 13.4524H6.10099C6.07915 12.6332 6.07916 11.8084 6.11191 10.9893L6.10645 10.9836ZM13.077 17.4797C13.3936 17.4683 13.7102 17.4626 14.0268 17.4455C14.3215 17.4285 14.6054 17.3716 14.8728 17.2749L14.8674 17.2806C16.0792 17.747 16.9416 18.9529 16.9416 20.375H6.08461C6.08461 18.9529 6.95252 17.747 8.15886 17.2806C8.42632 17.3773 8.71017 17.4342 9.00493 17.4512C9.32152 17.4683 9.63811 17.474 9.95471 17.4854H9.87283C9.87283 17.4967 9.87283 17.5024 9.87283 17.5138C9.87829 18.2419 10.6097 18.8278 11.5158 18.8278C12.422 18.8278 13.1589 18.2362 13.1589 17.5081M13.077 17.4797H13.1589M13.077 17.4797C12.5639 17.4967 12.0508 17.5081 11.5431 17.5081M13.077 17.4797C12.5693 17.4967 12.0562 17.5081 11.5431 17.5081M13.077 17.4797H9.95471C10.4678 17.4967 10.9809 17.5081 11.4886 17.5081M13.1589 17.4797C13.1589 17.4797 13.1589 17.4967 13.1589 17.5081M13.1589 17.4797C13.1589 17.491 13.1589 17.5081 13.1589 17.5081M13.1589 17.5081H11.5431M11.5431 17.5081H11.4886M11.4886 17.5081H9.87829C9.87829 18.2362 10.6152 18.8221 11.5213 18.8221C12.4274 18.8221 13.1643 18.2305 13.1643 17.5024H11.494L11.4886 17.5081ZM16.9307 10.9836C16.9416 10.9836 16.958 10.9836 16.958 10.9836V10.978C17.613 10.978 18.1425 11.5297 18.1425 12.2123C18.1425 12.8949 17.613 13.4467 16.958 13.4467H16.9416C16.9635 12.6276 16.9635 11.8028 16.9307 10.9836ZM16.9307 10.9836C16.8925 9.94837 16.8106 8.90742 16.6905 7.87215C15.9755 8.64576 15.1349 9.31698 14.387 9.61846C12.411 10.4148 9.59991 10.0621 8.18615 8.58888C8.18615 8.58888 7.84772 10.9836 6.11191 10.9836C6.07916 11.8028 6.07915 12.6276 6.10099 13.4467C6.10645 13.7823 6.11191 14.1179 6.12828 14.4478C6.19378 15.7618 7.02348 16.8596 8.16977 17.2692C8.43724 17.3659 8.72108 17.4228 9.01584 17.4398C9.33243 17.4569 9.64903 17.4626 9.96562 17.474H13.0879C13.4045 17.4626 13.7211 17.4569 14.0377 17.4398C14.3324 17.4228 14.6163 17.3659 14.8838 17.2692C16.0246 16.8596 16.8597 15.7618 16.9252 14.4478C16.9416 14.1122 16.9471 13.7766 16.9525 13.4467C16.9744 12.6276 16.9744 11.8028 16.9416 10.9836H16.9307ZM11.5158 15.4091C12.1163 15.4091 12.6731 15.0394 12.9296 14.4763C12.6731 15.0451 12.1163 15.4091 11.5158 15.4091ZM11.5158 15.4091C10.9154 15.4091 10.3586 15.0451 10.1021 14.4763C10.3586 15.0394 10.9154 15.4091 11.5158 15.4091ZM4.67086 3.66852C4.85645 3.66852 5.00928 3.82779 5.00928 4.02119C5.00928 4.65259 4.26147 5.1816 3.69924 5.33518M3.69924 5.33518V6.69469M3.69924 5.33518C3.14247 5.1816 2.38919 4.6469 2.38919 4.02119C2.38919 3.82779 2.54203 3.66852 2.72762 3.66852M3.69924 6.69469C3.69924 6.69469 3.7047 6.74588 3.69924 6.77432M3.69924 6.69469C3.69924 6.72313 3.69924 6.77432 3.69924 6.77432M3.69924 6.77432H5.4678C6.1119 6.35338 6.60318 5.69924 6.84881 4.93132C6.95798 4.58433 7.02348 4.22028 7.02348 3.83916C7.02348 2.20662 5.94269 0.841447 4.49072 0.471708C4.46889 0.46602 4.4416 0.460333 4.41976 0.454644C4.18504 0.40345 3.94487 0.375 3.69924 0.375C1.85972 0.375 0.375 1.9279 0.375 3.83916C0.375 5.07352 0.997267 6.15998 1.93067 6.77432H3.69924ZM2.73308 3.66852C2.54749 3.66852 2.39465 3.82779 2.39465 4.02119C2.39465 4.65259 3.14247 5.1816 3.7047 5.33518M3.7047 5.33518V6.69469M3.7047 5.33518C4.26147 5.1816 5.01475 4.6469 5.01475 4.02119C5.01475 3.82779 4.8619 3.66852 4.67631 3.66852M3.7047 6.69469C3.7047 6.69469 3.69924 6.74588 3.7047 6.77432C3.7047 6.77432 3.7047 6.72313 3.7047 6.69469ZM4.85645 8.58319C4.85645 8.58319 4.85645 8.53201 4.85099 8.50925H4.51256C4.63264 8.50925 4.75273 8.53768 4.85645 8.58319ZM11.4831 17.5081C10.97 17.5081 10.4569 17.4967 9.94925 17.4797H9.86738C9.86738 17.4797 9.86738 17.4967 9.86738 17.5081H11.4831ZM14.0322 11.4899C14.3052 11.4899 14.5235 11.8312 14.5235 12.2521C14.5235 12.6731 14.3052 13.0144 14.0322 13.0144C13.7593 13.0144 13.541 12.6731 13.541 12.2521C13.541 11.8312 13.7593 11.4899 14.0322 11.4899ZM8.99946 11.4899C9.27239 11.4899 9.49074 11.8312 9.49074 12.2521C9.49074 12.6731 9.27239 13.0144 8.99946 13.0144C8.72654 13.0144 8.5082 12.6731 8.5082 12.2521C8.5082 11.8312 8.72654 11.4899 8.99946 11.4899ZM18.2899 4.51607C17.6239 3.60594 16.1283 5.59115 16.0901 5.63666C16.0901 5.63666 16.0901 5.63667 16.0901 5.62529C16.1665 5.44895 16.8652 3.81641 15.9755 3.61163C15.9154 3.60026 15.8445 3.58888 15.7735 3.58888C14.5726 3.58888 13.9067 5.27831 13.8466 5.43189V5.44326C13.8685 5.35225 14.1469 4.24872 13.8084 3.78797C13.7211 3.66852 13.5846 3.58888 13.3936 3.58888C12.9241 3.58888 12.5038 4.14633 12.0562 4.76066C12.0562 4.76066 12.0562 4.76067 12.0399 4.74929C11.9634 4.6981 11.6032 4.45918 11.1065 4.24872C10.9809 4.19752 10.8499 4.14634 10.7134 4.10083C10.3204 3.97 9.87829 3.87899 9.43615 3.90174C9.43615 3.90174 9.42523 3.90174 9.41977 3.90174C9.36519 3.90174 9.3106 3.91312 9.25602 3.91881C8.63374 3.99844 8.03877 4.34542 7.62938 5.17022C7.62938 5.17022 7.28549 4.99958 6.84335 4.93132C6.59771 5.69924 6.10645 6.3477 5.46234 6.77432C5.76802 6.91652 5.9809 7.23506 5.9809 7.6048C5.9809 7.85509 5.88265 8.08262 5.72435 8.24758C5.56605 8.41254 5.34772 8.51493 5.10754 8.51493H4.84007C4.84007 8.51493 4.84007 8.56613 4.84553 8.58888C5.15666 8.7254 5.375 9.04963 5.375 9.42506C5.375 9.67534 5.27675 9.90288 5.11845 10.0678C5.10754 10.0792 5.09117 10.0906 5.07479 10.102C5.14575 10.4603 5.22763 10.8414 5.32588 11.251H5.3368C5.53876 11.086 5.78439 10.9836 6.05732 10.9836C6.06824 10.9836 6.0737 10.9836 6.08461 10.9836C7.82588 10.9836 8.15886 8.58888 8.15886 8.58888C9.57261 10.0621 12.3838 10.4148 14.3597 9.61846C15.1076 9.31698 15.9482 8.64007 16.6632 7.87215C17.8368 6.60935 18.6829 5.09058 18.268 4.51607H18.2899ZM9.43069 3.90742C9.43069 3.90742 9.44161 3.90742 9.44707 3.90742H9.43069ZM5.11845 8.50925C5.35863 8.50925 5.57697 8.40686 5.73527 8.2419C5.89357 8.07694 5.99182 7.84941 5.99182 7.59912C5.99182 7.22939 5.77894 6.91083 5.47326 6.76862H1.93614C1.83789 6.81413 1.74509 6.87671 1.66867 6.95635C1.51037 7.12131 1.41212 7.34884 1.41212 7.59912C1.41212 8.09969 1.80513 8.50925 2.28548 8.50925H2.89138C2.65121 8.50925 2.43286 8.61164 2.27456 8.7766C2.11627 8.94156 2.01801 9.16908 2.01801 9.41936C2.01801 9.91993 2.41103 10.3295 2.89138 10.3295H4.51256C4.73635 10.3295 4.93286 10.2385 5.0857 10.102C5.09662 10.0906 5.113 10.0792 5.12937 10.0678C5.28767 9.90288 5.38592 9.67534 5.38592 9.42506C5.38592 9.04963 5.16758 8.73109 4.85645 8.58888C4.75273 8.54337 4.63264 8.51493 4.51256 8.51493H5.11845V8.50925Z" stroke="#EFA987" stroke-width="0.75" stroke-linecap="round" stroke-linejoin="round"/>
</svg>
