<svg width="20" height="20" viewBox="0 0 20 20" fill="none" xmlns="http://www.w3.org/2000/svg">
<path d="M7.84875 9.53365C8.55788 9.53316 9.2378 9.25111 9.73905 8.7495C10.2403 8.24789 10.5219 7.56778 10.5219 6.85865C10.5218 6.50749 10.4525 6.15978 10.3181 5.83538C10.1836 5.51098 9.98659 5.21624 9.73822 4.96799C9.48986 4.71974 9.19502 4.52283 8.87056 4.38853C8.5461 4.25422 8.19836 4.18513 7.84719 4.18521C7.49603 4.1853 7.14832 4.25454 6.82392 4.389C6.49952 4.52346 6.20478 4.7205 5.95653 4.96887C5.70828 5.21724 5.51138 5.51207 5.37707 5.83653C5.24276 6.161 5.17367 6.50874 5.17375 6.8599C5.17409 7.56914 5.45606 8.24922 5.95769 8.75061C6.45931 9.25199 7.13952 9.53365 7.84875 9.53365ZM9.78875 9.5149C9.2277 9.93123 8.54802 10.1568 7.84938 10.1587C7.15017 10.1568 6.4699 9.93121 5.90813 9.5149C5.43938 9.90553 4.97188 10.4649 4.58938 11.1543C3.7 12.7562 3.60188 14.3993 4.37063 14.8255C4.71438 15.0212 5.07438 14.8755 5.44688 14.5162C5.37769 14.9025 5.34297 15.2943 5.34313 15.6868C5.34313 17.523 6.05563 19.0068 6.9325 19.0068C7.46125 19.0068 7.72313 18.4662 7.84875 17.6393C7.97375 18.458 8.23625 19.0068 8.76125 19.0068C9.63438 19.0068 10.3519 17.5224 10.3519 15.6868C10.3519 15.2743 10.3131 14.8805 10.2475 14.5162C10.6213 14.8749 10.9813 15.0237 11.3256 14.8262C12.0931 14.4012 11.9944 12.7574 11.105 11.1555C10.7238 10.4649 10.2563 9.90678 9.7875 9.51615L9.78875 9.5149ZM12.3888 2.31928L11.5044 3.20365C11.9857 3.68342 12.3675 4.25345 12.6281 4.88108C12.8886 5.50871 13.0227 6.18159 13.0227 6.86115C13.0227 7.54071 12.8886 8.21359 12.6281 8.84122C12.3675 9.46885 11.9857 10.0389 11.5044 10.5187L12.3875 11.3999C12.985 10.8045 13.4591 10.0969 13.7825 9.31783C14.1058 8.53873 14.2722 7.70344 14.2719 6.8599C14.2719 5.08865 13.5519 3.4824 12.3881 2.31928H12.3888ZM10.18 9.1924L11.0625 10.0749C11.8875 9.25178 12.3975 8.11428 12.3975 6.8599C12.3975 5.60553 11.8875 4.46865 11.0638 3.64365L10.18 4.52803C10.4867 4.83398 10.73 5.19744 10.8961 5.59758C11.0621 5.99772 11.1476 6.42668 11.1476 6.8599C11.1476 7.29312 11.0621 7.72208 10.8961 8.12222C10.73 8.52236 10.4867 8.88582 10.18 9.19178V9.1924ZM13.7125 0.993652L12.8313 1.8774C13.4869 2.53061 14.007 3.30694 14.3617 4.16179C14.7164 5.01663 14.8987 5.93314 14.8981 6.85865C14.8981 8.8024 14.1075 10.5649 12.8306 11.8418L13.7138 12.7255C14.4861 11.9565 15.0987 11.0424 15.5165 10.0357C15.9343 9.0291 16.149 7.9498 16.1481 6.8599C16.1481 4.5724 15.2169 2.4974 13.7144 0.994277L13.7125 0.993652Z" fill="#EFA987"/>
</svg>
