<svg width="16" height="16" viewBox="0 0 16 16" fill="none" xmlns="http://www.w3.org/2000/svg">
<path d="M8 5.3335C9.10457 5.3335 10 4.43807 10 3.3335C10 2.22893 9.10457 1.3335 8 1.3335C6.89543 1.3335 6 2.22893 6 3.3335C6 4.43807 6.89543 5.3335 8 5.3335Z" stroke="#004951" stroke-width="1.33333" stroke-linecap="round" stroke-linejoin="round"/>
<path d="M4.33315 5.3335C4.04465 5.33649 3.76491 5.43298 3.53592 5.60848C3.30692 5.78398 3.14103 6.02903 3.06315 6.30683L1.39982 12.3335C1.34942 12.5286 1.34388 12.7325 1.38361 12.93C1.42334 13.1275 1.50731 13.3134 1.62921 13.4738C1.75111 13.6342 1.90777 13.7649 2.08742 13.8561C2.26708 13.9472 2.46506 13.9965 2.66648 14.0002H13.3332C13.5389 14.0001 13.7419 13.9524 13.9262 13.8608C14.1104 13.7692 14.271 13.6362 14.3953 13.4722C14.5196 13.3082 14.6042 13.1176 14.6426 12.9155C14.681 12.7133 14.672 12.505 14.6165 12.3068L12.9332 6.3335C12.8597 6.0491 12.6945 5.79691 12.463 5.61609C12.2315 5.43526 11.9469 5.33592 11.6532 5.3335H4.33315Z" stroke="#004951" stroke-width="1.33333" stroke-linecap="round" stroke-linejoin="round"/>
</svg>
