<svg width="95" height="182" viewBox="0 0 95 182" fill="none" xmlns="http://www.w3.org/2000/svg">
<path d="M4.85858 87.2526C4.58234 87.2526 3.9904 87.5116 3.7339 87.6909C3.47739 87.8702 3.37873 88.169 2.90518 88.5275C2.43163 88.8861 1.58318 89.0853 0.971506 88.8463C0.359835 88.6072 0.438761 87.8901 0.675536 87.651C0.912312 87.412 1.24775 87.1929 1.42533 87.0136C1.60291 86.8343 1.54372 86.7148 1.7213 86.4758C1.89888 86.2367 2.25404 85.8981 2.53028 85.6789C2.80652 85.4598 3.39846 85.1809 3.69443 85.0017C3.9904 84.8224 4.20744 84.5036 4.48368 84.3044C4.75992 84.1052 5.45052 83.6869 6.16085 83.3881C6.36474 83.3018 6.81198 83.1172 6.96983 83.0694C7.16715 83.0096 8.19318 82.671 8.37076 82.4319C8.54834 82.1929 10.1268 77.93 10.778 75.7985C11.4291 73.667 11.8829 69.7428 13.0076 65.6591C14.1323 61.5755 15.1583 59.8424 16.0265 58.2089C16.8947 56.5755 17.2499 56.2567 17.5853 54.6034C17.9207 52.95 19.0059 50.201 19.4006 48.8863C19.7163 47.8345 20.9528 45.6592 21.5316 44.703C21.5644 44.2116 21.6302 42.8783 21.6302 41.4759C21.6302 39.723 21.7881 36.3365 23.485 33.8266C25.0661 31.4879 26.0819 31.0516 28.0647 30.2456M4.85858 87.2526C5.07957 87.2526 5.20059 87.2792 5.23348 87.2925C5.99121 87.5647 7.79039 87.9459 8.92528 87.2925C10.0602 86.6391 10.5544 86.2766 10.6596 86.1769M4.85858 87.2526C4.66785 87.6776 4.23113 88.6829 4.01013 89.3044C3.7339 90.0813 3.28007 91.9737 3.10249 92.6909C2.92491 93.408 2.60921 94.7427 2.45136 95.5793C2.29351 96.416 2.0962 97.5315 2.07646 97.9299C2.05673 98.3283 1.80023 99.7028 2.74733 99.7426C3.69443 99.7825 3.97067 98.4677 4.01013 98.3084C4.03598 98.204 4.12956 97.6381 4.21323 97.1928M29.6641 51.2767C30.1573 52.8105 31.3972 55.7388 31.7129 57.0137C32.0286 58.2886 32.1075 58.3683 32.4232 59.0456L32.4507 59.1045C32.7571 59.7611 33.0569 60.4039 33.1336 61.197C33.15 61.3672 33.1785 61.5825 33.2132 61.8344M29.6641 51.2767C28.865 54.1371 27.5001 56.7047 25.7146 59.7627C25.5962 60.4666 25.2568 62.4081 24.8464 64.5436C24.3334 67.2129 22.4392 71.6949 19.44 75.679C16.4409 79.663 15.4543 81.8543 15.1781 82.4319C14.9018 83.0096 14.5664 83.9658 14.2704 84.6829C13.9745 85.4001 14.0534 85.8184 14.1915 86.7945C14.3296 87.7706 13.9547 88.9658 13.7771 90.0216C13.688 90.5517 13.5391 91.2025 13.3854 91.7745C13.2332 92.3416 13.0762 92.8313 12.9682 93.0494C12.7511 93.4877 12.2973 94.7227 12.2381 95.0016C12.1789 95.2805 11.4883 97.4319 11.3897 97.6908C11.291 97.9498 10.8766 99.643 10.2058 99.5633C9.53491 99.4837 9.51518 98.9458 9.57437 98.3482C9.60133 98.0761 9.68966 97.6759 9.78534 97.2924M29.6641 51.2767C30.2964 49.0131 30.5745 46.5661 30.4263 43.5476M47.4191 0.5C42.4862 0.5 40.2369 4.68325 39.7436 6.23703C39.3489 7.48005 39.5002 10.5132 39.6252 11.8745C39.5331 11.6553 39.2621 11.233 38.9149 11.2968C38.5811 11.358 38.2591 11.5723 38.1459 12.0936M31.4979 179.802C31.4782 179.882 31.3006 179.942 30.9849 179.942C30.6692 179.942 30.4916 179.523 30.4916 179.324C30.4916 179.125 30.3732 179.264 30.2548 178.886C30.1365 178.507 30.097 177.412 30.7481 176.316C31.231 175.504 31.9742 174.987 32.4388 174.636M32.6818 180.101C32.6029 180.36 32.2477 180.44 31.8334 180.38C31.5019 180.332 31.4716 179.683 31.4979 179.364C31.4848 179.191 31.5177 178.774 31.7544 178.487M34.0001 180.101C33.9364 180.379 33.7554 180.659 33.3329 180.659C32.7015 180.659 32.6358 180.008 32.6818 179.683C32.695 179.43 32.7607 178.882 32.9186 178.706M34.0001 180.101C34.0316 179.963 34.0344 179.826 34.0235 179.722C34.0301 179.41 34.0669 178.77 34.1616 178.706M34.0001 180.101C33.9684 180.453 34.1143 181.157 34.9509 181.157C35.9967 181.157 35.8388 180.181 35.9177 180.141C35.9967 180.101 36.1742 180.101 36.2137 180.141M36.2137 180.141C36.2532 180.181 36.1348 180.718 36.3913 180.977C36.6478 181.236 37.0227 181.455 37.8317 181.416C39.864 181.316 40.2586 179.005 40.3178 178.806C40.377 178.607 40.7914 177.85 40.2784 176.934C40.0929 176.602 39.9538 176.378 39.864 176.195M36.2137 180.141C36.1874 179.749 36.2137 178.902 36.5294 178.647M46.8489 96.521V98.6072C46.8686 102.711 45.9413 106.794 45.5466 108.747C45.4277 109.335 45.237 110.184 45.0265 111.117M46.8489 96.521V96.5062M46.8489 96.521C47.0281 96.5435 47.2186 96.5554 47.4211 96.5554C47.6236 96.5554 47.8141 96.5435 47.9933 96.521M32.7825 35.6592C31.9728 36.5556 30.3535 38.6194 30.3535 39.703C30.3535 41.0576 30.0959 44.9819 31.419 46.5954C33.5677 49.2158 35.7402 49.703 38.1671 49.703C41.3594 49.703 41.699 49.5835 42.6461 49.3843M38.7788 64.5436C38.7985 63.1292 38.5815 59.7627 39.1931 58.6273C39.8048 57.4918 42.2515 54.6034 47.4211 54.6034C52.5907 54.6034 55.0374 57.4918 55.6491 58.6273C56.2607 59.7627 56.0437 63.1292 56.0634 64.5436M33.2132 61.8344C33.3451 62.7912 33.5677 64.2774 33.5677 65.8384C33.5677 67.8105 32.8376 69.5037 32.8771 71.3563C32.8898 71.9529 32.9066 72.4401 32.9235 72.8503M33.2132 61.8344C33.3715 62.598 34.1972 64.6073 36.2334 66.5356M32.9235 72.8503C32.9592 73.7139 32.9955 74.2366 32.9955 74.7228C32.9955 75.4399 32.2062 76.7945 31.851 79.5435C31.5798 81.6433 31.32 82.6389 31.1597 83.7467M32.9235 72.8503C32.9734 73.9658 35.1509 74.4041 36.2334 74.4838M28.0647 30.2456C28.2099 30.1865 28.3603 30.1255 28.5164 30.0616C30.8053 29.1254 31.6143 29.5039 33.8439 28.727C36.0735 27.9501 37.948 27.0935 39.0332 26.4561C40.1185 25.8186 41.1248 25.1613 41.1642 24.6832C41.1747 24.5562 41.1797 24.14 41.1812 23.5876M28.0647 30.2456C30.097 29.5438 32.6226 29.8425 35.4442 30.5596M40.377 31.4561C41.2912 31.4826 43.3446 31.5875 44.2444 31.7947C45.369 32.0537 45.5861 31.9341 44.6587 30.5596C44.3101 30.0218 43.5735 28.8146 43.4156 28.2887M41.1812 23.5876C41.1841 22.4764 41.173 20.8138 41.1642 19.8426M41.1812 23.5876C41.2025 25.0351 41.1584 28.0895 40.8111 28.727M18.9291 60.2607C19.0869 60.865 19.375 62.1571 19.2645 62.4918M19.2645 62.4918L19.0277 63.2089M19.2645 62.4918C20.038 62.3165 21.0995 61.7946 21.5336 61.5555M31.1597 83.7467C31.1101 84.0892 31.07 84.4424 31.0421 84.8423C30.5889 87.671 29.6747 94.1929 29.6432 97.651C29.6037 101.974 29.9589 107.153 29.9983 108.806C30.0378 110.46 30.2548 112.751 30.8073 114.822C30.8598 115.019 30.9164 115.219 30.9759 115.42M31.1597 83.7467C31.424 82.2327 32.7607 79.0057 33.6881 78.8065M30.9759 115.42C31.5423 117.337 32.3698 119.41 32.4056 120.798C32.445 122.332 31.9123 122.671 31.8728 125.041C31.8334 127.412 31.9715 129.842 32.0109 130.48C32.0504 131.117 30.4719 138.487 30.7284 141.874C30.9849 145.26 32.0307 151.615 32.4845 154.543C32.9383 157.471 33.8854 162.691 33.6881 165.26C33.4908 167.83 33.4119 167.989 33.4119 168.567C33.4119 169.145 33.6881 170.021 33.6881 170.778C33.6881 171.535 33.7868 172.093 33.6881 172.312C33.5894 172.531 33.3527 172.75 33.1751 173.189C32.9975 173.627 33.0764 173.985 32.8002 174.324C32.7288 174.412 32.6007 174.514 32.4388 174.636M30.9759 115.42C31.6558 117.561 33.254 120.041 34.7141 121.436M45.0265 111.117L44.9785 111.33C44.5005 113.447 43.9425 115.92 43.8892 116.755C43.8323 117.645 43.5294 119.735 43.2982 121.057M45.0265 111.117C45.447 105.731 44.4435 101.17 43.8892 99.5633M43.2982 121.057C43.2086 121.569 43.1298 121.966 43.0802 122.133C42.9026 122.731 43.0013 126.217 42.804 127.77C42.6067 129.324 41.699 130.918 41.2255 133.448C40.7519 135.978 42.0147 139.424 42.2318 142.133C42.4488 144.842 42.508 147.91 41.3439 151.535C40.1797 155.161 39.5286 160.519 39.4891 162.83C39.4496 165.141 40.4362 167.232 40.4954 168.308C40.5546 169.384 40.3967 171.236 40.377 171.714C40.3573 172.193 40.5743 172.312 40.5743 173.129C40.5743 173.946 40.1205 174.603 39.864 175.26C39.7466 175.561 39.716 175.745 39.7666 175.944M43.2982 121.057C43.1019 122.026 42.3705 123.29 41.2255 123.819M36.6083 120.619C38.2066 123.607 39.647 124.304 40.8308 123.966C40.9673 123.927 41.0989 123.877 41.2255 123.819M41.2255 123.819C41.3702 124.167 41.6556 125.077 41.6398 125.938M33.2145 125.041C32.9843 126.595 32.6976 130.009 33.3921 131.237C34.2603 132.77 36.707 132.95 38.0487 132.093M33.2145 132.531C33.8657 133.381 35.1679 136.229 35.1679 140.818C35.1679 145.408 35.431 150.924 35.5626 153.109M39.4891 167.352C39.2129 167.91 38.9958 169.165 39.4891 169.981M39.864 176.195C39.8191 176.104 39.7865 176.023 39.7666 175.944M39.864 176.195C39.8282 176.113 39.7958 176.03 39.7666 175.944M39.7666 175.944C39.4904 175.138 39.5023 174.2 39.6272 173.587M36.4702 46.0377C36.5294 46.1173 36.8056 46.2966 37.1213 46.0974M45.7439 15.3605C45.665 15.5796 45.369 16.0378 45.961 16.3167M46.257 16.0577C46.4082 16.0046 46.7305 15.978 46.9673 16.2171M47.1449 16.496C47.2238 16.5438 47.3619 16.5557 47.4211 16.5557C47.4803 16.5557 47.6184 16.5438 47.6973 16.496M44.6982 18.7868C45.4677 18.7071 45.8623 18.5677 46.3753 18.5079C46.8884 18.4481 47.1251 18.6274 47.2041 18.6274H47.6381C47.7171 18.6274 47.9538 18.4481 48.4669 18.5079C48.9799 18.5677 49.3745 18.7071 50.144 18.7868M45.4677 18.2888C45.665 18.2091 46.3161 17.6513 46.7897 17.6912C47.2633 17.731 47.2633 17.7708 47.4211 17.7708C47.579 17.7708 47.579 17.731 48.0525 17.6912C48.5261 17.6513 49.1772 18.2091 49.3745 18.2888M46.1978 19.4043C46.5727 19.5039 47.1449 19.5039 47.4211 19.5039C47.6973 19.5039 48.2695 19.5039 48.6444 19.4043M47.1449 20.3804H47.6973M39.7456 13.5677C39.7456 13.8864 39.4714 14.0059 39.5483 14.3246C39.6252 14.6434 40.0416 14.982 40.0416 15.1613M38.7788 13.9063C38.7393 13.6474 39.1142 13.3286 39.2523 13.1095C39.3193 13.0033 39.3492 12.9298 39.3621 12.8505M39.3707 12.5318C39.3707 12.6755 39.376 12.7663 39.3621 12.8505M39.3621 12.8505C39.4045 12.9767 39.4852 13.2808 39.4694 13.488M38.6407 14.5637C38.7393 14.8094 38.98 15.3565 39.1537 15.5796M38.1459 12.0936C38.1119 12.2503 38.0967 12.4349 38.1059 12.6513C38.1453 13.5876 38.3821 14.9023 38.7175 15.48C39.053 16.0577 39.4081 17.233 39.8817 17.1732C40.3552 17.1135 40.4342 16.8744 40.4934 16.735C40.5526 16.5956 40.5328 17.0139 40.6118 17.5119C40.6907 18.0099 40.7499 19.225 41.2826 20.0019C41.8154 20.7788 42.869 21.7842 43.9089 22.472C45.2112 23.3334 46.178 23.5876 47.4211 23.5876C48.6642 23.5876 49.631 23.3334 50.9333 22.472C51.9732 21.7842 53.0268 20.7788 53.5596 20.0019C54.0923 19.225 54.1515 18.0099 54.2305 17.5119C54.3094 17.0139 54.2896 16.5956 54.3488 16.735C54.408 16.8744 54.487 17.1135 54.9605 17.1732C55.4341 17.233 55.7892 16.0577 56.1247 15.48C56.4601 14.9023 56.6969 13.5876 56.7363 12.6513C56.7455 12.4349 56.7303 12.2503 56.6963 12.0936M38.1459 12.0936C38.5391 11.0776 39.1537 11.8346 39.2523 12.1334M10.6596 90.0216C10.1071 89.8423 9.0042 89.6232 7.52231 89.6829M4.21323 97.1928C4.25729 96.9584 4.29861 96.7574 4.32584 96.6749C4.38332 96.5008 4.65016 95.5658 4.92813 94.6704M4.21323 97.1928C4.01013 96.8741 3.7339 96.6749 2.90518 96.6749M4.92813 94.6704C5.03179 94.3365 5.137 94.0081 5.23348 93.7267C5.58864 92.6909 5.72676 92.3124 5.80569 92.1729C5.88461 92.0335 6.02273 92.2128 5.98327 92.2725C5.9438 92.3323 5.72676 92.7506 5.6281 93.169C5.52945 93.5873 4.93751 95.6988 4.79939 96.396C4.66127 97.0932 4.681 97.412 4.56261 98.0693C4.44422 98.7267 4.14825 99.7626 4.14825 100.579C4.14825 101.396 4.32584 101.934 4.87831 101.934C5.43079 101.934 5.6873 101.555 5.76622 101.416C5.84515 101.276 6.08192 100.719 6.18058 100.28C6.27924 99.8422 6.45682 98.7665 6.53574 98.4478C6.61467 98.1291 7.2658 95.2207 7.48285 94.5833C7.69989 93.9458 7.87747 93.3283 7.97613 93.2287C8.07479 93.1291 8.2721 93.2287 8.21291 93.3482C8.15371 93.4678 7.54204 95.5395 7.34473 96.5355C7.14742 97.5315 7.12768 98.1092 6.9501 98.8064C6.77252 99.5036 6.14112 101.595 7.28553 101.735C8.42995 101.874 8.82458 99.3044 8.94297 98.8064C9.06135 98.3084 9.47571 96.9936 9.55464 96.6152C9.63356 96.2367 9.9098 95.0415 10.0677 94.5833C10.2255 94.1251 10.4425 93.2885 10.6596 93.3482C10.8766 93.408 10.4228 94.5833 10.3439 94.8622C10.265 95.1411 10.1466 95.9379 10.0677 96.2367C10.0247 96.3994 9.89975 96.8339 9.78534 97.2924M4.92813 94.6704C4.85858 94.3642 3.65906 94.1052 3.38077 94.1052M4.44627 91.2168C5.45256 91.7745 6.19827 92.3124 6.9501 92.7307C7.70194 93.149 9.1641 93.4279 9.61587 93.3482C9.9773 93.2845 11.345 93.2686 11.9836 93.2287M4.79939 98.7267C5.06383 98.7267 5.68703 98.7785 6.06423 98.9857M5.35391 95.3801C5.66371 95.3535 6.36973 95.3801 6.71537 95.6988M7.34473 98.5673C7.61507 98.5341 8.24257 98.5195 8.58985 98.7267M7.97613 95.6988C8.1866 95.671 8.80879 95.7276 9.21921 95.8582M9.78534 97.2924C9.85265 97.0293 10.6596 96.914 11.1944 97.1928M10.6596 95.0813C10.7406 95.0813 11.1549 94.8622 11.7666 95.0813M11.6679 85.3602C11.2536 86.1371 11.4312 88.0694 11.9836 88.6869M32.4388 174.636C33.7103 173.782 36.1861 170.918 35.9177 166.296M31.4979 176.575C32.866 176.396 36.2058 176.244 38.6209 177.073M47.4211 52.1333V48.0098M89.9836 87.2526C90.2599 87.2526 90.8518 87.5116 91.1083 87.6909C91.3648 87.8702 91.4635 88.169 91.937 88.5275C92.4106 88.8861 93.259 89.0853 93.8707 88.8463C94.4824 88.6072 94.4034 87.8901 94.1667 87.651C93.9299 87.412 93.5945 87.1929 93.4169 87.0136C93.2393 86.8343 93.2985 86.7148 93.1209 86.4758C92.9433 86.2367 92.5882 85.8981 92.3119 85.6789C92.0357 85.4598 91.4437 85.1809 91.1478 85.0017C90.8518 84.8224 90.6348 84.5036 90.3585 84.3044C90.0823 84.1052 89.3917 83.6869 88.6814 83.3881C88.4775 83.3018 88.0302 83.1172 87.8724 83.0694C87.6751 83.0096 86.649 82.671 86.4714 82.4319C86.2939 82.1929 84.7154 77.93 84.0642 75.7985C83.4131 73.667 82.9593 69.7428 81.8346 65.6591C80.7099 61.5755 79.6839 59.8424 78.8157 58.2089C77.9475 56.5755 77.5923 56.2567 77.2569 54.6034C76.9215 52.95 75.8363 50.201 75.4416 48.8863C75.1259 47.8345 73.8894 45.6592 73.3106 44.703C73.2778 44.2116 73.212 42.8783 73.212 41.4759C73.212 39.723 73.0541 36.3365 71.3572 33.8266C69.7761 31.4879 68.7603 31.0516 66.7775 30.2456M89.9836 87.2526C89.7626 87.2526 89.6416 87.2792 89.6087 87.2925C88.851 87.5647 87.0518 87.9459 85.9169 87.2925C84.782 86.6391 84.2878 86.2766 84.1826 86.1769M89.9836 87.2526C90.1744 87.6776 90.6111 88.6829 90.8321 89.3044C91.1083 90.0813 91.5621 91.9737 91.7397 92.6909C91.9173 93.408 92.233 94.7427 92.3908 95.5793C92.5487 96.416 92.746 97.5315 92.7657 97.9299C92.7855 98.3283 93.042 99.7028 92.0949 99.7426C91.1478 99.7825 90.8715 98.4677 90.8321 98.3084C90.8062 98.204 90.7126 97.6381 90.629 97.1928M65.1782 51.2767C64.6849 52.8105 63.445 55.7388 63.1293 57.0137C62.8136 58.2886 62.7347 58.3683 62.419 59.0456L62.3915 59.1045C62.0851 59.7611 61.7853 60.4039 61.7086 61.197C61.6922 61.3672 61.6637 61.5825 61.629 61.8344M65.1782 51.2767C65.9772 54.1371 67.3421 56.7047 69.1276 59.7627C69.246 60.4666 69.5854 62.4081 69.9958 64.5436C70.5088 67.2129 72.403 71.6949 75.4022 75.679C78.4013 79.663 79.3879 81.8543 79.6641 82.4319C79.9404 83.0096 80.2758 83.9658 80.5718 84.6829C80.8677 85.4001 80.7888 85.8184 80.6507 86.7945C80.5126 87.7706 80.8875 88.9658 81.0651 90.0216C81.1542 90.5517 81.3031 91.2025 81.4568 91.7745C81.6091 92.3416 81.766 92.8313 81.874 93.0494C82.0911 93.4877 82.5449 94.7227 82.6041 95.0016C82.6633 95.2805 83.3539 97.4319 83.4526 97.6908C83.5512 97.9498 83.9656 99.643 84.6364 99.5633C85.3073 99.4837 85.327 98.9458 85.2678 98.3482C85.2409 98.0761 85.1525 97.6759 85.0569 97.2924M65.1782 51.2767C64.5458 49.0131 64.2677 46.5661 64.4159 43.5476M47.4231 0.5C52.356 0.5 54.6053 4.68325 55.0986 6.23703C55.4933 7.48005 55.342 10.5132 55.217 11.8745C55.3091 11.6553 55.5801 11.233 55.9273 11.2968C56.2611 11.358 56.5831 11.5723 56.6963 12.0936M63.3443 179.802C63.364 179.882 63.5416 179.942 63.8573 179.942C64.173 179.942 64.3506 179.523 64.3506 179.324C64.3506 179.125 64.469 179.264 64.5874 178.886C64.7057 178.507 64.7452 177.412 64.0941 176.316C63.6112 175.504 62.868 174.987 62.4034 174.636M62.1604 180.101C62.2393 180.36 62.5945 180.44 63.0089 180.38C63.3403 180.332 63.3706 179.683 63.3443 179.364C63.3574 179.191 63.3246 178.774 63.0878 178.487M60.8421 180.101C60.9058 180.379 61.0868 180.659 61.5093 180.659C62.1407 180.659 62.2064 180.008 62.1604 179.683C62.1473 179.43 62.0815 178.882 61.9236 178.706M60.8421 180.101C60.8106 179.963 60.8078 179.826 60.8187 179.722C60.8121 179.41 60.7753 178.77 60.6806 178.706M60.8421 180.101C60.8738 180.453 60.7279 181.157 59.8913 181.157C58.8455 181.157 59.0034 180.181 58.9245 180.141C58.8455 180.101 58.668 180.101 58.6285 180.141M58.6285 180.141C58.589 180.181 58.7074 180.718 58.4509 180.977C58.1944 181.236 57.8195 181.455 57.0105 181.416C54.9782 181.316 54.5836 179.005 54.5244 178.806C54.4652 178.607 54.0508 177.85 54.5638 176.934C54.7493 176.602 54.8884 176.378 54.9782 176.195M58.6285 180.141C58.6548 179.749 58.6285 178.902 58.3128 178.647M47.9933 96.521V98.6072C47.9736 102.711 48.901 106.794 49.2956 108.747C49.4145 109.335 49.6052 110.184 49.8157 111.117M47.9933 96.521V96.5062M62.0597 35.6592C62.8694 36.5556 64.4887 38.6194 64.4887 39.703C64.4887 41.0576 64.7463 44.9819 63.4232 46.5954C61.2745 49.2158 59.102 49.703 56.6751 49.703C53.4828 49.703 53.1432 49.5835 52.1961 49.3843M61.629 61.8344C61.4971 62.7912 61.2745 64.2774 61.2745 65.8384C61.2745 67.8105 62.0046 69.5037 61.9651 71.3563C61.9524 71.9529 61.9356 72.4401 61.9187 72.8503M61.629 61.8344C61.4707 62.598 60.645 64.6073 58.6088 66.5356M61.9187 72.8503C61.883 73.7139 61.8467 74.2366 61.8467 74.7228C61.8467 75.4399 62.636 76.7945 62.9912 79.5435C63.2624 81.6433 63.5222 82.6389 63.6826 83.7467M61.9187 72.8503C61.8688 73.9658 59.6913 74.4041 58.6088 74.4838M66.7775 30.2456C66.6323 30.1865 66.4819 30.1255 66.3258 30.0616C64.0369 29.1254 63.2279 29.5039 60.9983 28.727C58.7687 27.9501 56.8942 27.0935 55.809 26.4561C54.7237 25.8186 53.7174 25.1613 53.678 24.6832C53.6675 24.5562 53.6625 24.14 53.661 23.5876M66.7775 30.2456C64.7452 29.5438 62.2196 29.8425 59.398 30.5596M54.4652 31.4561C53.551 31.4826 51.4976 31.5875 50.5978 31.7947C49.4732 32.0537 49.2561 31.9341 50.1835 30.5596C50.5321 30.0218 51.2687 28.8146 51.4266 28.2887M53.661 23.5876C53.6581 22.4764 53.6692 20.8138 53.678 19.8426M53.661 23.5876C53.6397 25.0351 53.6838 28.0895 54.0311 28.727M75.9131 60.2607C75.7553 60.865 75.4672 62.1571 75.5777 62.4918M75.5777 62.4918L75.8145 63.2089M75.5777 62.4918C74.8042 62.3165 73.7427 61.7946 73.3086 61.5555M63.6826 83.7467C63.7321 84.0892 63.7722 84.4424 63.8001 84.8423C64.2533 87.671 65.1675 94.1929 65.199 97.651C65.2385 101.974 64.8833 107.153 64.8439 108.806C64.8044 110.46 64.5874 112.751 64.0349 114.822C63.9824 115.019 63.9258 115.219 63.8663 115.42M63.6826 83.7467C63.4182 82.2327 62.0815 79.0057 61.1541 78.8065M63.8663 115.42C63.2999 117.337 62.4724 119.41 62.4366 120.798C62.3972 122.332 62.9299 122.671 62.9694 125.041C63.0089 127.412 62.8707 129.842 62.8313 130.48C62.7918 131.117 64.3703 138.487 64.1138 141.874C63.8573 145.26 62.8115 151.615 62.3577 154.543C61.9039 157.471 60.9568 162.691 61.1541 165.26C61.3514 167.83 61.4303 167.989 61.4303 168.567C61.4303 169.145 61.1541 170.021 61.1541 170.778C61.1541 171.535 61.0555 172.093 61.1541 172.312C61.2528 172.531 61.4895 172.75 61.6671 173.189C61.8447 173.627 61.7658 173.985 62.042 174.324C62.1134 174.412 62.2415 174.514 62.4034 174.636M63.8663 115.42C63.1864 117.561 61.5882 120.041 60.1281 121.436M49.8157 111.117L49.8637 111.33C50.3417 113.447 50.8997 115.92 50.953 116.755C51.0099 117.645 51.3128 119.735 51.544 121.057M49.8157 111.117C49.3952 105.731 50.3987 101.17 50.953 99.5633M51.544 121.057C51.6336 121.569 51.7124 121.966 51.762 122.133C51.9396 122.731 51.8409 126.217 52.0382 127.77C52.2355 129.324 53.1432 130.918 53.6167 133.448C54.0903 135.978 52.8275 139.424 52.6104 142.133C52.3934 144.842 52.3342 147.91 53.4984 151.535C54.6625 155.161 55.3136 160.519 55.3531 162.83C55.3926 165.141 54.406 167.232 54.3468 168.308C54.2876 169.384 54.4455 171.236 54.4652 171.714C54.4849 172.193 54.2679 172.312 54.2679 173.129C54.2679 173.946 54.7217 174.603 54.9782 175.26C55.0956 175.561 55.1262 175.745 55.0756 175.944M51.544 121.057C51.7403 122.026 52.4717 123.29 53.6167 123.819M58.2339 120.619C56.6356 123.607 55.1952 124.304 54.0114 123.966C53.8749 123.927 53.7433 123.877 53.6167 123.819M53.6167 123.819C53.472 124.167 53.1866 125.077 53.2024 125.938M61.6277 125.041C61.8579 126.595 62.1446 130.009 61.4501 131.237C60.5819 132.77 58.1352 132.95 56.7935 132.093M61.6277 132.531C60.9765 133.381 59.6743 136.229 59.6743 140.818C59.6743 145.408 59.4112 150.924 59.2796 153.109M55.3531 167.352C55.6293 167.91 55.8464 169.165 55.3531 169.981M54.9782 176.195C55.0231 176.104 55.0557 176.023 55.0756 175.944M54.9782 176.195C55.014 176.113 55.0465 176.03 55.0756 175.944M55.0756 175.944C55.3518 175.138 55.3399 174.2 55.215 173.587M58.372 46.0377C58.3128 46.1173 58.0366 46.2966 57.7209 46.0974M49.0983 15.3605C49.1772 15.5796 49.4732 16.0378 48.8812 16.3167M48.5853 16.0577C48.434 16.0046 48.1117 15.978 47.8749 16.2171M55.0966 13.5677C55.0966 13.8864 55.3708 14.0059 55.2939 14.3246C55.217 14.6434 54.8006 14.982 54.8006 15.1613M56.0634 13.9063C56.1029 13.6474 55.728 13.3286 55.5899 13.1095C55.5229 13.0033 55.4931 12.9298 55.4801 12.8505M55.4715 12.5318C55.4715 12.6755 55.4663 12.7663 55.4801 12.8505M55.4801 12.8505C55.4377 12.9767 55.357 13.2808 55.3728 13.488M56.2015 14.5637C56.1029 14.8094 55.8622 15.3565 55.6885 15.5796M56.6963 12.0936C56.3031 11.0776 55.6885 11.8346 55.5899 12.1334M84.1826 90.0216C84.7351 89.8423 85.838 89.6232 87.3199 89.6829M90.629 97.1928C90.5849 96.9584 90.5436 96.7574 90.5164 96.6749C90.4589 96.5008 90.192 95.5658 89.9141 94.6704M90.629 97.1928C90.8321 96.8741 91.1083 96.6749 91.937 96.6749M89.9141 94.6704C89.8104 94.3365 89.7052 94.0081 89.6087 93.7267C89.2536 92.6909 89.1154 92.3124 89.0365 92.1729C88.9576 92.0335 88.8195 92.2128 88.8589 92.2725C88.8984 92.3323 89.1154 92.7506 89.2141 93.169C89.3128 93.5873 89.9047 95.6988 90.0428 96.396C90.1809 97.0932 90.1612 97.412 90.2796 98.0693C90.398 98.7267 90.694 99.7626 90.694 100.579C90.694 101.396 90.5164 101.934 89.9639 101.934C89.4114 101.934 89.1549 101.555 89.076 101.416C88.9971 101.276 88.7603 100.719 88.6616 100.28C88.563 99.8422 88.3854 98.7665 88.3065 98.4478C88.2275 98.1291 87.5764 95.2207 87.3594 94.5833C87.1423 93.9458 86.9647 93.3283 86.8661 93.2287C86.7674 93.1291 86.5701 93.2287 86.6293 93.3482C86.6885 93.4678 87.3002 95.5395 87.4975 96.5355C87.6948 97.5315 87.7145 98.1092 87.8921 98.8064C88.0697 99.5036 88.7011 101.595 87.5567 101.735C86.4123 101.874 86.0176 99.3044 85.8992 98.8064C85.7808 98.3084 85.3665 96.9936 85.2876 96.6152C85.2086 96.2367 84.9324 95.0415 84.7746 94.5833C84.6167 94.1251 84.3997 93.2885 84.1826 93.3482C83.9656 93.408 84.4194 94.5833 84.4983 94.8622C84.5772 95.1411 84.6956 95.9379 84.7746 96.2367C84.8175 96.3994 84.9425 96.8339 85.0569 97.2924M89.9141 94.6704C89.9836 94.3642 91.1831 94.1052 91.4614 94.1052M90.3959 91.2168C89.3896 91.7745 88.6439 92.3124 87.8921 92.7307C87.1403 93.149 85.6781 93.4279 85.2263 93.3482C84.8649 93.2845 83.4972 93.2686 82.8586 93.2287M90.0428 98.7267C89.7784 98.7267 89.1552 98.7785 88.778 98.9857M89.4883 95.3801C89.1785 95.3535 88.4725 95.3801 88.1268 95.6988M87.4975 98.5673C87.2271 98.5341 86.5996 98.5195 86.2524 98.7267M86.8661 95.6988C86.6556 95.671 86.0334 95.7276 85.623 95.8582M85.0569 97.2924C84.9896 97.0293 84.1826 96.914 83.6478 97.1928M84.1826 95.0813C84.1016 95.0813 83.6873 94.8622 83.0756 95.0813M83.1743 85.3602C83.5886 86.1371 83.411 88.0694 82.8586 88.6869M62.4034 174.636C61.132 173.782 58.6561 170.918 58.9245 166.296M63.3443 176.575C61.9762 176.396 58.6364 176.244 56.2213 177.073M37.3779 46.3962C37.7133 46.1919 37.932 45.7967 37.5554 45.4799C37.0819 45.0815 36.3913 45.201 36.0756 45.5596C35.8347 45.8332 35.7887 46.1496 36.1348 46.3962C36.4702 46.6353 37.0424 46.6006 37.3779 46.3962ZM47.4211 70.4798C46.8489 70.4798 46.6318 70.181 46.6318 69.9619C46.6318 69.7428 46.8292 69.4439 47.4211 69.4439C48.013 69.4439 48.2104 69.7428 48.2104 69.9619C48.2104 70.181 47.9933 70.4798 47.4211 70.4798ZM45.6256 11.8147C45.7439 11.8944 45.7637 12.1135 45.5072 12.1135C45.1712 12.1135 45.0533 12.492 44.2049 12.492C43.5261 12.492 43.146 12.16 43.0013 11.994C43.1204 11.8593 43.5208 11.5075 43.8892 11.3898C44.0294 11.3449 44.182 11.3167 44.343 11.3167C44.5049 11.3167 44.6591 11.3382 44.8016 11.3724C45.3016 11.4925 45.5713 11.7782 45.6256 11.8147ZM36.5294 180.38C36.7596 180.2 37.7409 179.973 38.8774 180.499L39.3707 179.603C37.9501 179.157 36.9372 179.344 36.7267 179.603L36.5294 180.38ZM34.3984 180.38C34.5431 180.287 35.0732 180.157 35.4836 180.38L35.5823 179.822C35.3637 179.742 34.7104 179.631 34.3984 179.822V180.38ZM32.984 180.001C33.1287 179.908 33.4378 179.922 33.5957 180.001L33.6684 179.722C33.4498 179.643 33.2343 179.603 32.958 179.722L32.984 180.001ZM31.7544 179.762C31.8991 179.669 32.2082 179.683 32.3661 179.762L32.4388 179.483C32.2202 179.404 32.0047 179.364 31.7285 179.483L31.7544 179.762ZM30.8371 179.603C30.9818 179.51 31.2611 179.444 31.419 179.523V179.264C31.2004 179.185 31.0873 179.204 30.8111 179.324L30.8371 179.603ZM57.4643 46.3962C57.1289 46.1919 56.9102 45.7967 57.2868 45.4799C57.7603 45.0815 58.4509 45.201 58.7666 45.5596C59.0075 45.8332 59.0535 46.1496 58.7074 46.3962C58.372 46.6353 57.7998 46.6006 57.4643 46.3962ZM49.2167 11.8147C49.0983 11.8944 49.0785 12.1135 49.335 12.1135C49.6711 12.1135 49.7889 12.492 50.6373 12.492C51.3161 12.492 51.6962 12.16 51.8409 11.994C51.7218 11.8593 51.3214 11.5075 50.953 11.3898C50.8128 11.3449 50.6602 11.3167 50.4992 11.3167C50.3373 11.3167 50.1832 11.3382 50.0406 11.3724C49.5406 11.4925 49.2709 11.7782 49.2167 11.8147ZM58.3128 180.38C58.0826 180.2 57.1013 179.973 55.9648 180.499L55.4715 179.603C56.8921 179.157 57.905 179.344 58.1155 179.603L58.3128 180.38ZM60.4438 180.38C60.2991 180.287 59.769 180.157 59.3586 180.38L59.2599 179.822C59.4785 179.742 60.1318 179.631 60.4438 179.822V180.38ZM61.8582 180.001C61.7135 179.908 61.4044 179.922 61.2465 180.001L61.1738 179.722C61.3924 179.643 61.6079 179.603 61.8842 179.722L61.8582 180.001ZM63.0878 179.762C62.9431 179.669 62.634 179.683 62.4761 179.762L62.4034 179.483C62.622 179.404 62.8375 179.364 63.1137 179.483L63.0878 179.762ZM64.0051 179.603C63.8604 179.51 63.5811 179.444 63.4232 179.523V179.264C63.6418 179.185 63.7549 179.204 64.0311 179.324L64.0051 179.603Z" stroke="#F4C5AF" stroke-linecap="round" stroke-linejoin="round"/>
</svg>
