<svg width="95" height="182" viewBox="0 0 95 182" fill="none" xmlns="http://www.w3.org/2000/svg">
<path fill-rule="evenodd" clip-rule="evenodd" d="M41.9718 2.84238C40.7415 4.07216 40.0619 5.49477 39.8185 6.26126C39.6255 6.86919 39.5641 7.92627 39.5683 9.01102C39.5724 10.0921 39.6413 11.1883 39.7036 11.867C39.7072 11.9061 39.682 11.942 39.6443 11.9516C39.6065 11.9612 39.5675 11.9416 39.5523 11.9055C39.5091 11.8027 39.4234 11.6516 39.3094 11.5355C39.1945 11.4184 39.0649 11.3501 38.9288 11.3751C38.7734 11.4036 38.6241 11.4671 38.5008 11.5813C38.378 11.6952 38.2764 11.8637 38.2228 12.1105C38.1905 12.2594 38.1756 12.4369 38.1845 12.6479C38.2041 13.1115 38.2726 13.6699 38.3778 14.1839C38.4835 14.7001 38.6245 15.1625 38.7854 15.4396C38.8715 15.5879 38.9581 15.7731 39.0457 15.963C39.0531 15.979 39.0605 15.995 39.0678 16.011C39.1489 16.187 39.2314 16.3659 39.3172 16.528C39.4113 16.7056 39.5065 16.8572 39.604 16.9599C39.7022 17.0634 39.7899 17.1044 39.8717 17.0941C40.0957 17.0658 40.2164 16.9967 40.2877 16.9268C40.3544 16.8614 40.3843 16.7901 40.4127 16.7224C40.4153 16.7161 40.418 16.7098 40.4206 16.7035C40.4252 16.6928 40.4311 16.6804 40.4389 16.6692C40.4438 16.6623 40.4626 16.6357 40.4984 16.6293C40.5464 16.6209 40.5752 16.6536 40.5845 16.6672C40.594 16.6813 40.5989 16.6964 40.6015 16.7057C40.6118 16.7423 40.6177 16.8065 40.6236 16.8777C40.6254 16.8992 40.6272 16.9223 40.6291 16.9467C40.6407 17.0934 40.6562 17.289 40.6895 17.4992C40.7046 17.5944 40.7197 17.7169 40.7368 17.8551C40.7424 17.9001 40.7482 17.9468 40.7543 17.9947C40.779 18.1911 40.8086 18.4111 40.8479 18.6333C40.927 19.0813 41.0433 19.524 41.2291 19.7974C41.238 19.8104 41.2428 19.8259 41.2429 19.8417C41.2517 20.8131 41.2629 22.4761 41.2599 23.5877C41.2584 24.1382 41.2535 24.5586 41.2427 24.6897C41.2308 24.834 41.1478 24.9804 41.0272 25.1237C40.9052 25.2686 40.7369 25.4195 40.5387 25.573C40.1422 25.8801 39.6155 26.206 39.0727 26.5249C37.9817 27.1657 36.1022 28.0242 33.8695 28.8022C32.8305 29.1642 32.0968 29.2772 31.3853 29.3868C31.3282 29.3955 31.2712 29.4043 31.2142 29.4132C30.4502 29.5323 29.6824 29.6705 28.5459 30.1354C28.4192 30.1872 28.2963 30.2372 28.1769 30.2857L28.0939 30.3194C27.1012 30.7229 26.3603 31.0303 25.6697 31.5262C24.9804 32.021 24.3373 32.7067 23.5499 33.8714C21.8679 36.3594 21.7089 39.7234 21.7089 41.4758C21.7089 42.8803 21.6431 44.2154 21.6101 44.7083C21.6092 44.7211 21.6053 44.7335 21.5987 44.7445C21.31 45.2215 20.8569 46.003 20.4368 46.7963C20.0157 47.5915 19.6312 48.3919 19.4759 48.9093C19.341 49.3588 19.1254 49.9759 18.8873 50.6577C18.7762 50.9758 18.6602 51.308 18.5451 51.6438C18.1824 52.7024 17.8289 53.7984 17.6624 54.6193C17.4007 55.9092 17.1237 56.4009 16.612 57.3093C16.462 57.5757 16.2918 57.8779 16.0959 58.2465C16.0243 58.3812 15.9517 58.5164 15.8781 58.6536C15.0589 60.1796 14.1132 61.9416 13.0835 65.6804C12.522 67.7188 12.1279 69.718 11.7925 71.4759C11.7633 71.6288 11.7346 71.78 11.7062 71.9292C11.4089 73.4927 11.1519 74.8442 10.8532 75.8219C10.527 76.8897 9.96898 78.49 9.47062 79.8524C9.22139 80.5338 8.98684 81.1563 8.80341 81.6236C8.71172 81.8572 8.63262 82.0525 8.57073 82.1972C8.53981 82.2695 8.51293 82.3297 8.49077 82.376C8.46967 82.4201 8.45007 82.4576 8.4337 82.4797C8.40426 82.5193 8.36108 82.5564 8.31287 82.5906C8.26379 82.6254 8.20526 82.6603 8.14137 82.6943C8.01358 82.7625 7.8596 82.8303 7.7067 82.8918C7.40075 83.0149 7.09267 83.1152 6.99231 83.1456C6.83943 83.1919 6.39679 83.3744 6.19117 83.4615L6.191 83.4616C5.48632 83.758 4.80091 84.1734 4.52936 84.3692C4.41077 84.4547 4.30324 84.5636 4.18946 84.6789C4.17708 84.6915 4.16462 84.7041 4.15206 84.7168C4.02653 84.8435 3.89213 84.9746 3.73484 85.0699C3.62932 85.1338 3.4863 85.2105 3.33532 85.2914C3.27163 85.3255 3.20652 85.3604 3.14222 85.3954C2.92193 85.5153 2.71081 85.6368 2.57884 85.7415C2.30538 85.9584 1.95607 86.2922 1.78424 86.5235C1.70722 86.6271 1.67953 86.7043 1.65183 86.7816L1.64729 86.7942C1.61616 86.8806 1.58172 86.9681 1.48094 87.0699C1.39494 87.1567 1.27476 87.2514 1.15151 87.3486L1.12104 87.3726C0.985007 87.48 0.845642 87.5917 0.731145 87.7073C0.633221 87.8062 0.558569 88.0192 0.583566 88.2395C0.607811 88.4531 0.72485 88.6644 0.999798 88.7719C1.28822 88.8846 1.63761 88.8955 1.97563 88.8326C2.31349 88.7697 2.63216 88.6344 2.85762 88.4637C3.08737 88.2897 3.22588 88.1307 3.33983 87.9912C3.35383 87.9741 3.3676 87.957 3.38123 87.9401C3.47698 87.8216 3.56659 87.7107 3.68877 87.6253C3.82354 87.5311 4.04146 87.4189 4.25918 87.3305C4.47423 87.2432 4.70369 87.1729 4.85838 87.1729C4.8852 87.1729 4.91018 87.1866 4.92471 87.2094C4.93925 87.2321 4.94134 87.2608 4.93027 87.2854C4.73956 87.7103 4.30403 88.7131 4.08422 89.3313C3.84113 90.0149 3.45847 91.5726 3.25019 92.4204C3.22328 92.53 3.19927 92.6277 3.17886 92.7101C3.00132 93.4271 2.68609 94.7598 2.52869 95.5941C2.37031 96.4336 2.17448 97.5423 2.15509 97.9338C2.15251 97.9859 2.14647 98.051 2.13957 98.1251C2.11842 98.3528 2.08924 98.6669 2.12739 98.9603C2.15242 99.1528 2.20569 99.3247 2.30218 99.4495C2.39596 99.5707 2.53545 99.6539 2.75041 99.6629C3.17979 99.681 3.46346 99.3944 3.65019 99.0609C3.82236 98.7534 3.90095 98.4244 3.9278 98.312C3.92999 98.3028 3.93184 98.2951 3.93336 98.289C3.94543 98.2402 3.97462 98.0767 4.0121 97.8644L4.02235 97.8062C4.05718 97.6087 4.09735 97.3808 4.13549 97.1779C4.17913 96.9456 4.22146 96.7384 4.25076 96.6496C4.27374 96.58 4.32983 96.39 4.40672 96.1294C4.52227 95.7378 4.68482 95.187 4.85261 94.6465C4.95639 94.3122 5.06186 93.983 5.15869 93.7006C5.33626 93.1827 5.45984 92.8283 5.54898 92.5859C5.63742 92.3453 5.69376 92.2096 5.73696 92.1333C5.76542 92.083 5.80894 92.0463 5.86587 92.0417C5.91834 92.0376 5.962 92.0627 5.99064 92.088C6.02009 92.114 6.04364 92.1485 6.05688 92.1839C6.06851 92.2149 6.08007 92.2692 6.04874 92.3166C6.03293 92.3406 5.97101 92.4549 5.89994 92.6182C5.8295 92.7801 5.75252 92.9845 5.70468 93.1873C5.67038 93.3328 5.57711 93.6806 5.46434 94.1011C5.41381 94.2895 5.35937 94.4925 5.30457 94.6985C5.12672 95.3668 4.94502 96.0661 4.87658 96.4116C4.80819 96.7568 4.77889 97.0081 4.75185 97.2562L4.74611 97.3091C4.72105 97.5403 4.69559 97.7752 4.64006 98.0835C4.60736 98.2651 4.56045 98.4787 4.51025 98.7073C4.4698 98.8915 4.42722 99.0855 4.3882 99.2803C4.29962 99.7224 4.22698 100.179 4.22698 100.579C4.22698 100.985 4.27154 101.308 4.37694 101.528C4.42899 101.637 4.49458 101.717 4.57459 101.771C4.65422 101.824 4.75323 101.854 4.87811 101.854C5.38789 101.854 5.62362 101.507 5.6975 101.376C5.7725 101.244 6.00646 100.693 6.10342 100.263C6.15102 100.051 6.21743 99.6887 6.28254 99.3332L6.28775 99.3047C6.35406 98.9428 6.41875 98.5908 6.45897 98.4284C6.4761 98.3592 6.52019 98.168 6.58101 97.9042C6.66006 97.5614 6.76737 97.096 6.88052 96.6165C7.07983 95.7719 7.29791 94.8807 7.40801 94.5573C7.46209 94.3985 7.51375 94.2408 7.56246 94.0917L7.57254 94.0608C7.61744 93.9234 7.65984 93.7936 7.69904 93.6783C7.74109 93.5547 7.77999 93.4463 7.81494 93.3619C7.83241 93.3198 7.84939 93.2824 7.86579 93.2516C7.88145 93.2221 7.8994 93.1932 7.92012 93.1723C7.99981 93.0918 8.11304 93.0967 8.18881 93.1349C8.22779 93.1546 8.26473 93.1865 8.28568 93.2305C8.30787 93.2771 8.30913 93.3316 8.2833 93.3838L8.28318 93.384C8.28301 93.3844 8.28265 93.3852 8.28209 93.3865C8.28129 93.3884 8.28028 93.3909 8.27903 93.3941C8.27654 93.4005 8.27342 93.409 8.26969 93.4195C8.26224 93.4406 8.25277 93.4687 8.24149 93.5034C8.21894 93.5727 8.18959 93.6668 8.15529 93.7798C8.08672 94.0058 7.9987 94.3066 7.90633 94.6349C7.72138 95.2921 7.51991 96.0564 7.42192 96.551C7.33269 97.0014 7.27998 97.3657 7.23218 97.696C7.22738 97.7291 7.22263 97.7619 7.2179 97.7945C7.16608 98.1507 7.11626 98.4731 7.02634 98.8261C7.01466 98.872 7.00113 98.9235 6.98635 98.9798C6.88739 99.3565 6.73234 99.9468 6.70065 100.484C6.68242 100.794 6.70595 101.075 6.79737 101.284C6.88615 101.487 7.03888 101.624 7.29479 101.655C7.5464 101.686 7.7619 101.57 7.95122 101.353C8.14173 101.135 8.29799 100.822 8.42495 100.481C8.62576 99.9434 8.74647 99.3586 8.8184 99.0102C8.83753 98.9175 8.8532 98.8416 8.86602 98.7877C8.92346 98.5461 9.04933 98.116 9.1725 97.6952L9.18771 97.6433C9.31655 97.203 9.43858 96.7839 9.4772 96.5986C9.55605 96.2206 9.83318 95.0206 9.99291 94.557C10.0198 94.479 10.0492 94.3874 10.0804 94.2901C10.138 94.1103 10.2019 93.911 10.2678 93.7422C10.3188 93.6116 10.3739 93.4911 10.4328 93.4059C10.4621 93.3635 10.4957 93.3248 10.5346 93.2988C10.5751 93.2718 10.6255 93.2562 10.6802 93.2713C10.7496 93.2904 10.7779 93.3523 10.7885 93.4021C10.7994 93.453 10.7981 93.515 10.7912 93.5793C10.7772 93.7095 10.7367 93.8762 10.6884 94.0451C10.6397 94.2149 10.5819 94.3913 10.5316 94.5418C10.5212 94.5728 10.5112 94.6027 10.5017 94.6311C10.4645 94.7418 10.4347 94.8304 10.4196 94.884C10.3814 95.0187 10.3329 95.2827 10.2832 95.5562L10.2776 95.5871C10.2304 95.8468 10.1827 96.1097 10.1437 96.2571C10.1311 96.3049 10.1118 96.3746 10.0881 96.4606C10.0294 96.6732 9.9431 96.9855 9.86167 97.3118C9.76596 97.6954 9.67901 98.0904 9.6527 98.3561C9.62301 98.6558 9.61583 98.9223 9.69 99.1219C9.72617 99.2193 9.78124 99.2992 9.86243 99.3597C9.94412 99.4206 10.0572 99.4654 10.2148 99.4841C10.3453 99.4996 10.4735 99.4309 10.601 99.2875C10.7277 99.1449 10.8415 98.9413 10.9402 98.7212C11.0384 98.502 11.1194 98.2717 11.1822 98.0789C11.2089 97.997 11.2328 97.9202 11.2534 97.854C11.2802 97.768 11.3014 97.6999 11.3158 97.6621C11.3641 97.5353 11.5606 96.9355 11.7533 96.3293C11.9466 95.7215 12.1322 95.1193 12.1607 94.9848C12.1918 94.8384 12.3224 94.454 12.4698 94.0572C12.6178 93.6588 12.7868 93.2369 12.8974 93.0137C13.0014 92.8037 13.1565 92.3215 13.3091 91.7536C13.4622 91.1833 13.6105 90.5351 13.6991 90.0081C13.7438 89.7423 13.8009 89.4682 13.8588 89.1926L13.8689 89.1444C13.9237 88.8842 13.9786 88.6229 14.0248 88.3639C14.1231 87.8131 14.1804 87.2806 14.1132 86.8057C14.1065 86.7587 14.1 86.7129 14.0936 86.6683C13.9683 85.7891 13.9066 85.3567 14.1974 84.6522C14.3074 84.3855 14.4241 84.0824 14.5417 83.7773C14.7367 83.271 14.9339 82.7588 15.1068 82.3972C15.1192 82.3713 15.1329 82.3423 15.1482 82.31C15.4767 81.6171 16.5075 79.4425 19.377 75.6307C22.3702 71.6545 24.2584 67.1835 24.7687 64.5283C25.179 62.3935 25.5183 60.4526 25.6366 59.7493C25.6382 59.7397 25.6415 59.7305 25.6464 59.7222C27.4315 56.6648 28.7918 54.1047 29.5879 51.255C29.5973 51.2212 29.6275 51.1976 29.6623 51.1969C29.6971 51.1962 29.7282 51.2186 29.7389 51.252C29.9467 51.8979 30.2875 52.7926 30.6365 53.709C30.7005 53.877 30.7648 54.0457 30.8286 54.2137C31.239 55.2952 31.63 56.3511 31.7893 56.9943C31.947 57.6312 32.0448 57.9661 32.1417 58.2255C32.2146 58.4204 32.2868 58.5726 32.3855 58.7806C32.4185 58.8501 32.4545 58.9259 32.4945 59.0116L32.5241 59.075C32.8291 59.7289 33.134 60.3824 33.2119 61.1891C33.2282 61.3575 33.2564 61.5712 33.2912 61.8233C33.3002 61.8885 33.3096 61.9561 33.3193 62.0261C33.4524 62.9826 33.6464 64.3776 33.6464 65.8383C33.6464 66.8224 33.4662 67.7368 33.2907 68.6276L33.2848 68.6576C33.107 69.5602 32.9363 70.4383 32.9558 71.3545C32.9685 71.9505 32.9853 72.4371 33.0022 72.8469C33.0138 73.1285 33.0255 73.3743 33.036 73.5948C33.0577 74.0481 33.0742 74.3942 33.0742 74.7227C33.0742 74.9145 33.0217 75.1433 32.9421 75.4146C32.895 75.5748 32.837 75.7544 32.7727 75.9534C32.7281 76.0912 32.6805 76.2385 32.6315 76.3951C32.3906 77.1644 32.1059 78.1854 31.9291 79.5537C31.7932 80.6054 31.6602 81.3807 31.5411 82.0315C31.5131 82.1847 31.4859 82.3309 31.4596 82.472C31.3741 82.9307 31.2986 83.336 31.2375 83.7581C31.1882 84.0988 31.1484 84.4501 31.1206 84.8478C31.1204 84.8502 31.1201 84.8526 31.1198 84.8549C30.6665 87.6842 29.7534 94.2004 29.7219 97.6516C29.6939 100.723 29.865 104.223 29.9806 106.587C30.0277 107.55 30.0656 108.324 30.077 108.804C30.1164 110.454 30.333 112.738 30.8833 114.801C30.9356 114.997 30.992 115.196 31.0513 115.397C31.1926 115.875 31.3502 116.363 31.508 116.849L31.5456 116.964C31.6907 117.411 31.8349 117.854 31.965 118.284C32.2472 119.216 32.4661 120.09 32.4843 120.796C32.503 121.524 32.3941 121.989 32.2711 122.514C32.2626 122.551 32.254 122.587 32.2454 122.624C32.1131 123.193 31.9711 123.865 31.9515 125.043C31.9121 127.41 32.0501 129.838 32.0895 130.474C32.0924 130.522 32.0878 130.594 32.0785 130.684C32.069 130.775 32.054 130.89 32.0345 131.025C31.9955 131.295 31.938 131.649 31.8688 132.066C31.843 132.221 31.8157 132.384 31.7871 132.555C31.6616 133.306 31.5116 134.203 31.3661 135.158C31.0082 137.505 30.6794 140.185 30.8069 141.868C31.0272 144.777 31.8309 149.88 32.3406 153.117C32.4235 153.643 32.4987 154.121 32.5623 154.531C32.629 154.961 32.7065 155.442 32.7895 155.957C32.9883 157.19 33.2187 158.619 33.4085 160.025C33.6772 162.017 33.866 163.972 33.7666 165.266C33.6679 166.552 33.5987 167.235 33.5543 167.669L33.5509 167.702C33.5088 168.112 33.4906 168.29 33.4906 168.567C33.4906 168.829 33.5494 169.156 33.614 169.516L33.6274 169.591C33.6964 169.976 33.7668 170.391 33.7668 170.778C33.7668 171.064 33.7809 171.319 33.7931 171.542C33.797 171.612 33.8007 171.679 33.8037 171.743C33.8099 171.874 33.8132 171.991 33.8083 172.09C33.8036 172.188 33.7907 172.276 33.7597 172.345C33.7175 172.439 33.6513 172.533 33.5809 172.634C33.5627 172.66 33.5443 172.686 33.5259 172.713C33.4338 172.848 33.3337 173.007 33.2479 173.219C33.1798 173.387 33.1516 173.541 33.1234 173.694C33.1164 173.733 33.1094 173.771 33.1018 173.809C33.064 174 33.0114 174.19 32.8609 174.375C32.7823 174.471 32.6459 174.579 32.4859 174.7C32.4487 174.728 32.4099 174.757 32.3698 174.787C31.9038 175.136 31.2513 175.624 30.8156 176.357C30.4964 176.894 30.3466 177.431 30.291 177.88C30.2353 178.33 30.2751 178.686 30.3299 178.862C30.358 178.952 30.3849 179.007 30.4078 179.042C30.43 179.077 30.4498 179.095 30.468 179.111C30.4832 179.124 30.5164 179.148 30.5379 179.182C30.5621 179.221 30.5703 179.267 30.5703 179.324C30.5703 179.405 30.6088 179.545 30.6857 179.664C30.7626 179.782 30.8649 179.862 30.9847 179.862C31.1386 179.862 31.2539 179.847 31.3305 179.825C31.369 179.814 31.3942 179.802 31.4091 179.792C31.4175 179.786 31.4207 179.782 31.4217 179.781C31.4318 179.744 31.4661 179.72 31.5038 179.723C31.5422 179.726 31.5728 179.756 31.5763 179.795C31.589 179.935 31.6165 180.06 31.663 180.151C31.7084 180.24 31.7673 180.29 31.8443 180.301C32.0448 180.33 32.2249 180.324 32.3608 180.283C32.4961 180.243 32.5772 180.172 32.6062 180.077C32.6169 180.042 32.6504 180.019 32.6869 180.021C32.7234 180.024 32.7535 180.051 32.7595 180.088C32.782 180.225 32.8322 180.347 32.9195 180.434C33.0052 180.519 33.1346 180.579 33.3327 180.579C33.525 180.579 33.6555 180.516 33.7457 180.427C33.8376 180.336 33.8933 180.213 33.923 180.083C33.9323 180.042 33.9714 180.015 34.0124 180.022C34.0533 180.029 34.0822 180.066 34.0785 180.108C34.0638 180.272 34.091 180.517 34.2165 180.718C34.3386 180.914 34.5585 181.077 34.9507 181.077C35.1997 181.077 35.3695 181.019 35.4873 180.938C35.6051 180.856 35.6774 180.747 35.7237 180.633C35.7702 180.519 35.7896 180.401 35.802 180.306C35.8038 180.292 35.8055 180.278 35.8071 180.265C35.8109 180.234 35.8145 180.205 35.8185 180.182C35.8213 180.165 35.8252 180.147 35.8312 180.131C35.8356 180.119 35.8484 180.086 35.8822 180.069C35.9377 180.041 36.0161 180.031 36.0803 180.031C36.1138 180.031 36.1478 180.034 36.178 180.04C36.2041 180.046 36.2423 180.057 36.2693 180.084C36.2885 180.104 36.2942 180.127 36.2962 180.136C36.2989 180.149 36.3001 180.162 36.3007 180.173C36.302 180.196 36.3015 180.224 36.3007 180.254C36.2992 180.315 36.2962 180.391 36.2998 180.473C36.307 180.642 36.3411 180.814 36.4469 180.921C36.5687 181.044 36.7169 181.156 36.9307 181.233C37.1455 181.311 37.4306 181.355 37.8276 181.336C38.8086 181.288 39.3948 180.708 39.7465 180.107C40.0476 179.593 40.1717 179.074 40.2219 178.863C40.2307 178.827 40.2372 178.799 40.242 178.783C40.2503 178.755 40.264 178.719 40.2807 178.676C40.3932 178.381 40.6384 177.739 40.2094 176.973C40.1412 176.851 40.0786 176.742 40.0222 176.645C39.9274 176.48 39.8501 176.346 39.7931 176.23C39.7469 176.136 39.7117 176.05 39.6899 175.964C39.6332 175.741 39.6708 175.537 39.7904 175.231C39.8556 175.064 39.9332 174.897 40.0117 174.73L40.0321 174.687C40.1043 174.534 40.1767 174.381 40.2424 174.223C40.386 173.879 40.4952 173.522 40.4952 173.129C40.4952 172.729 40.4424 172.502 40.3919 172.316C40.3869 172.297 40.3818 172.278 40.3767 172.26C40.3309 172.093 40.2885 171.94 40.298 171.711C40.3026 171.6 40.3144 171.417 40.3292 171.188C40.3788 170.42 40.4618 169.137 40.4164 168.312C40.4021 168.052 40.3313 167.727 40.2311 167.344C40.1812 167.153 40.1244 166.949 40.0644 166.733C40.0044 166.517 39.9412 166.29 39.8788 166.053C39.6291 165.104 39.3901 163.995 39.41 162.829C39.4496 160.512 40.1016 155.145 41.2686 151.511C42.4281 147.9 42.3696 144.844 42.1529 142.139C42.0738 141.152 41.8553 140.067 41.6322 138.96C41.5505 138.554 41.4682 138.146 41.3919 137.738C41.1083 136.221 40.9079 134.714 41.1477 133.433C41.3856 132.162 41.7326 131.126 42.0435 130.217L42.0792 130.113C42.3758 129.246 42.6318 128.498 42.7255 127.76C42.8235 126.989 42.8481 125.734 42.8704 124.591L42.8705 124.584C42.8816 124.017 42.892 123.478 42.9108 123.044C42.9203 122.826 42.9318 122.633 42.9467 122.475C42.9614 122.32 42.9798 122.193 43.0044 122.11C43.0524 121.948 43.1305 121.557 43.2203 121.043C43.4514 119.722 43.7536 117.635 43.8102 116.749C43.8373 116.325 43.9916 115.492 44.1972 114.507C44.4032 113.519 44.6622 112.371 44.9011 111.313L44.9014 111.312L44.9493 111.099C45.1599 110.166 45.3504 109.318 45.4691 108.731C45.5042 108.557 45.5436 108.366 45.586 108.16C46.0213 106.051 46.7877 102.337 46.7698 98.6075V96.5209C46.7698 96.4981 46.7795 96.4763 46.7964 96.4612C46.8134 96.4461 46.836 96.439 46.8584 96.4418C47.0342 96.4639 47.2215 96.4756 47.4209 96.4756C47.6203 96.4756 47.8076 96.4639 47.9834 96.4418C48.0058 96.439 48.0284 96.4461 48.0454 96.4612C48.0623 96.4763 48.072 96.4981 48.072 96.5209V98.6075C48.0541 102.337 48.8205 106.051 49.2558 108.16C49.2982 108.366 49.3376 108.557 49.3727 108.731C49.4914 109.318 49.6819 110.166 49.8924 111.099L49.9404 111.312L49.9407 111.313C50.1796 112.371 50.4386 113.519 50.6446 114.507C50.8502 115.492 51.0045 116.325 51.0316 116.749C51.0882 117.635 51.3904 119.722 51.6215 121.043C51.7113 121.557 51.7894 121.948 51.8374 122.11C51.862 122.193 51.8804 122.32 51.8951 122.475C51.91 122.633 51.9215 122.826 51.931 123.044C51.9498 123.478 51.9602 124.017 51.9713 124.584L51.9714 124.591C51.9937 125.734 52.0183 126.989 52.1163 127.76C52.21 128.498 52.4659 129.246 52.7626 130.113L52.7983 130.217C53.1092 131.126 53.4562 132.162 53.6941 133.433C53.9339 134.714 53.7335 136.221 53.4499 137.738C53.3736 138.146 53.2913 138.554 53.2096 138.96C52.9865 140.067 52.768 141.152 52.6889 142.139C52.4722 144.844 52.4137 147.9 53.5732 151.511C54.7402 155.145 55.3922 160.512 55.4318 162.829C55.4517 163.995 55.2127 165.104 54.963 166.053C54.9006 166.29 54.8374 166.517 54.7774 166.733L54.7734 166.747C54.7149 166.958 54.6595 167.157 54.6107 167.344C54.5105 167.727 54.4397 168.052 54.4254 168.312C54.38 169.137 54.463 170.42 54.5126 171.188C54.5274 171.417 54.5392 171.6 54.5438 171.711C54.5533 171.94 54.5109 172.093 54.4651 172.26C54.46 172.278 54.4549 172.297 54.4499 172.316C54.3994 172.502 54.3466 172.729 54.3466 173.129C54.3466 173.522 54.4557 173.879 54.5994 174.223C54.6651 174.381 54.7375 174.534 54.8097 174.687L54.8301 174.73C54.9086 174.897 54.9862 175.064 55.0514 175.231C55.171 175.537 55.2086 175.741 55.1519 175.964C55.1301 176.05 55.0949 176.136 55.0487 176.23C54.9917 176.346 54.9143 176.48 54.8195 176.645C54.7631 176.742 54.7005 176.851 54.6323 176.973C54.2034 177.739 54.4486 178.381 54.5611 178.676C54.5778 178.719 54.5915 178.755 54.5998 178.783C54.6046 178.799 54.6111 178.827 54.6199 178.863C54.6701 179.074 54.7942 179.593 55.0953 180.107C55.4469 180.708 56.0331 181.288 57.0142 181.336C57.4112 181.355 57.6963 181.311 57.911 181.233C58.1248 181.156 58.2731 181.044 58.3949 180.921C58.5007 180.814 58.5348 180.642 58.542 180.473C58.5451 180.401 58.5433 180.335 58.5417 180.278L58.5411 180.254C58.5403 180.224 58.5398 180.196 58.541 180.173C58.5417 180.162 58.5428 180.149 58.5456 180.136C58.5476 180.127 58.5533 180.104 58.5725 180.084C58.5995 180.057 58.6376 180.046 58.6638 180.04C58.694 180.034 58.728 180.031 58.7615 180.031C58.8257 180.031 58.9041 180.041 58.9596 180.069C58.9934 180.086 59.0062 180.119 59.0106 180.131C59.0166 180.147 59.0205 180.165 59.0233 180.182C59.029 180.215 59.0339 180.26 59.0398 180.306C59.0522 180.401 59.0716 180.519 59.1181 180.633C59.1644 180.747 59.2367 180.856 59.3545 180.938C59.4723 181.019 59.6421 181.077 59.8911 181.077C60.2833 181.077 60.5032 180.914 60.6253 180.718C60.7508 180.517 60.778 180.272 60.7633 180.108C60.7595 180.066 60.7884 180.029 60.8294 180.022C60.8704 180.015 60.9095 180.042 60.9188 180.083C60.9485 180.213 61.0042 180.336 61.0961 180.427C61.1863 180.516 61.3168 180.579 61.5091 180.579C61.7037 180.579 61.8328 180.519 61.9193 180.432C62.0074 180.345 62.0588 180.222 62.0825 180.087C62.0888 180.051 62.1189 180.024 62.1553 180.021C62.1917 180.019 62.2249 180.042 62.2356 180.077C62.2646 180.172 62.3457 180.243 62.481 180.283C62.6169 180.324 62.7969 180.33 62.9975 180.301C63.0707 180.29 63.1296 180.24 63.1761 180.149C63.2232 180.056 63.2518 179.931 63.2656 179.794C63.2694 179.755 63.3001 179.725 63.3384 179.723C63.3759 179.72 63.4101 179.744 63.4201 179.781C63.4211 179.782 63.4243 179.786 63.4327 179.792C63.4476 179.802 63.4728 179.814 63.5113 179.825C63.5879 179.847 63.7032 179.862 63.8571 179.862C63.9769 179.862 64.0792 179.782 64.1561 179.664C64.233 179.545 64.2715 179.405 64.2715 179.324C64.2715 179.267 64.2797 179.221 64.3039 179.182C64.3223 179.153 64.3492 179.131 64.3661 179.117C64.369 179.115 64.3716 179.113 64.3738 179.111C64.392 179.095 64.4118 179.077 64.434 179.042C64.4569 179.007 64.4838 178.952 64.5119 178.862C64.5667 178.686 64.6065 178.33 64.5508 177.88C64.4952 177.431 64.3454 176.894 64.0262 176.357C63.5905 175.624 62.938 175.136 62.472 174.787C62.4318 174.757 62.3931 174.728 62.3559 174.7C62.1959 174.579 62.0595 174.471 61.9809 174.375C61.8304 174.19 61.7778 174 61.74 173.809C61.7324 173.771 61.7254 173.733 61.7184 173.694C61.6902 173.541 61.662 173.387 61.5939 173.219C61.5081 173.007 61.408 172.848 61.3159 172.713C61.2975 172.686 61.279 172.66 61.2609 172.634C61.1905 172.533 61.1243 172.439 61.0821 172.345C61.051 172.276 61.0382 172.188 61.0335 172.09C61.0286 171.991 61.0319 171.874 61.0381 171.743C61.0411 171.679 61.0448 171.612 61.0487 171.542C61.0609 171.319 61.075 171.063 61.075 170.778C61.075 170.391 61.1454 169.976 61.2144 169.591L61.2278 169.516C61.2924 169.156 61.3512 168.829 61.3512 168.567C61.3512 168.29 61.333 168.112 61.2909 167.702L61.2875 167.669C61.2431 167.235 61.1739 166.552 61.0752 165.266C60.9758 163.972 61.1646 162.017 61.4333 160.025C61.6231 158.619 61.8535 157.19 62.0523 155.957C62.1353 155.442 62.2128 154.961 62.2795 154.531C62.3431 154.121 62.4183 153.643 62.5012 153.116C63.0109 149.88 63.8146 144.777 64.0349 141.868C64.1624 140.185 63.8336 137.505 63.4757 135.158C63.3302 134.204 63.1803 133.307 63.0549 132.556C63.0262 132.385 62.9988 132.221 62.973 132.066C62.9038 131.649 62.8463 131.295 62.8073 131.025C62.7878 130.89 62.7728 130.775 62.7633 130.684C62.754 130.594 62.7494 130.522 62.7523 130.474C62.7917 129.838 62.9297 127.41 62.8903 125.043C62.8707 123.865 62.7287 123.193 62.5964 122.624C62.5878 122.587 62.5792 122.551 62.5707 122.514C62.4477 121.989 62.3388 121.524 62.3575 120.796C62.3757 120.09 62.5946 119.216 62.8768 118.284C63.0069 117.854 63.1511 117.411 63.2962 116.965L63.3338 116.849C63.4916 116.363 63.6492 115.875 63.7905 115.397C63.8498 115.196 63.9062 114.997 63.9585 114.801C64.5088 112.738 64.7254 110.454 64.7648 108.804C64.7762 108.324 64.8141 107.55 64.8612 106.587C64.9768 104.223 65.1479 100.723 65.1199 97.6516C65.0884 94.2004 64.1753 87.6842 63.722 84.8549C63.7217 84.8526 63.7214 84.8502 63.7212 84.8478C63.6934 84.4501 63.6536 84.0988 63.6042 83.7581C63.5432 83.336 63.4677 82.9307 63.3822 82.472C63.3559 82.3309 63.3287 82.1847 63.3006 82.0315C63.1816 81.3807 63.0486 80.6054 62.9127 79.5537C62.7359 78.1854 62.4512 77.1644 62.2103 76.3951C62.1612 76.2384 62.1137 76.0912 62.0691 75.9533C62.0048 75.7543 61.9468 75.5748 61.8997 75.4146C61.82 75.1433 61.7676 74.9145 61.7676 74.7227C61.7676 74.3942 61.7841 74.0482 61.8057 73.5949C61.8163 73.3744 61.828 73.1285 61.8396 72.8469C61.8565 72.4371 61.8733 71.9505 61.886 71.3545C61.9055 70.4383 61.7348 69.5602 61.557 68.6576L61.5511 68.6276C61.3756 67.7368 61.1954 66.8224 61.1954 65.8383C61.1954 64.3776 61.3894 62.9827 61.5225 62.0262C61.5322 61.9562 61.5416 61.8885 61.5506 61.8233C61.5854 61.5712 61.6136 61.3575 61.6299 61.1891C61.7078 60.3824 62.0127 59.7289 62.3177 59.075L62.3199 59.0704L62.3473 59.0116C62.3873 58.9259 62.4233 58.8501 62.4563 58.7805C62.555 58.5726 62.6272 58.4204 62.7001 58.2255C62.797 57.9661 62.8948 57.6312 63.0525 56.9943C63.2118 56.3511 63.6028 55.2952 64.0132 54.2137C64.077 54.0456 64.1413 53.8769 64.2053 53.7089C64.5544 52.7925 64.8952 51.8979 65.1029 51.252C65.1136 51.2186 65.1447 51.1962 65.1795 51.1969C65.2142 51.1976 65.2445 51.2212 65.2539 51.255C66.05 54.1047 67.4103 56.6648 69.1954 59.7222C69.1982 59.727 69.2006 59.7322 69.2023 59.7375C69.2036 59.7414 69.2045 59.7453 69.2052 59.7493C69.3235 60.4526 69.6628 62.3935 70.0731 64.5283C70.5834 67.1835 72.4716 71.6545 75.4648 75.6307C78.3343 79.4425 79.3651 81.6171 79.6936 82.31C79.7089 82.3423 79.7226 82.3714 79.735 82.3972C79.9079 82.7588 80.1051 83.271 80.3001 83.7773C80.4177 84.0825 80.5344 84.3855 80.6444 84.6522C80.9352 85.3567 80.8735 85.7891 80.7482 86.6683C80.7418 86.7129 80.7353 86.7587 80.7286 86.8057C80.6614 87.2806 80.7187 87.8131 80.817 88.3639C80.8632 88.6228 80.9181 88.884 80.9728 89.1442L80.983 89.1926C81.0409 89.4682 81.098 89.7423 81.1427 90.0081C81.2313 90.5351 81.3796 91.1833 81.5327 91.7536C81.6852 92.3215 81.8404 92.8037 81.9444 93.0137C82.055 93.2369 82.224 93.6588 82.372 94.0572C82.5194 94.454 82.65 94.8384 82.6811 94.9848C82.7096 95.1193 82.8952 95.7215 83.0885 96.3293C83.2812 96.9355 83.4777 97.5353 83.526 97.6621C83.5404 97.6999 83.5616 97.7679 83.5883 97.8539C83.6089 97.9201 83.6329 97.9969 83.6596 98.0789C83.7224 98.2717 83.8034 98.502 83.9016 98.7212C84.0003 98.9413 84.1141 99.1449 84.2408 99.2875C84.3683 99.4309 84.4965 99.4996 84.627 99.4841C84.7846 99.4654 84.8977 99.4206 84.9794 99.3597C85.0606 99.2992 85.1156 99.2193 85.1518 99.1219C85.226 98.9223 85.2188 98.6558 85.1891 98.3561C85.1628 98.0904 85.0758 97.6954 84.9801 97.3118C84.8987 96.9855 84.8124 96.6732 84.7537 96.4605C84.73 96.3745 84.7107 96.3048 84.6981 96.2571C84.6591 96.1095 84.6113 95.8462 84.5641 95.5863L84.5586 95.5562C84.5089 95.2827 84.4604 95.0187 84.4222 94.884C84.4071 94.8305 84.3774 94.742 84.3402 94.6314C84.3307 94.6029 84.3206 94.573 84.3102 94.5418C84.2599 94.3913 84.2021 94.2149 84.1534 94.0451C84.1051 93.8762 84.0646 93.7095 84.0506 93.5793C84.0437 93.515 84.0424 93.453 84.0533 93.4021C84.0639 93.3523 84.0922 93.2904 84.1616 93.2713C84.2163 93.2562 84.2667 93.2718 84.3073 93.2988C84.3461 93.3248 84.3797 93.3635 84.409 93.4059C84.4678 93.4911 84.523 93.6116 84.574 93.7422C84.6399 93.9111 84.7038 94.1103 84.7615 94.2902C84.7927 94.3874 84.822 94.479 84.8489 94.557C85.0086 95.0206 85.2858 96.2206 85.3646 96.5986C85.4032 96.7839 85.5252 97.203 85.6541 97.6433L85.6693 97.6953C85.7925 98.1161 85.9183 98.5461 85.9758 98.7877C85.9886 98.8416 86.0043 98.9175 86.0234 99.0101C86.0953 99.3586 86.216 99.9433 86.4168 100.481C86.5438 100.822 86.7001 101.135 86.8906 101.353C87.0799 101.57 87.2954 101.686 87.547 101.655C87.8029 101.624 87.9556 101.487 88.0444 101.284C88.1359 101.075 88.1594 100.794 88.1411 100.484C88.1095 99.9468 87.9544 99.3565 87.8554 98.9797C87.8407 98.9235 87.8271 98.872 87.8155 98.8261C87.7255 98.4731 87.6757 98.1507 87.6239 97.7945C87.6192 97.7619 87.6144 97.7291 87.6096 97.6959C87.5618 97.3656 87.5091 97.0014 87.4199 96.551C87.3219 96.0564 87.1204 95.2921 86.9355 94.6349C86.8431 94.3066 86.7551 94.0058 86.6865 93.7798C86.6522 93.6668 86.6229 93.5727 86.6003 93.5034C86.589 93.4687 86.5796 93.4406 86.5721 93.4195C86.5684 93.409 86.5653 93.4005 86.5628 93.3941C86.5615 93.3909 86.5605 93.3884 86.5597 93.3865C86.5589 93.3845 86.5585 93.3838 86.5585 93.3838C86.5327 93.3316 86.5339 93.2771 86.5561 93.2305C86.5771 93.1865 86.614 93.1546 86.653 93.1349C86.7288 93.0967 86.842 93.0918 86.9217 93.1723C86.9424 93.1932 86.9603 93.2221 86.976 93.2516C86.9844 93.2674 86.993 93.2849 87.0017 93.3039C87.0099 93.3219 87.0183 93.3414 87.0269 93.3619C87.0618 93.4463 87.1007 93.5547 87.1428 93.6783C87.1686 93.7542 87.1958 93.8364 87.2242 93.923C87.2421 93.9776 87.2605 94.034 87.2793 94.0917C87.3281 94.2408 87.3797 94.3985 87.4338 94.5573C87.5439 94.8807 87.762 95.7719 87.9613 96.6165C88.0745 97.0963 88.1819 97.5621 88.261 97.905C88.3217 98.1684 88.3657 98.3593 88.3828 98.4284C88.4231 98.5908 88.4877 98.9428 88.554 99.3047C88.6208 99.6692 88.6895 100.046 88.7384 100.263C88.8353 100.693 89.0693 101.244 89.1443 101.376C89.2182 101.507 89.4539 101.854 89.9637 101.854C90.0886 101.854 90.1876 101.824 90.2672 101.771C90.3472 101.717 90.4128 101.637 90.4649 101.528C90.5703 101.308 90.6148 100.985 90.6148 100.579C90.6148 100.179 90.5422 99.7224 90.4536 99.2803C90.4146 99.0855 90.372 98.8916 90.3316 98.7074C90.2814 98.4787 90.2344 98.2651 90.2017 98.0835C90.1462 97.7751 90.1207 97.5403 90.0957 97.3091L90.0899 97.2562C90.0629 97.0081 90.0336 96.7568 89.9652 96.4116C89.8968 96.0661 89.7151 95.3668 89.5372 94.6985C89.4825 94.4928 89.4281 94.29 89.3776 94.1018C89.2648 93.681 89.1714 93.3329 89.1371 93.1873C89.0893 92.9845 89.0123 92.7801 88.9419 92.6182C88.8708 92.4549 88.8089 92.3406 88.7931 92.3166C88.7617 92.2692 88.7733 92.2149 88.7849 92.1839C88.7982 92.1485 88.8217 92.114 88.8512 92.088C88.8798 92.0627 88.9235 92.0376 88.9759 92.0417C89.0329 92.0463 89.0764 92.083 89.1048 92.1333C89.148 92.2096 89.2044 92.3453 89.2928 92.5859C89.382 92.8283 89.5055 93.1827 89.6831 93.7006C89.7799 93.983 89.8854 94.3122 89.9892 94.6465C90.1569 95.1868 90.3194 95.7375 90.435 96.1291C90.5119 96.3898 90.568 96.58 90.591 96.6496C90.6203 96.7384 90.6627 96.9456 90.7063 97.1779C90.7482 97.4011 90.7927 97.6544 90.8297 97.8644C90.8672 98.0767 90.8964 98.2402 90.9084 98.289C90.91 98.2951 90.9118 98.3029 90.914 98.312C90.9409 98.4244 91.0195 98.7534 91.1916 99.0609C91.3783 99.3944 91.662 99.681 92.0914 99.6629C92.3063 99.6539 92.4458 99.5707 92.5396 99.4495C92.6361 99.3247 92.6894 99.1528 92.7144 98.9603C92.7526 98.6669 92.7234 98.3528 92.7022 98.1251C92.6953 98.051 92.6893 97.9859 92.6867 97.9338C92.6673 97.5423 92.4715 96.4336 92.3131 95.5941C92.1557 94.7598 91.8405 93.4271 91.6629 92.7101C91.6425 92.6277 91.6185 92.53 91.5916 92.4205C91.3834 91.5727 91.0007 90.0149 90.7576 89.3313C90.5378 88.7131 90.1022 87.7103 89.9115 87.2854C89.9005 87.2608 89.9026 87.2321 89.9171 87.2094C89.9316 87.1866 89.9566 87.1729 89.9834 87.1729C90.1381 87.1729 90.3676 87.2432 90.5826 87.3305C90.8003 87.4189 91.0183 87.5311 91.153 87.6253C91.2752 87.7107 91.3649 87.8216 91.4606 87.9402C91.4742 87.9571 91.488 87.9741 91.502 87.9912C91.6159 88.1307 91.7544 88.2897 91.9842 88.4637C92.2096 88.6344 92.5283 88.7697 92.8662 88.8326C93.2042 88.8955 93.5536 88.8846 93.842 88.7719C94.1169 88.6644 94.234 88.4531 94.2582 88.2395C94.2832 88.0192 94.2086 87.8062 94.1106 87.7073C93.9962 87.5917 93.8568 87.48 93.7208 87.3726L93.6903 87.3486C93.567 87.2514 93.4469 87.1567 93.3609 87.0699C93.2601 86.9681 93.2256 86.8806 93.1945 86.7942L93.19 86.7816C93.1623 86.7043 93.1346 86.6271 93.0576 86.5235C92.8857 86.2922 92.5364 85.9584 92.263 85.7415C92.131 85.6368 91.9199 85.5153 91.6996 85.3954C91.6353 85.3604 91.5702 85.3255 91.5065 85.2914C91.3555 85.2105 91.2125 85.1338 91.107 85.0699C90.9497 84.9746 90.8153 84.8435 90.6897 84.7168C90.6772 84.7041 90.6648 84.6915 90.6524 84.679C90.5386 84.5637 90.431 84.4547 90.3124 84.3692C90.0409 84.1734 89.3555 83.758 88.6508 83.4616L88.6506 83.4615C88.445 83.3744 88.0024 83.1919 87.8495 83.1456C87.7491 83.1152 87.4411 83.0149 87.1351 82.8918C86.9822 82.8303 86.8282 82.7625 86.7004 82.6943C86.6365 82.6603 86.578 82.6254 86.5289 82.5906C86.4807 82.5564 86.4375 82.5193 86.4081 82.4797C86.3978 82.4659 86.3863 82.446 86.374 82.4222C86.3666 82.4081 86.3589 82.3925 86.351 82.376C86.3289 82.3297 86.302 82.2695 86.2711 82.1972C86.2092 82.0525 86.1301 81.8572 86.0384 81.6236C85.855 81.1563 85.6204 80.5338 85.3712 79.8524C84.8728 78.49 84.3148 76.8897 83.9886 75.8219C83.6899 74.8442 83.4329 73.4927 83.1356 71.9293C83.1072 71.78 83.0785 71.6288 83.0493 71.4759C82.7139 69.718 82.3198 67.7188 81.7583 65.6804C80.7286 61.9416 79.7829 60.1796 78.9637 58.6536C78.8901 58.5164 78.8175 58.3811 78.7459 58.2465C78.55 57.8779 78.3798 57.5757 78.2298 57.3093C77.718 56.4009 77.4411 55.9092 77.1794 54.6193C77.0129 53.7984 76.6594 52.7024 76.2967 51.6438C76.1816 51.308 76.0656 50.9758 75.9545 50.6576C75.7164 49.9759 75.5008 49.3588 75.3659 48.9093C75.2106 48.3919 74.8261 47.5915 74.405 46.7963C73.9849 46.003 73.5318 45.2215 73.2431 44.7445C73.2365 44.7335 73.2326 44.7211 73.2317 44.7083C73.1987 44.2154 73.1329 42.8803 73.1329 41.4758C73.1329 39.7234 72.9739 36.3594 71.2919 33.8714C70.5045 32.7067 69.8614 32.021 69.1721 31.5262C68.4815 31.0303 67.7406 30.7229 66.7478 30.3194C66.6027 30.2604 66.4522 30.1993 66.2959 30.1354C65.1594 29.6705 64.3916 29.5323 63.6276 29.4132C63.5706 29.4043 63.5136 29.3955 63.4565 29.3868C62.745 29.2772 62.0113 29.1642 60.9723 28.8022C58.7396 28.0242 56.8601 27.1657 55.7691 26.5249C55.2263 26.206 54.6996 25.8801 54.3031 25.573C54.1049 25.4195 53.9366 25.2686 53.8146 25.1237C53.694 24.9804 53.611 24.834 53.5991 24.6897C53.5883 24.5586 53.5834 24.1382 53.5819 23.5877C53.5789 22.4761 53.5901 20.8131 53.5989 19.8417C53.599 19.8241 53.605 19.807 53.6158 19.7932C53.7002 19.6849 53.7729 19.5215 53.835 19.3227C53.8967 19.1252 53.946 18.8992 53.9865 18.6706C54.027 18.4421 54.0585 18.2127 54.0848 18.0085C54.0916 17.9555 54.0981 17.9041 54.1044 17.8547C54.122 17.7151 54.1376 17.5923 54.1523 17.4992C54.1856 17.2889 54.2011 17.0934 54.2127 16.9467C54.2146 16.9223 54.2164 16.8992 54.2182 16.8777C54.2241 16.8065 54.23 16.7423 54.2403 16.7057C54.2429 16.6964 54.2478 16.6813 54.2573 16.6672C54.2666 16.6536 54.2954 16.6209 54.3434 16.6293C54.3792 16.6357 54.398 16.6623 54.4029 16.6692C54.4107 16.6804 54.4166 16.6928 54.4212 16.7035C54.4238 16.7098 54.4265 16.7161 54.4291 16.7224C54.4575 16.7901 54.4874 16.8614 54.5541 16.9268C54.6254 16.9967 54.7461 17.0658 54.9701 17.0941C55.0519 17.1044 55.1396 17.0634 55.2378 16.9599C55.3353 16.8572 55.4305 16.7056 55.5246 16.528C55.6104 16.3659 55.6928 16.1871 55.7739 16.0111L55.7961 15.963C55.8837 15.7731 55.9703 15.5879 56.0564 15.4396C56.2173 15.1625 56.3583 14.7001 56.464 14.1839C56.5692 13.6699 56.6377 13.1115 56.6573 12.6479C56.6662 12.4369 56.6513 12.2594 56.619 12.1105C56.5654 11.8637 56.4638 11.6952 56.341 11.5813C56.2177 11.4671 56.0684 11.4036 55.913 11.3751C55.7769 11.3501 55.6473 11.4184 55.5324 11.5355C55.4184 11.6516 55.3327 11.8027 55.2895 11.9055C55.2743 11.9416 55.2353 11.9612 55.1975 11.9516C55.1598 11.942 55.1346 11.9061 55.1382 11.867C55.2005 11.1883 55.2694 10.0921 55.2735 9.01102C55.2777 7.92627 55.2163 6.86919 55.0233 6.26126C54.7799 5.49481 54.0993 4.07219 52.868 2.8424C51.6382 1.61422 49.8607 0.57959 47.4189 0.57959C44.977 0.57959 43.2005 1.61421 41.9718 2.84238ZM58.8626 180.186C58.8627 180.186 58.8628 180.187 58.8628 180.187C58.8618 180.185 58.8619 180.184 58.8626 180.186Z" fill="#FAF6F1"/>
<path d="M45.5069 12.0937C45.7634 12.0937 45.7436 11.8746 45.6252 11.7949C45.571 11.7584 45.3013 11.4726 44.8012 11.3526C44.6587 11.3184 44.5046 11.2969 44.3427 11.2969C44.1817 11.2969 44.0291 11.3251 43.8889 11.3699C43.5205 11.4877 43.1201 11.8395 43.001 11.9742C43.1457 12.1402 43.5258 12.4722 44.2046 12.4722C45.053 12.4722 45.1708 12.0937 45.5069 12.0937Z" fill="#E6F7F9"/>
<path d="M49.3347 12.0937C49.0782 12.0937 49.098 11.8746 49.2163 11.7949C49.2706 11.7584 49.5403 11.4726 50.0403 11.3526C50.1828 11.3184 50.337 11.2969 50.4989 11.2969C50.6599 11.2969 50.8125 11.3251 50.9527 11.3699C51.3211 11.4877 51.7215 11.8395 51.8406 11.9742C51.6959 12.1402 51.3158 12.4722 50.637 12.4722C49.7886 12.4722 49.6707 12.0937 49.3347 12.0937Z" fill="#E6F7F9"/>
<path d="M46.6318 69.9618C46.6318 70.1809 46.8489 70.4797 47.4211 70.4797C47.9933 70.4797 48.2103 70.1809 48.2103 69.9618C48.2103 69.7427 48.013 69.4438 47.4211 69.4438C46.8291 69.4438 46.6318 69.7427 46.6318 69.9618Z" fill="#E6F7F9"/>
<path d="M37.5552 45.4798C37.9317 45.7966 37.713 46.1918 37.3776 46.3961C37.0422 46.6005 36.47 46.6352 36.1345 46.3961C35.7884 46.1495 35.8344 45.8331 36.0753 45.5595C36.391 45.2009 37.0816 45.0814 37.5552 45.4798Z" fill="#E6F7F9"/>
<path d="M57.2865 45.4798C56.91 45.7966 57.1287 46.1918 57.4641 46.3961C57.7995 46.6005 58.3717 46.6352 58.7072 46.3961C59.0533 46.1495 59.0073 45.8331 58.7664 45.5595C58.4507 45.2009 57.7601 45.0814 57.2865 45.4798Z" fill="#E6F7F9"/>
<path d="M4.85858 87.2526C4.58234 87.2526 3.9904 87.5116 3.7339 87.6909C3.47739 87.8702 3.37873 88.169 2.90518 88.5275C2.43163 88.8861 1.58318 89.0853 0.971506 88.8463C0.359835 88.6072 0.438761 87.8901 0.675536 87.651C0.912312 87.412 1.24775 87.1929 1.42533 87.0136C1.60291 86.8343 1.54372 86.7148 1.7213 86.4758C1.89888 86.2367 2.25404 85.8981 2.53028 85.6789C2.80652 85.4598 3.39846 85.1809 3.69443 85.0017C3.9904 84.8224 4.20744 84.5036 4.48368 84.3044C4.75992 84.1052 5.45052 83.6869 6.16085 83.3881C6.36474 83.3018 6.81198 83.1172 6.96983 83.0694C7.16715 83.0096 8.19318 82.671 8.37076 82.4319C8.54834 82.1929 10.1268 77.93 10.778 75.7985C11.4291 73.667 11.8829 69.7428 13.0076 65.6591C14.1323 61.5755 15.1583 59.8424 16.0265 58.2089C16.8947 56.5755 17.2499 56.2567 17.5853 54.6034C17.9207 52.95 19.0059 50.201 19.4006 48.8863C19.7163 47.8345 20.9528 45.6592 21.5316 44.703C21.5644 44.2116 21.6302 42.8783 21.6302 41.4759C21.6302 39.723 21.7881 36.3365 23.485 33.8266C25.0661 31.4879 26.0819 31.0516 28.0647 30.2456M4.85858 87.2526C5.07957 87.2526 5.20059 87.2792 5.23348 87.2925C5.99121 87.5647 7.79039 87.9459 8.92528 87.2925C10.0602 86.6391 10.5544 86.2766 10.6596 86.1769M4.85858 87.2526C4.66785 87.6776 4.23113 88.6829 4.01013 89.3044C3.7339 90.0813 3.28007 91.9737 3.10249 92.6909C2.92491 93.408 2.60921 94.7427 2.45136 95.5793C2.29351 96.416 2.0962 97.5315 2.07646 97.9299C2.05673 98.3283 1.80023 99.7028 2.74733 99.7426C3.69443 99.7825 3.97067 98.4677 4.01013 98.3084C4.03598 98.204 4.12956 97.6381 4.21323 97.1928M29.6641 51.2767C30.1573 52.8105 31.3972 55.7388 31.7129 57.0137C32.0286 58.2886 32.1075 58.3683 32.4232 59.0456L32.4507 59.1045C32.7571 59.7611 33.0569 60.4039 33.1336 61.197C33.15 61.3672 33.1785 61.5825 33.2132 61.8344M29.6641 51.2767C28.865 54.1371 27.5001 56.7047 25.7146 59.7627C25.5962 60.4666 25.2568 62.4081 24.8464 64.5436C24.3334 67.2129 22.4392 71.6949 19.44 75.679C16.4409 79.663 15.4543 81.8543 15.1781 82.4319C14.9018 83.0096 14.5664 83.9658 14.2704 84.6829C13.9745 85.4001 14.0534 85.8184 14.1915 86.7945C14.3296 87.7706 13.9547 88.9658 13.7771 90.0216C13.688 90.5517 13.5391 91.2025 13.3854 91.7745C13.2332 92.3416 13.0762 92.8313 12.9682 93.0494C12.7511 93.4877 12.2973 94.7227 12.2381 95.0016C12.1789 95.2805 11.4883 97.4319 11.3897 97.6908C11.291 97.9498 10.8766 99.643 10.2058 99.5633C9.53491 99.4837 9.51518 98.9458 9.57437 98.3482C9.60133 98.0761 9.68966 97.6759 9.78534 97.2924M29.6641 51.2767C30.2964 49.0131 30.5745 46.5661 30.4263 43.5476M47.4191 0.5C42.4862 0.5 40.2369 4.68325 39.7436 6.23703C39.3489 7.48005 39.5002 10.5132 39.6252 11.8745C39.5331 11.6553 39.2621 11.233 38.9149 11.2968C38.5811 11.358 38.2591 11.5723 38.1459 12.0936M31.4979 179.802C31.4782 179.882 31.3006 179.942 30.9849 179.942C30.6692 179.942 30.4916 179.523 30.4916 179.324C30.4916 179.125 30.3732 179.264 30.2548 178.886C30.1365 178.507 30.097 177.412 30.7481 176.316C31.231 175.504 31.9742 174.987 32.4388 174.636M32.6818 180.101C32.6029 180.36 32.2477 180.44 31.8334 180.38C31.5019 180.332 31.4716 179.683 31.4979 179.364C31.4848 179.191 31.5177 178.774 31.7544 178.487M34.0001 180.101C33.9364 180.379 33.7554 180.659 33.3329 180.659C32.7015 180.659 32.6358 180.008 32.6818 179.683C32.695 179.43 32.7607 178.882 32.9186 178.706M34.0001 180.101C34.0316 179.963 34.0344 179.826 34.0235 179.722C34.0301 179.41 34.0669 178.77 34.1616 178.706M34.0001 180.101C33.9684 180.453 34.1143 181.157 34.9509 181.157C35.9967 181.157 35.8388 180.181 35.9177 180.141C35.9967 180.101 36.1742 180.101 36.2137 180.141M36.2137 180.141C36.2532 180.181 36.1348 180.718 36.3913 180.977C36.6478 181.236 37.0227 181.455 37.8317 181.416C39.864 181.316 40.2586 179.005 40.3178 178.806C40.377 178.607 40.7914 177.85 40.2784 176.934C40.0929 176.602 39.9538 176.378 39.864 176.195M36.2137 180.141C36.1874 179.749 36.2137 178.902 36.5294 178.647M46.8489 96.521V98.6072C46.8686 102.711 45.9413 106.794 45.5466 108.747C45.4277 109.335 45.237 110.184 45.0265 111.117M46.8489 96.521V96.5062M46.8489 96.521C47.0281 96.5435 47.2186 96.5554 47.4211 96.5554C47.6236 96.5554 47.8141 96.5435 47.9933 96.521M32.7825 35.6592C31.9728 36.5556 30.3535 38.6194 30.3535 39.703C30.3535 41.0576 30.0959 44.9819 31.419 46.5954C33.5677 49.2158 35.7402 49.703 38.1671 49.703C41.3594 49.703 41.699 49.5835 42.6461 49.3843M38.7788 64.5436C38.7985 63.1292 38.5815 59.7627 39.1931 58.6273C39.8048 57.4918 42.2515 54.6034 47.4211 54.6034C52.5907 54.6034 55.0374 57.4918 55.6491 58.6273C56.2607 59.7627 56.0437 63.1292 56.0634 64.5436M33.2132 61.8344C33.3451 62.7912 33.5677 64.2774 33.5677 65.8384C33.5677 67.8105 32.8376 69.5037 32.8771 71.3563C32.8898 71.9529 32.9066 72.4401 32.9235 72.8503M33.2132 61.8344C33.3715 62.598 34.1972 64.6073 36.2334 66.5356M32.9235 72.8503C32.9592 73.7139 32.9955 74.2366 32.9955 74.7228C32.9955 75.4399 32.2062 76.7945 31.851 79.5435C31.5798 81.6433 31.32 82.6389 31.1597 83.7467M32.9235 72.8503C32.9734 73.9658 35.1509 74.4041 36.2334 74.4838M28.0647 30.2456C28.2099 30.1865 28.3603 30.1255 28.5164 30.0616C30.8053 29.1254 31.6143 29.5039 33.8439 28.727C36.0735 27.9501 37.948 27.0935 39.0332 26.4561C40.1185 25.8186 41.1248 25.1613 41.1642 24.6832C41.1747 24.5562 41.1797 24.14 41.1812 23.5876M28.0647 30.2456C30.097 29.5438 32.6226 29.8425 35.4442 30.5596M40.377 31.4561C41.2912 31.4826 43.3446 31.5875 44.2444 31.7947C45.369 32.0537 45.5861 31.9341 44.6587 30.5596C44.3101 30.0218 43.5735 28.8146 43.4156 28.2887M41.1812 23.5876C41.1841 22.4764 41.173 20.8138 41.1642 19.8426M41.1812 23.5876C41.2025 25.0351 41.1584 28.0895 40.8111 28.727M18.9291 60.2607C19.0869 60.865 19.375 62.1571 19.2645 62.4918M19.2645 62.4918L19.0277 63.2089M19.2645 62.4918C20.038 62.3165 21.0995 61.7946 21.5336 61.5555M31.1597 83.7467C31.1101 84.0892 31.07 84.4424 31.0421 84.8423C30.5889 87.671 29.6747 94.1929 29.6432 97.651C29.6037 101.974 29.9589 107.153 29.9983 108.806C30.0378 110.46 30.2548 112.751 30.8073 114.822C30.8598 115.019 30.9164 115.219 30.9759 115.42M31.1597 83.7467C31.424 82.2327 32.7607 79.0057 33.6881 78.8065M30.9759 115.42C31.5423 117.337 32.3698 119.41 32.4056 120.798C32.445 122.332 31.9123 122.671 31.8728 125.041C31.8334 127.412 31.9715 129.842 32.0109 130.48C32.0504 131.117 30.4719 138.487 30.7284 141.874C30.9849 145.26 32.0307 151.615 32.4845 154.543C32.9383 157.471 33.8854 162.691 33.6881 165.26C33.4908 167.83 33.4119 167.989 33.4119 168.567C33.4119 169.145 33.6881 170.021 33.6881 170.778C33.6881 171.535 33.7868 172.093 33.6881 172.312C33.5894 172.531 33.3527 172.75 33.1751 173.189C32.9975 173.627 33.0764 173.985 32.8002 174.324C32.7288 174.412 32.6007 174.514 32.4388 174.636M30.9759 115.42C31.6558 117.561 33.254 120.041 34.7141 121.436M45.0265 111.117L44.9785 111.33C44.5005 113.447 43.9425 115.92 43.8892 116.755C43.8323 117.645 43.5294 119.735 43.2982 121.057M45.0265 111.117C45.447 105.731 44.4435 101.17 43.8892 99.5633M43.2982 121.057C43.2086 121.569 43.1298 121.966 43.0802 122.133C42.9026 122.731 43.0013 126.217 42.804 127.77C42.6067 129.324 41.699 130.918 41.2255 133.448C40.7519 135.978 42.0147 139.424 42.2318 142.133C42.4488 144.842 42.508 147.91 41.3439 151.535C40.1797 155.161 39.5286 160.519 39.4891 162.83C39.4496 165.141 40.4362 167.232 40.4954 168.308C40.5546 169.384 40.3967 171.236 40.377 171.714C40.3573 172.193 40.5743 172.312 40.5743 173.129C40.5743 173.946 40.1205 174.603 39.864 175.26C39.7466 175.561 39.716 175.745 39.7666 175.944M43.2982 121.057C43.1019 122.026 42.3705 123.29 41.2255 123.819M36.6083 120.619C38.2066 123.607 39.647 124.304 40.8308 123.966C40.9673 123.927 41.0989 123.877 41.2255 123.819M41.2255 123.819C41.3702 124.167 41.6556 125.077 41.6398 125.938M33.2145 125.041C32.9843 126.595 32.6976 130.009 33.3921 131.237C34.2603 132.77 36.707 132.95 38.0487 132.093M33.2145 132.531C33.8657 133.381 35.1679 136.229 35.1679 140.818C35.1679 145.408 35.431 150.924 35.5626 153.109M39.4891 167.352C39.2129 167.91 38.9958 169.165 39.4891 169.981M39.864 176.195C39.8191 176.104 39.7865 176.023 39.7666 175.944M39.864 176.195C39.8282 176.113 39.7958 176.03 39.7666 175.944M39.7666 175.944C39.4904 175.138 39.5023 174.2 39.6272 173.587M36.4702 46.0377C36.5294 46.1173 36.8056 46.2966 37.1213 46.0974M45.7439 15.3605C45.665 15.5796 45.369 16.0378 45.961 16.3167M46.257 16.0577C46.4082 16.0046 46.7305 15.978 46.9673 16.2171M47.1449 16.496C47.2238 16.5438 47.3619 16.5557 47.4211 16.5557C47.4803 16.5557 47.6184 16.5438 47.6973 16.496M44.6982 18.7868C45.4677 18.7071 45.8623 18.5677 46.3753 18.5079C46.8884 18.4481 47.1251 18.6274 47.2041 18.6274H47.6381C47.7171 18.6274 47.9538 18.4481 48.4669 18.5079C48.9799 18.5677 49.3745 18.7071 50.144 18.7868M45.4677 18.2888C45.665 18.2091 46.3161 17.6513 46.7897 17.6912C47.2633 17.731 47.2633 17.7708 47.4211 17.7708C47.579 17.7708 47.579 17.731 48.0525 17.6912C48.5261 17.6513 49.1772 18.2091 49.3745 18.2888M46.1978 19.4043C46.5727 19.5039 47.1449 19.5039 47.4211 19.5039C47.6973 19.5039 48.2695 19.5039 48.6444 19.4043M47.1449 20.3804H47.6973M39.7456 13.5677C39.7456 13.8864 39.4714 14.0059 39.5483 14.3246C39.6252 14.6434 40.0416 14.982 40.0416 15.1613M38.7788 13.9063C38.7393 13.6474 39.1142 13.3286 39.2523 13.1095C39.3193 13.0033 39.3492 12.9298 39.3621 12.8505M39.3707 12.5318C39.3707 12.6755 39.376 12.7663 39.3621 12.8505M39.3621 12.8505C39.4045 12.9767 39.4852 13.2808 39.4694 13.488M38.6407 14.5637C38.7393 14.8094 38.98 15.3565 39.1537 15.5796M38.1459 12.0936C38.1119 12.2503 38.0967 12.4349 38.1059 12.6513C38.1453 13.5876 38.3821 14.9023 38.7175 15.48C39.053 16.0577 39.4081 17.233 39.8817 17.1732C40.3552 17.1135 40.4342 16.8744 40.4934 16.735C40.5526 16.5956 40.5328 17.0139 40.6118 17.5119C40.6907 18.0099 40.7499 19.225 41.2826 20.0019C41.8154 20.7788 42.869 21.7842 43.9089 22.472C45.2112 23.3334 46.178 23.5876 47.4211 23.5876C48.6642 23.5876 49.631 23.3334 50.9333 22.472C51.9732 21.7842 53.0268 20.7788 53.5596 20.0019C54.0923 19.225 54.1515 18.0099 54.2305 17.5119C54.3094 17.0139 54.2896 16.5956 54.3488 16.735C54.408 16.8744 54.487 17.1135 54.9605 17.1732C55.4341 17.233 55.7892 16.0577 56.1247 15.48C56.4601 14.9023 56.6969 13.5876 56.7363 12.6513C56.7455 12.4349 56.7303 12.2503 56.6963 12.0936M38.1459 12.0936C38.5391 11.0776 39.1537 11.8346 39.2523 12.1334M10.6596 90.0216C10.1071 89.8423 9.0042 89.6232 7.52231 89.6829M4.21323 97.1928C4.25729 96.9584 4.29861 96.7574 4.32584 96.6749C4.38332 96.5008 4.65016 95.5658 4.92813 94.6704M4.21323 97.1928C4.01013 96.8741 3.7339 96.6749 2.90518 96.6749M4.92813 94.6704C5.03179 94.3365 5.137 94.0081 5.23348 93.7267C5.58864 92.6909 5.72676 92.3124 5.80569 92.1729C5.88461 92.0335 6.02273 92.2128 5.98327 92.2725C5.9438 92.3323 5.72676 92.7506 5.6281 93.169C5.52945 93.5873 4.93751 95.6988 4.79939 96.396C4.66127 97.0932 4.681 97.412 4.56261 98.0693C4.44422 98.7267 4.14825 99.7626 4.14825 100.579C4.14825 101.396 4.32584 101.934 4.87831 101.934C5.43079 101.934 5.6873 101.555 5.76622 101.416C5.84515 101.276 6.08192 100.719 6.18058 100.28C6.27924 99.8422 6.45682 98.7665 6.53574 98.4478C6.61467 98.1291 7.2658 95.2207 7.48285 94.5833C7.69989 93.9458 7.87747 93.3283 7.97613 93.2287C8.07479 93.1291 8.2721 93.2287 8.21291 93.3482C8.15371 93.4678 7.54204 95.5395 7.34473 96.5355C7.14742 97.5315 7.12768 98.1092 6.9501 98.8064C6.77252 99.5036 6.14112 101.595 7.28553 101.735C8.42995 101.874 8.82458 99.3044 8.94297 98.8064C9.06135 98.3084 9.47571 96.9936 9.55464 96.6152C9.63356 96.2367 9.9098 95.0415 10.0677 94.5833C10.2255 94.1251 10.4425 93.2885 10.6596 93.3482C10.8766 93.408 10.4228 94.5833 10.3439 94.8622C10.265 95.1411 10.1466 95.9379 10.0677 96.2367C10.0247 96.3994 9.89975 96.8339 9.78534 97.2924M4.92813 94.6704C4.85858 94.3642 3.65906 94.1052 3.38077 94.1052M4.44627 91.2168C5.45256 91.7745 6.19827 92.3124 6.9501 92.7307C7.70194 93.149 9.1641 93.4279 9.61587 93.3482C9.9773 93.2845 11.345 93.2686 11.9836 93.2287M4.79939 98.7267C5.06383 98.7267 5.68703 98.7785 6.06423 98.9857M5.35391 95.3801C5.66371 95.3535 6.36973 95.3801 6.71537 95.6988M7.34473 98.5673C7.61507 98.5341 8.24257 98.5195 8.58985 98.7267M7.97613 95.6988C8.1866 95.671 8.80879 95.7276 9.21921 95.8582M9.78534 97.2924C9.85265 97.0293 10.6596 96.914 11.1944 97.1928M10.6596 95.0813C10.7406 95.0813 11.1549 94.8622 11.7666 95.0813M11.6679 85.3602C11.2536 86.1371 11.4312 88.0694 11.9836 88.6869M32.4388 174.636C33.7103 173.782 36.1861 170.918 35.9177 166.296M31.4979 176.575C32.866 176.396 36.2058 176.244 38.6209 177.073M47.4211 52.1333V48.0098M89.9836 87.2526C90.2599 87.2526 90.8518 87.5116 91.1083 87.6909C91.3648 87.8702 91.4635 88.169 91.937 88.5275C92.4106 88.8861 93.259 89.0853 93.8707 88.8463C94.4824 88.6072 94.4034 87.8901 94.1667 87.651C93.9299 87.412 93.5945 87.1929 93.4169 87.0136C93.2393 86.8343 93.2985 86.7148 93.1209 86.4758C92.9433 86.2367 92.5882 85.8981 92.3119 85.6789C92.0357 85.4598 91.4437 85.1809 91.1478 85.0017C90.8518 84.8224 90.6348 84.5036 90.3585 84.3044C90.0823 84.1052 89.3917 83.6869 88.6814 83.3881C88.4775 83.3018 88.0302 83.1172 87.8724 83.0694C87.6751 83.0096 86.649 82.671 86.4714 82.4319C86.2939 82.1929 84.7154 77.93 84.0642 75.7985C83.4131 73.667 82.9593 69.7428 81.8346 65.6591C80.7099 61.5755 79.6839 59.8424 78.8157 58.2089C77.9475 56.5755 77.5923 56.2567 77.2569 54.6034C76.9215 52.95 75.8363 50.201 75.4416 48.8863C75.1259 47.8345 73.8894 45.6592 73.3106 44.703C73.2778 44.2116 73.212 42.8783 73.212 41.4759C73.212 39.723 73.0541 36.3365 71.3572 33.8266C69.7761 31.4879 68.7603 31.0516 66.7775 30.2456M89.9836 87.2526C89.7626 87.2526 89.6416 87.2792 89.6087 87.2925C88.851 87.5647 87.0518 87.9459 85.9169 87.2925C84.782 86.6391 84.2878 86.2766 84.1826 86.1769M89.9836 87.2526C90.1744 87.6776 90.6111 88.6829 90.8321 89.3044C91.1083 90.0813 91.5621 91.9737 91.7397 92.6909C91.9173 93.408 92.233 94.7427 92.3908 95.5793C92.5487 96.416 92.746 97.5315 92.7657 97.9299C92.7855 98.3283 93.042 99.7028 92.0949 99.7426C91.1478 99.7825 90.8715 98.4677 90.8321 98.3084C90.8062 98.204 90.7126 97.6381 90.629 97.1928M65.1782 51.2767C64.6849 52.8105 63.445 55.7388 63.1293 57.0137C62.8136 58.2886 62.7347 58.3683 62.419 59.0456L62.3915 59.1045C62.0851 59.7611 61.7853 60.4039 61.7086 61.197C61.6922 61.3672 61.6637 61.5825 61.629 61.8344M65.1782 51.2767C65.9772 54.1371 67.3421 56.7047 69.1276 59.7627C69.246 60.4666 69.5854 62.4081 69.9958 64.5436C70.5088 67.2129 72.403 71.6949 75.4022 75.679C78.4013 79.663 79.3879 81.8543 79.6641 82.4319C79.9404 83.0096 80.2758 83.9658 80.5718 84.6829C80.8677 85.4001 80.7888 85.8184 80.6507 86.7945C80.5126 87.7706 80.8875 88.9658 81.0651 90.0216C81.1542 90.5517 81.3031 91.2025 81.4568 91.7745C81.6091 92.3416 81.766 92.8313 81.874 93.0494C82.0911 93.4877 82.5449 94.7227 82.6041 95.0016C82.6633 95.2805 83.3539 97.4319 83.4526 97.6908C83.5512 97.9498 83.9656 99.643 84.6364 99.5633C85.3073 99.4837 85.327 98.9458 85.2678 98.3482C85.2409 98.0761 85.1525 97.6759 85.0569 97.2924M65.1782 51.2767C64.5458 49.0131 64.2677 46.5661 64.4159 43.5476M47.4231 0.5C52.356 0.5 54.6053 4.68325 55.0986 6.23703C55.4933 7.48005 55.342 10.5132 55.217 11.8745C55.3091 11.6553 55.5801 11.233 55.9273 11.2968C56.2611 11.358 56.5831 11.5723 56.6963 12.0936M63.3443 179.802C63.364 179.882 63.5416 179.942 63.8573 179.942C64.173 179.942 64.3506 179.523 64.3506 179.324C64.3506 179.125 64.469 179.264 64.5874 178.886C64.7057 178.507 64.7452 177.412 64.0941 176.316C63.6112 175.504 62.868 174.987 62.4034 174.636M62.1604 180.101C62.2393 180.36 62.5945 180.44 63.0089 180.38C63.3403 180.332 63.3706 179.683 63.3443 179.364C63.3574 179.191 63.3246 178.774 63.0878 178.487M60.8421 180.101C60.9058 180.379 61.0868 180.659 61.5093 180.659C62.1407 180.659 62.2064 180.008 62.1604 179.683C62.1473 179.43 62.0815 178.882 61.9236 178.706M60.8421 180.101C60.8106 179.963 60.8078 179.826 60.8187 179.722C60.8121 179.41 60.7753 178.77 60.6806 178.706M60.8421 180.101C60.8738 180.453 60.7279 181.157 59.8913 181.157C58.8455 181.157 59.0034 180.181 58.9245 180.141C58.8455 180.101 58.668 180.101 58.6285 180.141M58.6285 180.141C58.589 180.181 58.7074 180.718 58.4509 180.977C58.1944 181.236 57.8195 181.455 57.0105 181.416C54.9782 181.316 54.5836 179.005 54.5244 178.806C54.4652 178.607 54.0508 177.85 54.5638 176.934C54.7493 176.602 54.8884 176.378 54.9782 176.195M58.6285 180.141C58.6548 179.749 58.6285 178.902 58.3128 178.647M47.9933 96.521V98.6072C47.9736 102.711 48.901 106.794 49.2956 108.747C49.4145 109.335 49.6052 110.184 49.8157 111.117M47.9933 96.521V96.5062M62.0597 35.6592C62.8694 36.5556 64.4887 38.6194 64.4887 39.703C64.4887 41.0576 64.7463 44.9819 63.4232 46.5954C61.2745 49.2158 59.102 49.703 56.6751 49.703C53.4828 49.703 53.1432 49.5835 52.1961 49.3843M61.629 61.8344C61.4971 62.7912 61.2745 64.2774 61.2745 65.8384C61.2745 67.8105 62.0046 69.5037 61.9651 71.3563C61.9524 71.9529 61.9356 72.4401 61.9187 72.8503M61.629 61.8344C61.4707 62.598 60.645 64.6073 58.6088 66.5356M61.9187 72.8503C61.883 73.7139 61.8467 74.2366 61.8467 74.7228C61.8467 75.4399 62.636 76.7945 62.9912 79.5435C63.2624 81.6433 63.5222 82.6389 63.6826 83.7467M61.9187 72.8503C61.8688 73.9658 59.6913 74.4041 58.6088 74.4838M66.7775 30.2456C66.6323 30.1865 66.4819 30.1255 66.3258 30.0616C64.0369 29.1254 63.2279 29.5039 60.9983 28.727C58.7687 27.9501 56.8942 27.0935 55.809 26.4561C54.7237 25.8186 53.7174 25.1613 53.678 24.6832C53.6675 24.5562 53.6625 24.14 53.661 23.5876M66.7775 30.2456C64.7452 29.5438 62.2196 29.8425 59.398 30.5596M54.4652 31.4561C53.551 31.4826 51.4976 31.5875 50.5978 31.7947C49.4732 32.0537 49.2561 31.9341 50.1835 30.5596C50.5321 30.0218 51.2687 28.8146 51.4266 28.2887M53.661 23.5876C53.6581 22.4764 53.6692 20.8138 53.678 19.8426M53.661 23.5876C53.6397 25.0351 53.6838 28.0895 54.0311 28.727M75.9131 60.2607C75.7553 60.865 75.4672 62.1571 75.5777 62.4918M75.5777 62.4918L75.8145 63.2089M75.5777 62.4918C74.8042 62.3165 73.7427 61.7946 73.3086 61.5555M63.6826 83.7467C63.7321 84.0892 63.7722 84.4424 63.8001 84.8423C64.2533 87.671 65.1675 94.1929 65.199 97.651C65.2385 101.974 64.8833 107.153 64.8439 108.806C64.8044 110.46 64.5874 112.751 64.0349 114.822C63.9824 115.019 63.9258 115.219 63.8663 115.42M63.6826 83.7467C63.4182 82.2327 62.0815 79.0057 61.1541 78.8065M63.8663 115.42C63.2999 117.337 62.4724 119.41 62.4366 120.798C62.3972 122.332 62.9299 122.671 62.9694 125.041C63.0089 127.412 62.8707 129.842 62.8313 130.48C62.7918 131.117 64.3703 138.487 64.1138 141.874C63.8573 145.26 62.8115 151.615 62.3577 154.543C61.9039 157.471 60.9568 162.691 61.1541 165.26C61.3514 167.83 61.4303 167.989 61.4303 168.567C61.4303 169.145 61.1541 170.021 61.1541 170.778C61.1541 171.535 61.0555 172.093 61.1541 172.312C61.2528 172.531 61.4895 172.75 61.6671 173.189C61.8447 173.627 61.7658 173.985 62.042 174.324C62.1134 174.412 62.2415 174.514 62.4034 174.636M63.8663 115.42C63.1864 117.561 61.5882 120.041 60.1281 121.436M49.8157 111.117L49.8637 111.33C50.3417 113.447 50.8997 115.92 50.953 116.755C51.0099 117.645 51.3128 119.735 51.544 121.057M49.8157 111.117C49.3952 105.731 50.3987 101.17 50.953 99.5633M51.544 121.057C51.6336 121.569 51.7124 121.966 51.762 122.133C51.9396 122.731 51.8409 126.217 52.0382 127.77C52.2355 129.324 53.1432 130.918 53.6167 133.448C54.0903 135.978 52.8275 139.424 52.6104 142.133C52.3934 144.842 52.3342 147.91 53.4984 151.535C54.6625 155.161 55.3136 160.519 55.3531 162.83C55.3926 165.141 54.406 167.232 54.3468 168.308C54.2876 169.384 54.4455 171.236 54.4652 171.714C54.4849 172.193 54.2679 172.312 54.2679 173.129C54.2679 173.946 54.7217 174.603 54.9782 175.26C55.0956 175.561 55.1262 175.745 55.0756 175.944M51.544 121.057C51.7403 122.026 52.4717 123.29 53.6167 123.819M58.2339 120.619C56.6356 123.607 55.1952 124.304 54.0114 123.966C53.8749 123.927 53.7433 123.877 53.6167 123.819M53.6167 123.819C53.472 124.167 53.1866 125.077 53.2024 125.938M61.6277 125.041C61.8579 126.595 62.1446 130.009 61.4501 131.237C60.5819 132.77 58.1352 132.95 56.7935 132.093M61.6277 132.531C60.9765 133.381 59.6743 136.229 59.6743 140.818C59.6743 145.408 59.4112 150.924 59.2796 153.109M55.3531 167.352C55.6293 167.91 55.8464 169.165 55.3531 169.981M54.9782 176.195C55.0231 176.104 55.0557 176.023 55.0756 175.944M54.9782 176.195C55.014 176.113 55.0465 176.03 55.0756 175.944M55.0756 175.944C55.3518 175.138 55.3399 174.2 55.215 173.587M58.372 46.0377C58.3128 46.1173 58.0366 46.2966 57.7209 46.0974M49.0983 15.3605C49.1772 15.5796 49.4732 16.0378 48.8812 16.3167M48.5853 16.0577C48.434 16.0046 48.1117 15.978 47.8749 16.2171M55.0966 13.5677C55.0966 13.8864 55.3708 14.0059 55.2939 14.3246C55.217 14.6434 54.8006 14.982 54.8006 15.1613M56.0634 13.9063C56.1029 13.6474 55.728 13.3286 55.5899 13.1095C55.5229 13.0033 55.4931 12.9298 55.4801 12.8505M55.4715 12.5318C55.4715 12.6755 55.4663 12.7663 55.4801 12.8505M55.4801 12.8505C55.4377 12.9767 55.357 13.2808 55.3728 13.488M56.2015 14.5637C56.1029 14.8094 55.8622 15.3565 55.6885 15.5796M56.6963 12.0936C56.3031 11.0776 55.6885 11.8346 55.5899 12.1334M84.1826 90.0216C84.7351 89.8423 85.838 89.6232 87.3199 89.6829M90.629 97.1928C90.5849 96.9584 90.5436 96.7574 90.5164 96.6749C90.4589 96.5008 90.192 95.5658 89.9141 94.6704M90.629 97.1928C90.8321 96.8741 91.1083 96.6749 91.937 96.6749M89.9141 94.6704C89.8104 94.3365 89.7052 94.0081 89.6087 93.7267C89.2536 92.6909 89.1154 92.3124 89.0365 92.1729C88.9576 92.0335 88.8195 92.2128 88.8589 92.2725C88.8984 92.3323 89.1154 92.7506 89.2141 93.169C89.3128 93.5873 89.9047 95.6988 90.0428 96.396C90.1809 97.0932 90.1612 97.412 90.2796 98.0693C90.398 98.7267 90.694 99.7626 90.694 100.579C90.694 101.396 90.5164 101.934 89.9639 101.934C89.4114 101.934 89.1549 101.555 89.076 101.416C88.9971 101.276 88.7603 100.719 88.6616 100.28C88.563 99.8422 88.3854 98.7665 88.3065 98.4478C88.2275 98.1291 87.5764 95.2207 87.3594 94.5833C87.1423 93.9458 86.9647 93.3283 86.8661 93.2287C86.7674 93.1291 86.5701 93.2287 86.6293 93.3482C86.6885 93.4678 87.3002 95.5395 87.4975 96.5355C87.6948 97.5315 87.7145 98.1092 87.8921 98.8064C88.0697 99.5036 88.7011 101.595 87.5567 101.735C86.4123 101.874 86.0176 99.3044 85.8992 98.8064C85.7808 98.3084 85.3665 96.9936 85.2876 96.6152C85.2086 96.2367 84.9324 95.0415 84.7746 94.5833C84.6167 94.1251 84.3997 93.2885 84.1826 93.3482C83.9656 93.408 84.4194 94.5833 84.4983 94.8622C84.5772 95.1411 84.6956 95.9379 84.7746 96.2367C84.8175 96.3994 84.9425 96.8339 85.0569 97.2924M89.9141 94.6704C89.9836 94.3642 91.1831 94.1052 91.4614 94.1052M90.3959 91.2168C89.3896 91.7745 88.6439 92.3124 87.8921 92.7307C87.1403 93.149 85.6781 93.4279 85.2263 93.3482C84.8649 93.2845 83.4972 93.2686 82.8586 93.2287M90.0428 98.7267C89.7784 98.7267 89.1552 98.7785 88.778 98.9857M89.4883 95.3801C89.1785 95.3535 88.4725 95.3801 88.1268 95.6988M87.4975 98.5673C87.2271 98.5341 86.5996 98.5195 86.2524 98.7267M86.8661 95.6988C86.6556 95.671 86.0334 95.7276 85.623 95.8582M85.0569 97.2924C84.9896 97.0293 84.1826 96.914 83.6478 97.1928M84.1826 95.0813C84.1016 95.0813 83.6873 94.8622 83.0756 95.0813M83.1743 85.3602C83.5886 86.1371 83.411 88.0694 82.8586 88.6869M62.4034 174.636C61.132 173.782 58.6561 170.918 58.9245 166.296M63.3443 176.575C61.9762 176.396 58.6364 176.244 56.2213 177.073M37.3779 46.3962C37.7133 46.1919 37.932 45.7967 37.5554 45.4799C37.0819 45.0815 36.3913 45.201 36.0756 45.5596C35.8347 45.8332 35.7887 46.1496 36.1348 46.3962C36.4702 46.6353 37.0424 46.6006 37.3779 46.3962ZM47.4211 70.4798C46.8489 70.4798 46.6318 70.181 46.6318 69.9619C46.6318 69.7428 46.8292 69.4439 47.4211 69.4439C48.013 69.4439 48.2104 69.7428 48.2104 69.9619C48.2104 70.181 47.9933 70.4798 47.4211 70.4798ZM45.6256 11.8147C45.7439 11.8944 45.7637 12.1135 45.5072 12.1135C45.1712 12.1135 45.0533 12.492 44.2049 12.492C43.5261 12.492 43.146 12.16 43.0013 11.994C43.1204 11.8593 43.5208 11.5075 43.8892 11.3898C44.0294 11.3449 44.182 11.3167 44.343 11.3167C44.5049 11.3167 44.6591 11.3382 44.8016 11.3724C45.3016 11.4925 45.5713 11.7782 45.6256 11.8147ZM36.5294 180.38C36.7596 180.2 37.7409 179.973 38.8774 180.499L39.3707 179.603C37.9501 179.157 36.9372 179.344 36.7267 179.603L36.5294 180.38ZM34.3984 180.38C34.5431 180.287 35.0732 180.157 35.4836 180.38L35.5823 179.822C35.3637 179.742 34.7104 179.631 34.3984 179.822V180.38ZM32.984 180.001C33.1287 179.908 33.4378 179.922 33.5957 180.001L33.6684 179.722C33.4498 179.643 33.2343 179.603 32.958 179.722L32.984 180.001ZM31.7544 179.762C31.8991 179.669 32.2082 179.683 32.3661 179.762L32.4388 179.483C32.2202 179.404 32.0047 179.364 31.7285 179.483L31.7544 179.762ZM30.8371 179.603C30.9818 179.51 31.2611 179.444 31.419 179.523V179.264C31.2004 179.185 31.0873 179.204 30.8111 179.324L30.8371 179.603ZM57.4643 46.3962C57.1289 46.1919 56.9102 45.7967 57.2868 45.4799C57.7603 45.0815 58.4509 45.201 58.7666 45.5596C59.0075 45.8332 59.0535 46.1496 58.7074 46.3962C58.372 46.6353 57.7998 46.6006 57.4643 46.3962ZM49.2167 11.8147C49.0983 11.8944 49.0785 12.1135 49.335 12.1135C49.6711 12.1135 49.7889 12.492 50.6373 12.492C51.3161 12.492 51.6962 12.16 51.8409 11.994C51.7218 11.8593 51.3214 11.5075 50.953 11.3898C50.8128 11.3449 50.6602 11.3167 50.4992 11.3167C50.3373 11.3167 50.1832 11.3382 50.0406 11.3724C49.5406 11.4925 49.2709 11.7782 49.2167 11.8147ZM58.3128 180.38C58.0826 180.2 57.1013 179.973 55.9648 180.499L55.4715 179.603C56.8921 179.157 57.905 179.344 58.1155 179.603L58.3128 180.38ZM60.4438 180.38C60.2991 180.287 59.769 180.157 59.3586 180.38L59.2599 179.822C59.4785 179.742 60.1318 179.631 60.4438 179.822V180.38ZM61.8582 180.001C61.7135 179.908 61.4044 179.922 61.2465 180.001L61.1738 179.722C61.3924 179.643 61.6079 179.603 61.8842 179.722L61.8582 180.001ZM63.0878 179.762C62.9431 179.669 62.634 179.683 62.4761 179.762L62.4034 179.483C62.622 179.404 62.8375 179.364 63.1137 179.483L63.0878 179.762ZM64.0051 179.603C63.8604 179.51 63.5811 179.444 63.4232 179.523V179.264C63.6418 179.185 63.7549 179.204 64.0311 179.324L64.0051 179.603Z" stroke="#F4C5AF" stroke-linecap="round" stroke-linejoin="round"/>
</svg>
