<svg width="24" height="24" viewBox="0 0 24 24" fill="none" xmlns="http://www.w3.org/2000/svg">
<path fill-rule="evenodd" clip-rule="evenodd" d="M8.32443 4.66309L8.35193 4.54309C8.40443 4.32009 8.49043 3.99209 8.66793 3.66909C8.84893 3.34009 9.12943 3.00659 9.56943 2.78709C10.0079 2.56859 10.5574 2.48709 11.2369 2.57709C11.9869 2.67709 13.4934 2.92509 14.8244 3.60209C16.1629 4.28309 17.4169 5.45459 17.4169 7.40559C17.4169 8.41359 17.0269 9.49509 16.6489 10.2001C16.4674 10.5391 16.2519 10.8631 16.0359 11.0376C15.9864 11.0776 15.9159 11.1276 15.8284 11.1626C15.5884 11.9514 15.1106 12.6468 14.4604 13.1537C13.8102 13.6607 13.0193 13.9544 12.1958 13.9948C11.3723 14.0352 10.5564 13.8202 9.85969 13.3793C9.16299 12.9384 8.61947 12.2931 8.30343 11.5316L8.29143 11.5336L8.11393 11.3181L8.11343 11.3171L8.11243 11.3161L8.10993 11.3126L8.10143 11.3026C8.05868 11.2493 8.01749 11.1948 7.97793 11.1391C7.87021 10.9892 7.76847 10.835 7.67293 10.6771C7.43793 10.2881 7.15443 9.73409 6.97293 9.08759C6.79193 8.44109 6.70893 7.68309 6.89893 6.90109C7.08393 6.14009 7.52043 5.39109 8.31093 4.72209L8.32443 4.66309ZM9.16443 10.9821C9.38129 11.6057 9.79771 12.1404 10.3492 12.5034C10.9007 12.8664 11.5565 13.0374 12.2151 12.99C12.8736 12.9426 13.4981 12.6793 13.9919 12.241C14.4857 11.8027 14.8212 11.2138 14.9464 10.5656L15.0029 10.5846C15.0007 10.5563 14.9997 10.528 14.9999 10.4996C14.9999 9.67209 14.8849 9.09459 14.7779 8.73459C14.7569 8.66455 14.7338 8.59518 14.7084 8.52659L14.6879 8.52759H14.6679C14.2941 8.53561 13.9203 8.50714 13.5519 8.44259C12.6934 8.29759 11.5309 7.93559 10.1619 7.09709C10.1319 7.16409 10.1019 7.23959 10.0719 7.32359C9.97393 7.60109 9.89343 7.93059 9.82393 8.27859C9.76243 8.58509 9.71193 8.89359 9.66393 9.18259L9.64543 9.29659C9.59393 9.60659 9.54243 9.91109 9.48243 10.1316C9.37743 10.5146 9.27043 10.7866 9.16443 10.9816M8.46443 10.0501C8.23883 9.66233 8.06151 9.24842 7.93643 8.81759C7.78693 8.28459 7.73193 7.70759 7.87093 7.13709C8.00593 6.58209 8.33243 5.99859 9.00393 5.44559C9.12493 5.36359 9.17993 5.25359 9.19493 5.22409V5.22359C9.22095 5.16943 9.24204 5.11303 9.25793 5.05509C9.27393 4.99809 9.29143 4.92009 9.30793 4.85009L9.32543 4.77159C9.37293 4.57009 9.43443 4.35059 9.54443 4.15009C9.65143 3.95609 9.79793 3.79009 10.0159 3.68159C10.2349 3.57209 10.5739 3.49709 11.1049 3.56809C11.8314 3.66459 13.1979 3.89609 14.3709 4.49309C15.5359 5.08559 16.4169 5.98259 16.4169 7.40509C16.4169 8.06009 16.1969 8.80509 15.9319 9.39259C15.8819 9.00959 15.8099 8.69659 15.7359 8.44859C15.6838 8.27152 15.6195 8.09827 15.5434 7.93009C15.5143 7.86798 15.4826 7.80709 15.4484 7.74759L15.4399 7.73409L15.4369 7.72909L15.4354 7.72659L15.4344 7.72509L15.2494 7.43809L14.9184 7.50459L14.9114 7.50609L14.8629 7.51259C14.7885 7.52094 14.7138 7.52594 14.6389 7.52759C14.3307 7.5335 14.0225 7.50939 13.7189 7.45559C12.9124 7.31959 11.7274 6.94909 10.2879 5.99059L9.93793 5.75709L9.64843 6.06209C9.40993 6.31309 9.24793 6.65559 9.12943 6.98909C9.00843 7.33159 8.91693 7.71409 8.84343 8.08109C8.78246 8.3934 8.72712 8.70678 8.67743 9.02109L8.65843 9.13309C8.60493 9.45859 8.56143 9.70709 8.51743 9.86809C8.49943 9.93442 8.48177 9.99509 8.46443 10.0501Z" fill="#004951"/>
<path fill-rule="evenodd" clip-rule="evenodd" d="M8.957 14.4274C8.851 14.2164 8.7205 13.9559 8.5 14.0064C5.798 14.6214 3 16.3969 3 18.2849V20.9999H21V18.2849C21 16.7979 19.264 15.3804 17.2065 14.5449L17.204 14.5399L17.197 14.5264L17.1805 14.5344C16.634 14.3144 16.065 14.1344 15.5 14.0064C15.2485 13.9489 14.9885 14.2949 14.875 14.5114H9L8.957 14.4274ZM15.7015 15.0874C15.9202 15.148 16.137 15.2159 16.352 15.2909C16.358 15.4619 16.345 15.6639 16.317 15.8699C16.2887 16.0832 16.2432 16.2939 16.181 16.4999H15.5C15.4072 16.4999 15.3162 16.5258 15.2372 16.5746C15.1583 16.6235 15.0945 16.6933 15.053 16.7764L14.553 17.7764C14.5182 17.8457 14.5001 17.9223 14.5 17.9999V18.9999C14.5 19.1325 14.5527 19.2596 14.6464 19.3534C14.7402 19.4472 14.8674 19.4999 15 19.4999H16V18.4999H15.5V18.1179L15.809 17.4999H17.191L17.5 18.1179V18.4999H17V19.4999H18C18.1326 19.4999 18.2598 19.4472 18.3536 19.3534C18.4473 19.2596 18.5 19.1325 18.5 18.9999V17.9999C18.4999 17.9223 18.4818 17.8457 18.447 17.7764L17.947 16.7764C17.9055 16.6933 17.8417 16.6235 17.7628 16.5746C17.6838 16.5258 17.5928 16.4999 17.5 16.4999H17.217C17.2781 16.2351 17.3196 15.9662 17.341 15.6954C17.8285 15.9259 18.2815 16.1904 18.674 16.4764C19.635 17.1774 20 17.8334 20 18.2849V19.9999H4V18.2849C4 17.8334 4.365 17.1774 5.326 16.4764C5.809 16.1239 6.3855 15.8049 7.0035 15.5409C7.02076 15.9393 7.0847 16.3343 7.194 16.7179L7.198 16.7319C6.89908 16.921 6.67661 17.2096 6.56987 17.5468C6.46313 17.8841 6.47899 18.2482 6.61466 18.5748C6.75033 18.9015 6.99707 19.1697 7.3113 19.3321C7.62554 19.4945 7.98705 19.5406 8.33198 19.4623C8.67692 19.384 8.98309 19.1863 9.19642 18.9042C9.40975 18.622 9.51651 18.2736 9.49785 17.9204C9.47919 17.5671 9.33631 17.2319 9.09443 16.9738C8.85256 16.7157 8.52727 16.5514 8.176 16.5099L8.154 16.4379C8.10114 16.2516 8.06187 16.0618 8.0365 15.8699C8.00847 15.676 7.99676 15.4802 8.0015 15.2844C8.00317 15.2424 8.00567 15.205 8.009 15.1724C8.069 15.1537 8.129 15.1359 8.189 15.1189L8.3965 15.5119H15.4785L15.7015 15.0874ZM8 18.5079C8.269 18.5079 8.5 18.2879 8.5 18.0004C8.5 17.7134 8.269 17.4929 8 17.4929C7.731 17.4929 7.5 17.7129 7.5 18.0004C7.5 18.2874 7.731 18.5079 8 18.5079Z" fill="#004951"/>
</svg>
