<svg width="252" height="258" viewBox="0 0 252 258" fill="none" xmlns="http://www.w3.org/2000/svg">
<path d="M235.312 163.159H152.712V114.222H235.312V163.159ZM153.216 162.643H234.808V114.738H153.216V162.643Z" fill="#E0E0E0"/>
<path d="M218.273 140.316H163.775V141.952H218.273V140.316Z" fill="#F0F0F0"/>
<path d="M222.028 146.415H163.775V148.2H222.028V146.415Z" fill="#F0F0F0"/>
<path d="M222.028 152.586H163.775V154.372H222.028V152.586Z" fill="#F0F0F0"/>
<path d="M182.822 131.456H163.775V135.703H182.822V131.456Z" fill="#F0F0F0"/>
<path d="M235.061 114.48H152.979V122.271H235.061V114.48Z" fill="#E0E0E0"/>
<path d="M228.746 121.105C228.64 121.002 229.698 119.697 231.104 118.19C232.51 116.683 233.745 115.543 233.846 115.641C233.947 115.739 232.893 117.049 231.487 118.561C230.081 120.073 228.846 121.208 228.746 121.105Z" fill="white"/>
<path d="M233.856 121.105C233.755 121.208 232.525 120.073 231.114 118.561C229.703 117.049 228.65 115.744 228.755 115.641C228.861 115.538 230.086 116.673 231.497 118.19C232.908 119.707 233.952 121.002 233.856 121.105Z" fill="white"/>
<path d="M133.671 17.5698H51.5898V65.9964H133.671V17.5698Z" fill="#E6E6E6"/>
<path d="M116.888 43.4111H62.3906V45.0469H116.888V43.4111Z" fill="#F0F0F0"/>
<path d="M120.643 49.5103H62.3906V51.2956H120.643V49.5103Z" fill="#F0F0F0"/>
<path d="M120.643 55.6816H62.3906V57.467H120.643V55.6816Z" fill="#F0F0F0"/>
<path d="M81.4368 34.5514H62.3906V38.7981H81.4368V34.5514Z" fill="#F0F0F0"/>
<path d="M133.671 17.5698H51.5898V25.3614H133.671V17.5698Z" fill="#E0E0E0"/>
<path d="M127.079 24.1591C126.973 24.0611 128.031 22.7504 129.437 21.2437C130.843 19.737 132.078 18.5966 132.179 18.6998C132.28 18.803 131.226 20.1085 129.82 21.6152C128.414 23.122 127.179 24.252 127.079 24.1591Z" fill="white"/>
<path d="M132.179 24.1592C132.078 24.2624 130.849 23.1272 129.437 21.6153C128.026 20.1034 126.973 18.8031 127.079 18.6999C127.184 18.5967 128.409 19.7319 129.82 21.2438C131.232 22.7556 132.285 24.0611 132.179 24.1592Z" fill="white"/>
<path d="M102.584 107.529H19.999V58.5867H102.584V107.529ZM20.503 107.013H102.08V59.1027H20.503V107.013Z" fill="#E0E0E0"/>
<path d="M85.5493 84.6859H31.0518V86.3216H85.5493V84.6859Z" fill="#F0F0F0"/>
<path d="M89.3041 90.785H31.0518V92.5704H89.3041V90.785Z" fill="#F0F0F0"/>
<path d="M89.3041 96.9564H31.0518V98.7418H89.3041V96.9564Z" fill="#F0F0F0"/>
<path d="M50.0979 75.8262H31.0518V80.0728H50.0979V75.8262Z" fill="#F0F0F0"/>
<path d="M102.332 58.8447H20.251V66.6363H102.332V58.8447Z" fill="#E0E0E0"/>
<path d="M197.896 118.742H100.977V207.577H197.896V118.742Z" fill="#E6E6E6"/>
<path d="M105.85 90.7593H29.9277V171.518H105.85V90.7593Z" fill="#F0F0F0"/>
<path d="M105.85 90.7593H29.9277V99.5571H105.85V90.7593Z" fill="#E0E0E0"/>
<path d="M36.1974 95.0679C36.1836 95.387 36.0785 95.6948 35.8954 95.9533C35.7122 96.2118 35.4589 96.4095 35.1669 96.5219C34.875 96.6343 34.5572 96.6564 34.253 96.5856C33.9489 96.5148 33.6717 96.3541 33.456 96.1234C33.2403 95.8927 33.0955 95.6023 33.0395 95.2881C32.9836 94.974 33.0189 94.6499 33.1413 94.3561C33.2636 94.0624 33.4675 93.8119 33.7277 93.6357C33.9879 93.4595 34.2928 93.3654 34.6048 93.3651C35.0361 93.3759 35.4457 93.5611 35.7441 93.8802C36.0426 94.1992 36.2055 94.6262 36.1974 95.0679Z" fill="white"/>
<path d="M42.6637 95.0679C42.6509 95.3885 42.5463 95.6981 42.3628 95.9582C42.1794 96.2183 41.9254 96.4175 41.6323 96.5309C41.3391 96.6443 41.0199 96.667 40.7143 96.5961C40.4087 96.5252 40.1302 96.3638 39.9135 96.1321C39.6967 95.9004 39.5514 95.6086 39.4954 95.2929C39.4395 94.9772 39.4754 94.6517 39.5988 94.3568C39.7222 94.0619 39.9275 93.8106 40.1893 93.6343C40.4511 93.458 40.7577 93.3644 41.0711 93.3651C41.5024 93.3759 41.9121 93.5611 42.2105 93.8802C42.5089 94.1992 42.6719 94.6262 42.6637 95.0679Z" fill="white"/>
<path d="M49.1305 95.0679C49.1177 95.3885 49.013 95.6981 48.8296 95.9582C48.6462 96.2183 48.3922 96.4175 48.099 96.5309C47.8059 96.6443 47.4867 96.667 47.1811 96.5961C46.8755 96.5252 46.597 96.3638 46.3803 96.1321C46.1635 95.9004 46.0182 95.6086 45.9622 95.2929C45.9062 94.9772 45.9422 94.6517 46.0656 94.3568C46.189 94.0619 46.3943 93.8106 46.6561 93.6343C46.9179 93.458 47.2245 93.3644 47.5379 93.3651C47.9692 93.3759 48.3789 93.5611 48.6773 93.8802C48.9757 94.1992 49.1387 94.6262 49.1305 95.0679Z" fill="white"/>
<path d="M224.472 35.2325H127.553V134.129H224.472V35.2325Z" fill="#F0F0F0"/>
<path d="M224.472 35.2325H127.553V46.8167H224.472V35.2325Z" fill="#E0E0E0"/>
<path d="M135.808 40.9085C135.79 41.3297 135.652 41.7362 135.41 42.0776C135.169 42.419 134.835 42.6803 134.45 42.829C134.064 42.9777 133.645 43.0073 133.243 42.9141C132.842 42.8209 132.476 42.609 132.191 42.3047C131.906 42.0004 131.715 41.6171 131.641 41.2024C131.567 40.7878 131.613 40.36 131.775 39.9722C131.936 39.5844 132.205 39.2537 132.549 39.0211C132.892 38.7885 133.294 38.6643 133.706 38.6639C134.275 38.6775 134.816 38.9213 135.21 39.3419C135.604 39.7626 135.819 40.3259 135.808 40.9085Z" fill="white"/>
<path d="M143.706 39.3914C143.986 39.7021 144.17 40.0901 144.235 40.507C144.301 40.9239 144.245 41.3514 144.075 41.7361C143.905 42.1209 143.628 42.4459 143.279 42.6706C142.93 42.8954 142.524 43.01 142.111 43.0001C141.699 42.9903 141.298 42.8564 140.96 42.6152C140.621 42.374 140.36 42.0362 140.207 41.6437C140.055 41.2513 140.019 40.8216 140.103 40.4083C140.188 39.9949 140.389 39.6162 140.682 39.3192C141.093 38.919 141.642 38.7019 142.209 38.7154C142.776 38.729 143.314 38.9721 143.706 39.3914Z" fill="white"/>
<path d="M152.833 40.9085C152.815 41.3297 152.677 41.7362 152.436 42.0776C152.194 42.419 151.86 42.6803 151.475 42.829C151.09 42.9777 150.67 43.0073 150.269 42.9141C149.867 42.8209 149.501 42.609 149.216 42.3047C148.931 42.0004 148.74 41.6171 148.666 41.2024C148.592 40.7878 148.639 40.36 148.8 39.9722C148.961 39.5844 149.231 39.2537 149.574 39.0211C149.917 38.7885 150.32 38.6643 150.732 38.6639C151.301 38.6775 151.841 38.9213 152.235 39.3419C152.629 39.7626 152.844 40.3259 152.833 40.9085Z" fill="white"/>
<path d="M203.536 233.815C203.536 233.887 168.538 233.949 125.38 233.949C82.2228 233.949 47.21 233.887 47.21 233.815C47.21 233.743 82.2027 233.681 125.38 233.681C168.558 233.681 203.536 233.748 203.536 233.815Z" fill="#263238"/>
<path d="M169.434 170.646C161.648 165.079 159.884 154.743 160.191 145.45C160.241 143.902 160.075 142.261 160.796 140.904C161.516 139.547 163.2 138.613 164.556 139.263C165.68 139.805 166.168 141.147 166.798 142.256C167.639 143.734 168.871 144.938 170.352 145.729C171.314 146.245 172.509 146.554 173.461 146.018C174.772 145.28 174.923 143.438 174.913 141.89C174.913 139.01 174.896 136.135 174.862 133.262C174.772 131.72 174.925 130.173 175.316 128.68C175.785 127.215 176.828 125.858 178.254 125.445C179.681 125.032 181.46 125.883 181.782 127.39C181.838 128.028 181.853 128.669 181.828 129.31C181.868 129.955 182.16 130.662 182.75 130.858C183.34 131.054 183.955 130.605 184.408 130.151C185.96 128.603 187.019 126.585 188.002 124.593C188.984 122.602 189.947 120.553 191.358 118.855C192.77 117.158 194.72 115.811 196.902 115.682C199.085 115.553 201.358 116.926 201.902 119.093C202.446 121.26 201.212 123.474 199.886 125.233C197.886 127.845 195.528 130.148 192.885 132.07C192.37 132.359 191.958 132.809 191.711 133.355C191.384 134.387 192.336 135.419 193.329 135.744C194.453 136.126 195.673 136.007 196.857 136.152C198.041 136.296 199.301 136.823 199.75 137.958C200.365 139.537 199.075 141.188 197.81 142.272C195.269 144.439 192.385 146.144 189.282 147.313C188.173 147.726 187.009 148.092 186.112 148.887C185.215 149.681 184.68 151.069 185.22 152.158C185.759 153.247 187.145 153.593 188.309 153.371C189.473 153.149 190.507 152.509 191.615 152.081C193.687 151.281 196.358 151.425 197.663 153.257C198.068 153.888 198.324 154.607 198.411 155.356C198.499 156.105 198.415 156.865 198.167 157.576C197.663 158.991 196.887 160.287 195.884 161.389C192.583 165.427 188.294 168.495 183.456 170.28C178.652 171.983 174.202 172.447 169.429 170.657" fill="#EFA987"/>
<path d="M199.684 116.957C199.684 116.957 199.639 117.008 199.538 117.101L199.089 117.509C198.696 117.87 198.117 118.396 197.386 119.093C195.314 121.062 193.39 123.189 191.63 125.455C190.506 126.884 189.342 128.505 188.102 130.264C186.862 132.024 185.582 133.923 184.312 135.94C182.958 138.068 181.718 140.269 180.598 142.535C180.013 143.716 179.499 144.95 178.97 146.209L177.407 150.053C175.348 154.895 173.554 159.851 172.035 164.898C170.811 169.028 169.967 173.265 169.515 177.556C169.222 180.451 169.174 183.367 169.374 186.271C169.454 187.303 169.53 188.092 169.6 188.629C169.631 188.887 169.651 189.093 169.671 189.243V189.455C169.649 189.387 169.634 189.318 169.626 189.248C169.6 189.099 169.57 188.897 169.53 188.639C169.439 188.123 169.343 187.308 169.253 186.276C169.009 183.367 169.026 180.441 169.303 177.535C169.727 173.226 170.553 168.969 171.768 164.821C173.274 159.76 175.063 154.791 177.125 149.939L178.728 146.111C179.257 144.857 179.776 143.613 180.366 142.426C181.494 140.154 182.744 137.947 184.111 135.816C185.401 133.752 186.701 131.884 187.926 130.14C189.151 128.396 190.335 126.766 191.454 125.342C193.231 123.082 195.181 120.97 197.285 119.026C198.031 118.339 198.626 117.823 199.029 117.478L199.498 117.091C199.555 117.039 199.618 116.995 199.684 116.957Z" fill="#263238"/>
<path d="M180.432 142.416C180.361 142.203 180.312 141.984 180.286 141.761C180.205 141.332 180.114 140.729 180.008 139.944C179.792 138.396 179.57 136.276 179.333 133.928C179.096 131.58 178.829 129.454 178.607 127.922C178.491 127.158 178.391 126.544 178.32 126.116C178.265 125.896 178.236 125.671 178.234 125.445C178.321 125.652 178.384 125.868 178.421 126.09C178.532 126.513 178.658 127.122 178.799 127.891C179.086 129.439 179.368 131.544 179.605 133.897C179.842 136.25 180.044 138.314 180.2 139.919C180.276 140.641 180.341 141.255 180.391 141.745C180.431 141.966 180.444 142.192 180.432 142.416Z" fill="#263238"/>
<path d="M199.825 138.711C199.58 138.766 199.33 138.797 199.079 138.804C198.575 138.85 197.86 138.912 196.973 139.016C195.199 139.212 192.759 139.573 190.083 140.089C187.407 140.605 185.003 141.188 183.274 141.637C182.412 141.864 181.717 142.07 181.258 142.21C181.013 142.299 180.76 142.361 180.502 142.395C180.735 142.275 180.978 142.177 181.228 142.101C181.701 141.931 182.387 141.694 183.244 141.441C184.962 140.925 187.366 140.311 190.053 139.784C192.328 139.339 194.624 139.012 196.932 138.804C197.824 138.727 198.545 138.696 199.049 138.685C199.308 138.667 199.568 138.676 199.825 138.711Z" fill="#263238"/>
<path d="M172.015 164.46C171.961 164.385 171.917 164.303 171.884 164.217L171.551 163.5C171.264 162.875 170.876 161.952 170.412 160.822C169.475 158.551 168.28 155.373 167.01 151.843C165.74 148.314 164.571 145.135 163.684 142.839C163.251 141.725 162.893 140.811 162.626 140.13L162.343 139.392C162.304 139.307 162.277 139.217 162.263 139.124C162.316 139.199 162.36 139.28 162.394 139.366L162.726 140.084C163.009 140.708 163.402 141.632 163.865 142.762C164.803 145.032 165.997 148.211 167.267 151.74C168.537 155.27 169.707 158.448 170.594 160.744C171.027 161.859 171.385 162.772 171.647 163.453C171.763 163.747 171.859 163.969 171.934 164.191C171.974 164.276 172.001 164.367 172.015 164.46Z" fill="#263238"/>
<path d="M197.759 155.961C197.678 156.008 197.592 156.045 197.502 156.069L196.756 156.327L193.999 157.241C191.671 158.015 188.455 159.119 184.927 160.337C181.399 161.555 178.169 162.638 175.825 163.36C174.656 163.727 173.703 164.006 173.043 164.191L172.282 164.392C172.193 164.421 172.102 164.44 172.01 164.449C172.09 164.402 172.177 164.365 172.267 164.341L173.013 164.083L175.77 163.17C178.098 162.396 181.314 161.291 184.842 160.074C188.37 158.856 191.595 157.772 193.939 157.05C195.113 156.683 196.061 156.405 196.726 156.219L197.487 156.018C197.575 155.989 197.667 155.97 197.759 155.961Z" fill="#263238"/>
<path d="M187.256 30.7949L184.661 31.7443L183.547 28.2716C181.5 21.8681 174.979 18.4676 168.986 20.6297C162.994 22.7917 159.803 29.8145 161.849 36.218L162.963 39.6907L160.358 40.6453C159.364 41.0399 158.557 41.8113 158.105 42.7992C157.652 43.7871 157.589 44.9155 157.928 45.9498L165.151 68.5454C165.301 69.0575 165.549 69.5334 165.883 69.945C166.216 70.3566 166.626 70.6955 167.09 70.9415C167.553 71.1874 168.061 71.3355 168.581 71.3768C169.102 71.4182 169.625 71.352 170.12 71.1822L197.019 61.3318C198.025 60.9379 198.844 60.1596 199.301 59.1607C199.759 58.1618 199.821 57.0201 199.473 55.9757L192.246 33.38C192.092 32.8694 191.839 32.3958 191.503 31.9874C191.166 31.5789 190.753 31.2441 190.287 31.0028C189.821 30.7615 189.313 30.6188 188.792 30.5831C188.271 30.5473 187.749 30.6194 187.256 30.7949ZM166.753 34.4069C166.202 32.7419 166.301 30.9228 167.03 29.3309C167.759 27.739 169.061 26.4977 170.664 25.8671C171.456 25.5898 172.294 25.4786 173.129 25.5401C173.963 25.6017 174.777 25.8347 175.521 26.2252C176.266 26.6158 176.926 27.1559 177.462 27.8133C177.999 28.4708 178.4 29.2321 178.643 30.0518L179.752 33.5245L167.862 37.8796L166.753 34.4069ZM181.873 54.4586L183.718 60.2275C183.752 60.3432 183.741 60.4678 183.687 60.5754C183.634 60.683 183.542 60.7654 183.431 60.8054L180.845 61.7497C180.742 61.7789 180.632 61.7662 180.538 61.7143C180.444 61.6623 180.374 61.5752 180.341 61.4711L178.481 55.728C177.456 55.6708 176.472 55.2942 175.661 54.6487C174.851 54.0032 174.252 53.1195 173.945 52.116C173.507 50.7893 173.587 49.3405 174.169 48.0728C174.75 46.8051 175.788 45.8169 177.065 45.3151C177.696 45.0945 178.363 45.0062 179.028 45.0553C179.693 45.1045 180.341 45.2901 180.934 45.6012C181.527 45.9122 182.053 46.3424 182.48 46.8659C182.907 47.3894 183.227 47.9957 183.421 48.6485C183.745 49.6679 183.772 50.7619 183.498 51.7967C183.224 52.8314 182.661 53.7619 181.878 54.4741L181.873 54.4586Z" fill="#EFA987"/>
<path d="M184.545 31.6824C184.545 31.7546 179.732 33.6071 173.744 35.8104C167.757 38.0137 162.873 39.7836 162.848 39.732C162.823 39.6804 167.661 37.8125 173.654 35.604C179.646 33.3955 184.52 31.6153 184.545 31.6824Z" fill="#263238"/>
<path d="M190.26 32.6318C190.282 32.6766 190.3 32.7232 190.315 32.7712C190.355 32.8744 190.401 33.0085 190.461 33.1736C190.592 33.5503 190.774 34.0715 191 34.7216L192.936 40.4905C193.742 42.9364 194.705 45.8363 195.773 49.0561C196.277 50.6712 196.872 52.3534 197.426 54.1232C197.723 55.0353 197.851 55.996 197.804 56.9561C197.762 57.4554 197.623 57.9412 197.396 58.3854C197.154 58.8281 196.831 59.2189 196.444 59.5361C195.665 60.118 194.801 60.5691 193.883 60.8725L191.288 61.8271L186.374 63.628L178.053 66.662L172.433 68.6848L170.921 69.2008L170.518 69.3349C170.475 69.3545 170.429 69.3667 170.382 69.371C170.382 69.371 170.422 69.371 170.508 69.3091L170.901 69.1491L172.413 68.5661L178.002 66.4608L186.308 63.3648L191.212 61.5485L193.808 60.5887C194.699 60.2977 195.538 59.8603 196.292 59.2936C196.652 58.9992 196.954 58.6365 197.18 58.2254C197.393 57.8146 197.522 57.3632 197.558 56.8993C197.604 55.9742 197.481 55.0484 197.195 54.1697C196.65 52.4153 196.076 50.7176 195.557 49.1026C194.508 45.8776 193.541 42.9673 192.775 40.5215C192.008 38.0756 191.363 36.1097 190.92 34.7268C190.708 34.0508 190.547 33.5245 190.416 33.1427L190.295 32.7299C190.28 32.6986 190.268 32.6657 190.26 32.6318Z" fill="#263238"/>
<path d="M176.068 25.5162C176.068 25.5162 175.8 25.382 175.306 25.1756C174.602 24.8987 173.858 24.7452 173.104 24.7215C171.987 24.6823 170.875 24.8973 169.848 25.3511C168.6 25.9161 167.533 26.83 166.769 27.9878C166 29.1424 165.587 30.5068 165.584 31.9043C165.595 33.0496 165.765 34.1877 166.088 35.2841C166.35 36.2232 166.623 36.9714 166.804 37.4926C166.911 37.7573 166.999 38.0298 167.066 38.3078C166.923 38.0603 166.803 37.7994 166.708 37.5287C166.502 37.0127 166.204 36.28 165.912 35.3357C165.553 34.2278 165.358 33.0712 165.332 31.9043C165.319 30.454 165.741 29.0346 166.542 27.8382C167.332 26.638 168.443 25.6959 169.742 25.124C170.801 24.6678 171.947 24.4665 173.094 24.5358C173.864 24.576 174.621 24.7596 175.327 25.0776C175.515 25.1667 175.697 25.2702 175.871 25.3872C175.943 25.4194 176.009 25.463 176.068 25.5162Z" fill="#263238"/>
<path d="M176.3 45.7073C176.38 45.6574 176.464 45.6142 176.552 45.5783C176.804 45.4617 177.065 45.3668 177.333 45.2945C177.758 45.1661 178.196 45.0899 178.638 45.0674C179.24 45.0343 179.842 45.1274 180.407 45.3409C181.697 45.8053 182.882 47.1521 183.466 48.9529C183.747 49.9193 183.747 50.9483 183.466 51.9148C183.156 52.9637 182.598 53.9186 181.844 54.696L181.874 54.5567C182.544 56.4401 183.275 58.4834 184.031 60.6145L184.076 60.7435L183.95 60.79L182.796 61.1821L180.276 62.0438L180.15 62.0851L180.11 61.9561C179.419 59.8199 178.663 57.8281 178.094 55.8725L178.205 55.9602C177.219 55.8764 176.28 55.4978 175.503 54.8714C174.801 54.3173 174.224 53.613 173.815 52.8074C173.445 52.0931 173.261 51.2935 173.281 50.4854C173.304 49.6596 173.505 48.8492 173.87 48.1123C174.236 47.3755 174.755 46.7304 175.392 46.2233C175.655 46.0053 175.949 45.8312 176.264 45.7073C175.98 45.8802 175.704 46.0679 175.438 46.2697C174.738 46.8759 174.202 47.6559 173.88 48.535C173.605 49.1978 173.476 49.915 173.503 50.635C173.53 51.3549 173.712 52.0598 174.037 52.6991C174.439 53.474 175.002 54.1501 175.685 54.6805C176.426 55.2759 177.321 55.6348 178.26 55.7125H178.346L178.371 55.7899C178.925 57.7094 179.687 59.7167 180.387 61.8632L180.221 61.7807L182.741 60.919L183.89 60.5216L183.809 60.6971C183.058 58.566 182.333 56.5175 181.667 54.6341V54.5567L181.728 54.4948C182.46 53.7496 183.007 52.8345 183.32 51.827C183.588 50.9026 183.588 49.9187 183.32 48.9942C182.771 47.2604 181.637 45.9446 180.407 45.4802C179.863 45.2653 179.282 45.1653 178.699 45.1861C178.263 45.1963 177.83 45.2569 177.408 45.3667C176.657 45.5576 176.305 45.7331 176.3 45.7073Z" fill="#263238"/>
<path d="M160.72 194.697L110.376 194.46C107.468 194.443 104.686 193.246 102.64 191.131C100.594 189.016 99.4519 186.157 99.464 183.18L99.9982 53.9685C100.004 52.4937 100.294 51.0347 100.851 49.6747C101.408 48.3147 102.221 47.0805 103.245 46.0425C104.268 45.0045 105.481 44.1832 106.814 43.6254C108.148 43.0677 109.575 42.7844 111.016 42.7919L161.355 43.0293C164.263 43.0443 167.045 44.2401 169.092 46.354C171.139 48.468 172.283 51.3273 172.272 54.3039L171.738 183.51C171.732 184.985 171.442 186.445 170.885 187.806C170.328 189.166 169.515 190.401 168.492 191.44C167.469 192.479 166.256 193.301 164.922 193.86C163.589 194.419 162.161 194.703 160.72 194.697Z" fill="#455A64"/>
<path d="M161.28 47.472H151.522C151.204 47.478 150.89 47.5482 150.598 47.6786C150.306 47.8089 150.042 47.9968 149.821 48.2316C149.6 48.4664 149.427 48.7435 149.31 49.047C149.194 49.3504 149.137 49.6744 149.143 50.0004V51.8115C149.149 52.1372 149.092 52.4609 148.976 52.7641C148.86 53.0673 148.686 53.344 148.465 53.5784C148.244 53.8128 147.98 54.0002 147.688 54.13C147.396 54.2598 147.082 54.3294 146.764 54.3348L127.743 54.247C127.1 54.2295 126.49 53.9512 126.046 53.4732C125.603 52.9953 125.363 52.3568 125.38 51.698V49.8868C125.396 49.2289 125.157 48.5912 124.715 48.1134C124.273 47.6356 123.663 47.3567 123.021 47.3378H119.589L111.046 47.2965C109.014 47.2841 107.06 48.0966 105.612 49.556C104.164 51.0153 103.339 53.0027 103.32 55.083L102.816 181.204C102.811 182.236 103.005 183.259 103.386 184.214C103.768 185.169 104.329 186.038 105.039 186.771C105.748 187.504 106.592 188.087 107.521 188.486C108.451 188.886 109.448 189.094 110.456 189.098L160.695 189.336C161.704 189.341 162.703 189.142 163.637 188.751C164.571 188.36 165.42 187.785 166.136 187.058C166.853 186.331 167.423 185.467 167.813 184.515C168.203 183.562 168.406 182.541 168.411 181.508L168.915 55.3874C168.927 53.3013 168.13 51.2956 166.698 49.8114C165.266 48.3271 163.317 47.4856 161.28 47.472Z" fill="white"/>
<rect width="38.8049" height="12.0899" transform="translate(116.469 160.419)" fill="#EFA987"/>
<path d="M129.063 167.492C128.879 167.492 128.714 167.46 128.567 167.396C128.423 167.33 128.31 167.239 128.227 167.124C128.144 167.007 128.102 166.872 128.099 166.72H128.487C128.5 166.851 128.554 166.962 128.647 167.052C128.743 167.14 128.882 167.184 129.063 167.184C129.236 167.184 129.372 167.142 129.471 167.056C129.572 166.968 129.623 166.856 129.623 166.72C129.623 166.614 129.594 166.527 129.535 166.46C129.476 166.394 129.403 166.343 129.315 166.308C129.227 166.274 129.108 166.236 128.959 166.196C128.775 166.148 128.627 166.1 128.515 166.052C128.406 166.004 128.311 165.93 128.231 165.828C128.154 165.724 128.115 165.586 128.115 165.412C128.115 165.26 128.154 165.126 128.231 165.008C128.308 164.891 128.416 164.8 128.555 164.736C128.696 164.672 128.858 164.64 129.039 164.64C129.3 164.64 129.514 164.706 129.679 164.836C129.847 164.967 129.942 165.14 129.963 165.356H129.563C129.55 165.25 129.494 165.156 129.395 165.076C129.296 164.994 129.166 164.952 129.003 164.952C128.851 164.952 128.727 164.992 128.631 165.072C128.535 165.15 128.487 165.259 128.487 165.4C128.487 165.502 128.515 165.584 128.571 165.648C128.63 165.712 128.7 165.762 128.783 165.796C128.868 165.828 128.987 165.866 129.139 165.908C129.323 165.959 129.471 166.01 129.583 166.06C129.695 166.108 129.791 166.184 129.871 166.288C129.951 166.39 129.991 166.528 129.991 166.704C129.991 166.84 129.955 166.968 129.883 167.088C129.811 167.208 129.704 167.306 129.563 167.38C129.422 167.455 129.255 167.492 129.063 167.492ZM130.891 164.676V167.464H130.527V164.676H130.891ZM133.703 167.464H133.339L131.875 165.244V167.464H131.511V164.672H131.875L133.339 166.888V164.672H133.703V167.464ZM136.436 165.484C136.358 165.322 136.246 165.196 136.1 165.108C135.953 165.018 135.782 164.972 135.588 164.972C135.393 164.972 135.217 165.018 135.06 165.108C134.905 165.196 134.782 165.324 134.692 165.492C134.604 165.658 134.56 165.85 134.56 166.068C134.56 166.287 134.604 166.479 134.692 166.644C134.782 166.81 134.905 166.938 135.06 167.028C135.217 167.116 135.393 167.16 135.588 167.16C135.86 167.16 136.084 167.079 136.26 166.916C136.436 166.754 136.538 166.534 136.568 166.256H135.456V165.96H136.956V166.24C136.934 166.47 136.862 166.68 136.74 166.872C136.617 167.062 136.456 167.212 136.256 167.324C136.056 167.434 135.833 167.488 135.588 167.488C135.329 167.488 135.093 167.428 134.88 167.308C134.666 167.186 134.497 167.016 134.372 166.8C134.249 166.584 134.188 166.34 134.188 166.068C134.188 165.796 134.249 165.552 134.372 165.336C134.497 165.118 134.666 164.948 134.88 164.828C135.093 164.706 135.329 164.644 135.588 164.644C135.884 164.644 136.145 164.718 136.372 164.864C136.601 165.011 136.768 165.218 136.872 165.484H136.436ZM138.859 164.676V166.44C138.859 166.688 138.919 166.872 139.039 166.992C139.162 167.112 139.331 167.172 139.547 167.172C139.761 167.172 139.927 167.112 140.047 166.992C140.17 166.872 140.231 166.688 140.231 166.44V164.676H140.595V166.436C140.595 166.668 140.549 166.864 140.455 167.024C140.362 167.182 140.235 167.299 140.075 167.376C139.918 167.454 139.741 167.492 139.543 167.492C139.346 167.492 139.167 167.454 139.007 167.376C138.85 167.299 138.725 167.182 138.631 167.024C138.541 166.864 138.495 166.668 138.495 166.436V164.676H138.859ZM143.067 165.492C143.067 165.724 142.987 165.918 142.827 166.072C142.669 166.224 142.428 166.3 142.103 166.3H141.567V167.464H141.203V164.676H142.103C142.417 164.676 142.656 164.752 142.819 164.904C142.984 165.056 143.067 165.252 143.067 165.492ZM142.103 166C142.305 166 142.455 165.956 142.551 165.868C142.647 165.78 142.695 165.655 142.695 165.492C142.695 165.148 142.497 164.976 142.103 164.976H141.567V166H142.103Z" fill="#E8E8E3"/>
<path d="M124.616 84.5467L111.653 84.4865L111.643 86.9219L124.605 86.9822L124.616 84.5467Z" fill="#EFA987"/>
<path opacity="0.1" d="M124.616 84.5467L111.653 84.4865L111.643 86.9219L124.605 86.9822L124.616 84.5467Z" fill="#1B2A2C"/>
<path d="M162.616 99.5003C162.717 99.4898 162.817 99.4655 162.913 99.4281C163.052 99.3722 163.174 99.2773 163.263 99.154C163.352 99.0308 163.405 98.8844 163.417 98.7315C163.417 97.911 163.417 96.7139 163.417 95.1762C163.417 94.4074 163.417 93.5457 163.417 92.5962C163.417 92.364 163.417 92.1215 163.417 91.879C163.45 91.6437 163.4 91.4041 163.276 91.203C163.206 91.1067 163.116 91.0281 163.012 90.9734C162.908 90.9188 162.793 90.8897 162.676 90.8883H161.89H154.607L112.452 90.7283C112.345 90.7264 112.238 90.7513 112.141 90.8007C112.045 90.8501 111.961 90.9226 111.898 91.0121C111.776 91.214 111.73 91.454 111.767 91.6881C111.767 92.2041 111.767 92.7201 111.767 93.2361C111.767 94.2681 111.767 95.3001 111.767 96.3321C111.767 96.8481 111.767 97.3641 111.767 97.8801C111.746 98.1204 111.746 98.3622 111.767 98.6025C111.793 98.7055 111.843 98.8009 111.911 98.8815C111.979 98.962 112.064 99.0254 112.16 99.0669C112.259 99.1073 112.366 99.1267 112.473 99.1236H115.038L126.232 99.1856L145.182 99.3042L157.959 99.4074L161.431 99.4487H162.333C162.54 99.4487 162.641 99.4487 162.641 99.4487H162.333H161.431H157.959H145.182L126.232 99.3868L115.038 99.3404H112.473C112.331 99.3462 112.191 99.3216 112.059 99.2681C111.927 99.2101 111.809 99.1219 111.714 99.0101C111.62 98.8983 111.552 98.766 111.515 98.6231C111.486 98.4877 111.476 98.3487 111.485 98.2103V97.8285C111.485 97.3125 111.485 96.7965 111.485 96.2805C111.485 95.2485 111.485 94.2165 111.485 93.1845C111.485 92.6685 111.485 92.1525 111.485 91.6365C111.475 91.4991 111.475 91.3611 111.485 91.2237C111.504 91.0719 111.561 90.9278 111.651 90.8057C111.738 90.6812 111.853 90.58 111.986 90.5108C112.12 90.4416 112.268 90.4065 112.417 90.4084L154.572 90.6458L161.855 90.6974H162.641C162.779 90.6975 162.916 90.7318 163.039 90.7973C163.161 90.8629 163.267 90.9578 163.346 91.074C163.488 91.2984 163.546 91.568 163.508 91.8326C163.508 92.0751 163.508 92.3176 163.508 92.5498C163.508 93.4889 163.508 94.3506 163.508 95.1298C163.508 96.6778 163.472 97.8646 163.462 98.6902C163.45 98.8489 163.394 99.0008 163.3 99.1278C163.206 99.2549 163.079 99.3519 162.933 99.4074C162.838 99.4679 162.728 99.5001 162.616 99.5003Z" fill="#E0E0E0"/>
<path d="M139.255 93.3186H115.547V95.5942H139.255V93.3186Z" fill="#EFA987"/>
<path opacity="0.2" d="M139.255 93.3186H115.547V95.5942H139.255V93.3186Z" fill="white"/>
<path d="M124.527 106.765L111.564 106.705L111.554 109.14L124.516 109.201L124.527 106.765Z" fill="#EFA987"/>
<path opacity="0.1" d="M124.527 106.765L111.564 106.705L111.554 109.14L124.516 109.201L124.527 106.765Z" fill="#1B2A2C"/>
<path d="M162.287 121.719C162.389 121.706 162.49 121.687 162.59 121.662C162.731 121.617 162.86 121.54 162.97 121.439C163.079 121.337 163.166 121.213 163.225 121.074C163.304 120.866 163.335 120.642 163.316 120.419C163.316 120.171 163.316 119.903 163.316 119.604C163.316 119.005 163.316 118.324 163.316 117.54V114.263C163.34 114.026 163.288 113.787 163.169 113.582C163.045 113.372 162.85 113.216 162.62 113.143C162.369 113.097 162.113 113.084 161.859 113.102H154.606L112.598 112.942C112.372 112.943 112.154 113.027 111.984 113.18C111.815 113.333 111.705 113.543 111.676 113.773C111.676 114.263 111.676 114.805 111.676 115.321C111.676 116.353 111.676 117.385 111.676 118.417C111.676 118.933 111.676 119.449 111.676 119.965C111.657 120.206 111.667 120.449 111.706 120.687C111.769 120.896 111.898 121.078 112.074 121.203C112.26 121.324 112.479 121.382 112.699 121.368H113.399H114.856L126.01 121.425L144.894 121.544L157.625 121.647L161.088 121.688H157.625H144.894L125.999 121.668L114.846 121.626H112.654C112.381 121.643 112.11 121.569 111.882 121.415C111.653 121.252 111.486 121.013 111.409 120.739C111.363 120.477 111.35 120.21 111.368 119.944C111.368 119.428 111.368 118.912 111.368 118.396C111.368 117.364 111.368 116.332 111.368 115.3C111.368 114.784 111.368 114.268 111.368 113.752C111.405 113.457 111.546 113.186 111.764 112.989C111.982 112.793 112.262 112.684 112.553 112.684L154.561 112.921L161.814 112.978C162.084 112.961 162.355 112.98 162.62 113.035C162.882 113.123 163.103 113.306 163.24 113.551C163.37 113.778 163.427 114.042 163.401 114.304C163.401 114.547 163.401 114.784 163.401 115.022C163.401 115.956 163.401 116.812 163.401 117.602C163.401 118.391 163.401 119.057 163.401 119.666C163.401 119.96 163.401 120.233 163.401 120.486C163.42 120.717 163.383 120.949 163.295 121.162C163.23 121.304 163.135 121.431 163.018 121.532C162.901 121.634 162.763 121.708 162.615 121.75C162.505 121.76 162.394 121.749 162.287 121.719Z" fill="#E0E0E0"/>
<path d="M124.43 129.948L111.467 129.888L111.456 132.323L124.419 132.384L124.43 129.948Z" fill="#EFA987"/>
<path opacity="0.1" d="M124.43 129.948L111.467 129.888L111.456 132.323L124.419 132.384L124.43 129.948Z" fill="#1B2A2C"/>
<path d="M162.186 144.893C162.288 144.88 162.389 144.861 162.489 144.836C162.629 144.79 162.758 144.715 162.868 144.614C162.977 144.514 163.064 144.391 163.124 144.253C163.203 144.045 163.234 143.82 163.215 143.598C163.215 143.345 163.215 143.082 163.215 142.777C163.215 142.184 163.215 141.497 163.215 140.713V137.437C163.239 137.199 163.187 136.96 163.068 136.755C162.941 136.549 162.746 136.395 162.519 136.322C162.268 136.274 162.013 136.259 161.758 136.276H154.505L112.497 136.116C112.271 136.116 112.053 136.201 111.883 136.354C111.714 136.506 111.604 136.717 111.575 136.946C111.575 137.462 111.575 137.978 111.575 138.494C111.575 139.526 111.575 140.558 111.575 141.59C111.575 142.106 111.575 142.622 111.575 143.138C111.556 143.378 111.566 143.619 111.605 143.856C111.665 144.066 111.795 144.249 111.973 144.372C112.158 144.495 112.377 144.553 112.598 144.537H114.79L125.944 144.599L144.829 144.717L157.56 144.821L161.022 144.862H157.56H144.829L125.944 144.805L114.79 144.759H112.598C112.325 144.777 112.054 144.703 111.827 144.547C111.597 144.384 111.43 144.146 111.353 143.871C111.308 143.609 111.294 143.342 111.313 143.076C111.313 142.56 111.313 142.044 111.313 141.528C111.313 140.496 111.313 139.464 111.313 138.432C111.313 137.916 111.313 137.4 111.313 136.859C111.348 136.564 111.488 136.293 111.705 136.096C111.922 135.899 112.202 135.791 112.492 135.791L154.5 136.028L161.753 136.085C162.023 136.068 162.294 136.087 162.559 136.141C162.821 136.229 163.042 136.413 163.179 136.657C163.31 136.885 163.366 137.148 163.341 137.411C163.341 137.653 163.341 137.896 163.341 138.128C163.341 139.062 163.341 139.919 163.341 140.708C163.341 141.497 163.341 142.163 163.341 142.772C163.341 143.066 163.341 143.34 163.341 143.592C163.36 143.823 163.324 144.055 163.235 144.268C163.169 144.411 163.075 144.537 162.957 144.639C162.84 144.74 162.702 144.814 162.554 144.857C162.436 144.898 162.31 144.91 162.186 144.893Z" fill="#E0E0E0"/>
<path d="M138.749 116.181L115.041 116.071L115.031 118.346L138.739 118.456L138.749 116.181Z" fill="#EFA987"/>
<path opacity="0.2" d="M138.749 116.181L115.041 116.071L115.031 118.346L138.739 118.456L138.749 116.181Z" fill="white"/>
<path d="M117.185 140.682C117.17 140.89 117.096 141.088 116.972 141.253C116.848 141.418 116.679 141.542 116.487 141.61C116.295 141.677 116.088 141.686 115.891 141.634C115.694 141.582 115.516 141.472 115.38 141.318C115.243 141.163 115.154 140.971 115.123 140.766C115.093 140.56 115.121 140.35 115.206 140.161C115.291 139.971 115.428 139.812 115.601 139.702C115.774 139.592 115.974 139.536 116.177 139.542C116.458 139.558 116.721 139.687 116.91 139.9C117.099 140.114 117.197 140.395 117.185 140.682Z" fill="#EFA987"/>
<path d="M120.395 140.698C120.405 140.843 120.386 140.989 120.338 141.127C120.291 141.264 120.216 141.39 120.119 141.497C120.022 141.603 119.904 141.688 119.773 141.747C119.643 141.805 119.502 141.835 119.36 141.835C119.217 141.835 119.076 141.805 118.946 141.747C118.815 141.688 118.697 141.603 118.6 141.497C118.503 141.39 118.428 141.264 118.381 141.127C118.333 140.989 118.314 140.843 118.324 140.698C118.314 140.552 118.333 140.406 118.381 140.269C118.428 140.131 118.503 140.005 118.6 139.899C118.697 139.792 118.815 139.707 118.946 139.649C119.076 139.591 119.217 139.561 119.36 139.561C119.502 139.561 119.643 139.591 119.773 139.649C119.904 139.707 120.022 139.792 120.119 139.899C120.216 140.005 120.291 140.131 120.338 140.269C120.386 140.406 120.405 140.552 120.395 140.698Z" fill="#EFA987"/>
<path d="M123.611 140.713C123.596 140.921 123.522 141.119 123.398 141.284C123.274 141.449 123.105 141.573 122.913 141.641C122.721 141.708 122.513 141.717 122.316 141.665C122.12 141.613 121.942 141.503 121.806 141.349C121.669 141.194 121.58 141.002 121.549 140.797C121.518 140.591 121.547 140.381 121.632 140.192C121.717 140.002 121.854 139.843 122.027 139.733C122.199 139.623 122.4 139.567 122.603 139.573C122.883 139.59 123.146 139.719 123.334 139.932C123.523 140.146 123.622 140.426 123.611 140.713Z" fill="#EFA987"/>
<path d="M126.821 140.729C126.806 140.936 126.732 141.135 126.608 141.3C126.484 141.464 126.315 141.588 126.123 141.656C125.931 141.724 125.723 141.732 125.526 141.68C125.33 141.628 125.152 141.518 125.016 141.364C124.879 141.21 124.79 141.018 124.759 140.812C124.728 140.606 124.757 140.396 124.842 140.207C124.927 140.018 125.064 139.858 125.237 139.748C125.409 139.638 125.61 139.583 125.813 139.588C126.093 139.606 126.356 139.735 126.544 139.948C126.732 140.161 126.832 140.441 126.821 140.729Z" fill="#EFA987"/>
<path d="M130.031 140.739C130.017 140.947 129.944 141.146 129.82 141.312C129.697 141.477 129.529 141.602 129.336 141.67C129.144 141.739 128.937 141.748 128.739 141.696C128.542 141.645 128.364 141.536 128.227 141.381C128.09 141.227 128.001 141.035 127.969 140.829C127.938 140.623 127.967 140.413 128.052 140.223C128.136 140.034 128.274 139.874 128.446 139.764C128.619 139.654 128.82 139.598 129.023 139.604C129.302 139.621 129.564 139.749 129.753 139.962C129.941 140.174 130.041 140.453 130.031 140.739Z" fill="#EFA987"/>
<path d="M133.247 140.754C133.233 140.961 133.161 141.159 133.038 141.325C132.916 141.49 132.749 141.615 132.558 141.684C132.368 141.753 132.161 141.764 131.964 141.715C131.768 141.666 131.59 141.559 131.452 141.407C131.313 141.255 131.222 141.066 131.188 140.861C131.154 140.657 131.179 140.447 131.26 140.257C131.341 140.067 131.474 139.905 131.644 139.792C131.813 139.679 132.011 139.619 132.214 139.619C132.498 139.63 132.766 139.756 132.959 139.968C133.153 140.181 133.256 140.464 133.247 140.754Z" fill="#EFA987"/>
<path d="M136.458 140.77C136.468 140.915 136.448 141.062 136.401 141.199C136.353 141.336 136.278 141.462 136.181 141.569C136.084 141.676 135.967 141.761 135.836 141.819C135.705 141.877 135.564 141.907 135.422 141.907C135.28 141.907 135.139 141.877 135.008 141.819C134.877 141.761 134.76 141.676 134.663 141.569C134.566 141.462 134.491 141.336 134.443 141.199C134.396 141.062 134.376 140.915 134.386 140.77C134.376 140.625 134.396 140.479 134.443 140.341C134.491 140.204 134.566 140.078 134.663 139.971C134.76 139.864 134.877 139.779 135.008 139.721C135.139 139.663 135.28 139.633 135.422 139.633C135.564 139.633 135.705 139.663 135.836 139.721C135.967 139.779 136.084 139.864 136.181 139.971C136.278 140.078 136.353 140.204 136.401 140.341C136.448 140.479 136.468 140.625 136.458 140.77Z" fill="#EFA987"/>
<path d="M139.668 140.785C139.654 140.992 139.582 141.19 139.459 141.356C139.337 141.521 139.17 141.646 138.979 141.715C138.788 141.784 138.582 141.795 138.385 141.746C138.189 141.697 138.01 141.59 137.872 141.438C137.734 141.286 137.643 141.097 137.609 140.892C137.574 140.688 137.599 140.478 137.68 140.288C137.761 140.098 137.895 139.936 138.064 139.823C138.234 139.71 138.432 139.65 138.635 139.65C138.919 139.661 139.187 139.787 139.38 139.999C139.574 140.212 139.677 140.495 139.668 140.785Z" fill="#EFA987"/>
<path d="M142.879 140.801C142.865 141.009 142.792 141.208 142.668 141.374C142.545 141.539 142.376 141.664 142.184 141.732C141.992 141.801 141.784 141.81 141.587 141.759C141.39 141.707 141.212 141.598 141.075 141.443C140.938 141.289 140.848 141.097 140.817 140.891C140.786 140.685 140.814 140.475 140.899 140.285C140.984 140.096 141.121 139.936 141.294 139.826C141.467 139.716 141.667 139.66 141.871 139.666C142.15 139.683 142.412 139.811 142.6 140.024C142.789 140.236 142.888 140.515 142.879 140.801Z" fill="#EFA987"/>
<g opacity="0.2">
<path d="M117.185 140.682C117.17 140.89 117.096 141.088 116.972 141.253C116.848 141.418 116.679 141.542 116.487 141.61C116.295 141.677 116.088 141.686 115.891 141.634C115.694 141.582 115.516 141.472 115.38 141.318C115.243 141.163 115.154 140.971 115.123 140.766C115.093 140.56 115.121 140.35 115.206 140.161C115.291 139.971 115.428 139.812 115.601 139.702C115.774 139.592 115.974 139.536 116.177 139.542C116.458 139.558 116.721 139.687 116.91 139.9C117.099 140.114 117.197 140.395 117.185 140.682Z" fill="white"/>
<path d="M120.395 140.698C120.405 140.843 120.386 140.989 120.338 141.127C120.291 141.264 120.216 141.39 120.119 141.497C120.022 141.603 119.904 141.688 119.773 141.747C119.643 141.805 119.502 141.835 119.36 141.835C119.217 141.835 119.076 141.805 118.946 141.747C118.815 141.688 118.697 141.603 118.6 141.497C118.503 141.39 118.428 141.264 118.381 141.127C118.333 140.989 118.314 140.843 118.324 140.698C118.314 140.552 118.333 140.406 118.381 140.269C118.428 140.131 118.503 140.005 118.6 139.899C118.697 139.792 118.815 139.707 118.946 139.649C119.076 139.591 119.217 139.561 119.36 139.561C119.502 139.561 119.643 139.591 119.773 139.649C119.904 139.707 120.022 139.792 120.119 139.899C120.216 140.005 120.291 140.131 120.338 140.269C120.386 140.406 120.405 140.552 120.395 140.698Z" fill="white"/>
<path d="M123.611 140.713C123.596 140.921 123.522 141.119 123.398 141.284C123.274 141.449 123.105 141.573 122.913 141.641C122.721 141.708 122.513 141.717 122.316 141.665C122.12 141.613 121.942 141.503 121.806 141.349C121.669 141.194 121.58 141.002 121.549 140.797C121.518 140.591 121.547 140.381 121.632 140.192C121.717 140.002 121.854 139.843 122.027 139.733C122.199 139.623 122.4 139.567 122.603 139.573C122.883 139.59 123.146 139.719 123.334 139.932C123.523 140.146 123.622 140.426 123.611 140.713Z" fill="white"/>
<path d="M126.822 140.729C126.807 140.936 126.733 141.135 126.609 141.3C126.485 141.464 126.316 141.588 126.124 141.656C125.932 141.724 125.724 141.732 125.527 141.68C125.331 141.628 125.153 141.518 125.016 141.364C124.88 141.21 124.791 141.018 124.76 140.812C124.729 140.606 124.758 140.396 124.843 140.207C124.928 140.018 125.065 139.858 125.238 139.748C125.41 139.638 125.611 139.583 125.814 139.588C126.094 139.606 126.357 139.735 126.545 139.948C126.733 140.161 126.833 140.441 126.822 140.729Z" fill="white"/>
<path d="M130.032 140.739C130.018 140.947 129.945 141.146 129.821 141.312C129.698 141.477 129.53 141.602 129.337 141.67C129.145 141.739 128.937 141.748 128.74 141.696C128.543 141.645 128.365 141.536 128.228 141.381C128.091 141.227 128.001 141.035 127.97 140.829C127.939 140.623 127.968 140.413 128.052 140.223C128.137 140.034 128.275 139.874 128.447 139.764C128.62 139.654 128.821 139.598 129.024 139.604C129.303 139.621 129.565 139.749 129.754 139.962C129.942 140.174 130.042 140.453 130.032 140.739Z" fill="white"/>
<path d="M133.248 140.754C133.234 140.961 133.162 141.159 133.039 141.325C132.917 141.49 132.75 141.615 132.559 141.684C132.369 141.753 132.162 141.764 131.965 141.715C131.769 141.666 131.591 141.559 131.452 141.407C131.314 141.255 131.223 141.066 131.189 140.861C131.155 140.657 131.18 140.447 131.261 140.257C131.342 140.067 131.475 139.905 131.645 139.792C131.814 139.679 132.012 139.619 132.215 139.619C132.499 139.63 132.767 139.756 132.96 139.968C133.154 140.181 133.257 140.464 133.248 140.754Z" fill="white"/>
<path d="M136.458 140.77C136.468 140.915 136.448 141.061 136.401 141.199C136.353 141.336 136.278 141.462 136.181 141.569C136.084 141.676 135.967 141.761 135.836 141.819C135.705 141.877 135.564 141.907 135.422 141.907C135.28 141.907 135.139 141.877 135.008 141.819C134.877 141.761 134.76 141.676 134.663 141.569C134.566 141.462 134.491 141.336 134.443 141.199C134.396 141.061 134.376 140.915 134.386 140.77C134.376 140.624 134.396 140.478 134.443 140.341C134.491 140.204 134.566 140.078 134.663 139.971C134.76 139.864 134.877 139.779 135.008 139.721C135.139 139.663 135.28 139.633 135.422 139.633C135.564 139.633 135.705 139.663 135.836 139.721C135.967 139.779 136.084 139.864 136.181 139.971C136.278 140.078 136.353 140.204 136.401 140.341C136.448 140.478 136.468 140.624 136.458 140.77Z" fill="white"/>
<path d="M139.669 140.785C139.655 140.992 139.583 141.19 139.46 141.356C139.338 141.521 139.171 141.646 138.98 141.715C138.789 141.784 138.583 141.795 138.386 141.746C138.19 141.697 138.011 141.59 137.873 141.438C137.735 141.286 137.644 141.097 137.61 140.892C137.575 140.688 137.6 140.478 137.681 140.288C137.762 140.098 137.896 139.936 138.065 139.823C138.235 139.71 138.433 139.65 138.636 139.65C138.919 139.661 139.188 139.787 139.381 139.999C139.575 140.212 139.678 140.495 139.669 140.785Z" fill="white"/>
<path d="M142.879 140.801C142.865 141.009 142.792 141.208 142.668 141.374C142.545 141.539 142.376 141.664 142.184 141.732C141.992 141.801 141.784 141.81 141.587 141.759C141.39 141.707 141.212 141.598 141.075 141.443C140.938 141.289 140.848 141.097 140.817 140.891C140.786 140.685 140.814 140.475 140.899 140.285C140.984 140.096 141.121 139.936 141.294 139.826C141.467 139.716 141.667 139.66 141.871 139.666C142.15 139.683 142.412 139.811 142.6 140.024C142.789 140.236 142.888 140.515 142.879 140.801Z" fill="white"/>
</g>
<path d="M138.317 66.3111C138.667 66.1533 138.964 65.8935 139.171 65.5641C139.378 65.2348 139.486 64.8503 139.481 64.4587C139.494 64.2041 139.456 63.9495 139.37 63.7103C139.284 63.4711 139.151 63.2524 138.98 63.0674C138.808 62.8825 138.602 62.7352 138.373 62.6346C138.144 62.534 137.898 62.4821 137.649 62.4821C137.4 62.4821 137.154 62.534 136.925 62.6346C136.696 62.7352 136.49 62.8825 136.318 63.0674C136.147 63.2524 136.014 63.4711 135.928 63.7103C135.842 63.9495 135.804 64.2041 135.817 64.4587C135.809 64.8543 135.916 65.2433 136.124 65.5767C136.333 65.91 136.632 66.1728 136.986 66.3318C134.164 66.7652 134.29 69.9025 134.29 69.9025L140.963 69.9335C140.963 69.9335 141.119 66.7394 138.317 66.3111Z" fill="#EFA987"/>
<path opacity="0.1" d="M138.317 66.3111C138.667 66.1533 138.964 65.8935 139.171 65.5641C139.378 65.2348 139.486 64.8503 139.481 64.4587C139.494 64.2041 139.456 63.9495 139.37 63.7103C139.284 63.4711 139.151 63.2524 138.98 63.0674C138.808 62.8825 138.602 62.7352 138.373 62.6346C138.144 62.534 137.898 62.4821 137.649 62.4821C137.4 62.4821 137.154 62.534 136.925 62.6346C136.696 62.7352 136.49 62.8825 136.318 63.0674C136.147 63.2524 136.014 63.4711 135.928 63.7103C135.842 63.9495 135.804 64.2041 135.817 64.4587C135.809 64.8543 135.916 65.2433 136.124 65.5767C136.333 65.91 136.632 66.1728 136.986 66.3318C134.164 66.7652 134.29 69.9025 134.29 69.9025L140.963 69.9335C140.963 69.9335 141.119 66.7394 138.317 66.3111Z" fill="#1B2A2C"/>
<path d="M149.16 71.9569L125.377 71.8464L125.364 74.7566L149.148 74.8671L149.16 71.9569Z" fill="#EFA987"/>
<path opacity="0.2" d="M149.16 71.9569L125.377 71.8464L125.364 74.7566L149.148 74.8671L149.16 71.9569Z" fill="white"/>
<path d="M61.7252 87.0389H61.4883L60.8029 87.0905C60.432 87.1133 60.0631 87.1633 59.6991 87.2401C59.4634 87.274 59.2296 87.3205 58.9986 87.3794L58.2174 87.6013C56.8877 88.0189 55.6332 88.655 54.5029 89.4847C53.0095 90.5945 51.7625 92.0154 50.8439 93.654C50.3039 94.5985 49.8743 95.6047 49.5637 96.6519C49.2374 97.7901 49.0495 98.9651 49.0043 100.15C48.9742 100.773 48.9843 101.397 49.0345 102.018C49.0345 102.333 49.1202 102.648 49.1605 102.968C49.1944 103.29 49.2534 103.609 49.3369 103.922C49.7901 105.993 50.7097 107.926 52.0223 109.569C53.3348 111.211 55.0041 112.516 56.8969 113.381C58.2668 113.986 59.7351 114.324 61.2263 114.377C62.7664 114.463 64.308 114.237 65.7623 113.711L66.2058 113.541H66.2663L66.3167 113.572L72.6721 116.874L72.4856 117.039C71.8052 114.882 71.15 112.792 70.515 110.785V110.708L70.5704 110.651C72.1122 109.061 73.2567 107.114 73.9069 104.975C74.4958 103.019 74.6677 100.957 74.4109 98.9275C74.1825 97.1238 73.616 95.3823 72.7427 93.7985C71.9898 92.4379 71.0187 91.2169 69.8699 90.1865C68.9221 89.3709 67.8731 88.6873 66.7501 88.1534C65.9004 87.7782 65.0155 87.4929 64.1091 87.302L63.1011 87.1317L62.3703 87.075L61.9268 87.044H61.7756C61.8259 87.0383 61.8766 87.0383 61.9268 87.044H62.3754L63.1062 87.075L64.1142 87.2246C65.0318 87.4016 65.9288 87.6766 66.7904 88.0451C67.9327 88.5726 69.0006 89.2546 69.9656 90.0729C71.1355 91.0988 72.1273 92.32 72.8989 93.6849C73.7971 95.2858 74.3809 97.0509 74.6175 98.8811C74.8957 100.942 74.7358 103.04 74.1488 105.032C73.4943 107.215 72.3321 109.204 70.7619 110.826L70.7922 110.692C71.4272 112.7 72.0875 114.789 72.7729 116.941L72.8687 117.256L72.5814 117.106L66.2259 113.809H66.3368L65.8832 113.979C64.4009 114.513 62.8308 114.745 61.2615 114.66C59.7383 114.601 58.2393 114.251 56.8415 113.628C54.1752 112.459 51.9568 110.427 50.5263 107.844C49.8681 106.651 49.3873 105.364 49.1 104.026C49.0213 103.705 48.9624 103.379 48.9236 103.05C48.8833 102.725 48.8178 102.405 48.8027 102.085C48.6663 100.249 48.8558 98.4033 49.3621 96.6365C49.6804 95.5748 50.1221 94.5562 50.6775 93.6024C51.6181 91.9489 52.8911 90.519 54.4122 89.4073C55.5611 88.5755 56.8367 87.9443 58.1871 87.5394L58.9784 87.333C59.2113 87.2777 59.4468 87.2346 59.684 87.204C60.0518 87.1343 60.4241 87.0929 60.7979 87.0801L61.4883 87.0543C61.5669 87.0435 61.646 87.0383 61.7252 87.0389Z" fill="#EFA987"/>
<path d="M64.5979 99.072H63.6655L61.6495 96.1721V94.268C61.6495 94.268 60.2081 94.1751 60.3795 96.6674C60.5508 99.1597 60.3795 98.525 60.3795 98.525C60.3795 98.525 57.3202 98.525 57.0682 98.8088C56.8162 99.0926 56.8011 102.116 56.7658 103.804C56.7465 104.21 56.8605 104.612 57.0897 104.945C57.3189 105.278 57.6501 105.523 58.0308 105.641C58.1375 105.671 58.2477 105.687 58.3584 105.687C59.1245 105.687 63.0204 105.052 63.0204 105.052H64.6282L64.5979 99.072Z" fill="#EFA987"/>
<path d="M67.2639 98.5612L66.6893 105.083H65.0967V98.6953L67.2639 98.5612Z" fill="#EFA987"/>
</svg>
