<svg width="51" height="51" viewBox="0 0 51 51" fill="none" xmlns="http://www.w3.org/2000/svg">
<rect x="0.5" y="0.237549" width="50" height="50" rx="25" fill="white"/>
<path d="M36.9398 22.9526H36V22.9042H25.5V27.5709H32.0935C31.1315 30.2874 28.5468 32.2375 25.5 32.2375C21.6343 32.2375 18.5 29.1033 18.5 25.2375C18.5 21.3718 21.6343 18.2375 25.5 18.2375C27.2845 18.2375 28.9079 18.9107 30.144 20.0103L33.4439 16.7104C31.3602 14.7684 28.573 13.5709 25.5 13.5709C19.0571 13.5709 13.8334 18.7946 13.8334 25.2375C13.8334 31.6804 19.0571 36.9042 25.5 36.9042C31.943 36.9042 37.1667 31.6804 37.1667 25.2375C37.1667 24.4553 37.0862 23.6917 36.9398 22.9526Z" fill="#EBA63F"/>
<path d="M15.1785 19.8073L19.0115 22.6184C20.0487 20.0505 22.5606 18.2375 25.5 18.2375C27.2844 18.2375 28.9078 18.9107 30.1439 20.0103L33.4438 16.7104C31.3601 14.7684 28.573 13.5709 25.5 13.5709C21.0188 13.5709 17.1326 16.1008 15.1785 19.8073Z" fill="#E06464"/>
<path d="M25.5 36.9042C28.5135 36.9042 31.2517 35.7509 33.3219 33.8755L29.7111 30.82C28.5006 31.7411 27.0211 32.2392 25.5 32.2375C22.4655 32.2375 19.8889 30.3026 18.9183 27.6024L15.1138 30.5336C17.0446 34.3119 20.9658 36.9042 25.5 36.9042Z" fill="#4BAE7E"/>
<path d="M36.9398 22.9527H36V22.9042H25.5V27.5709H32.0934C31.6333 28.8638 30.8045 29.9936 29.7093 30.8207L29.7111 30.8195L33.3219 33.875C33.0664 34.1072 37.1667 31.0709 37.1667 25.2376C37.1667 24.4553 37.0862 23.6917 36.9398 22.9527Z" fill="#1976D2"/>
</svg>
