<svg width="50" height="50" viewBox="0 0 50 50" fill="none" xmlns="http://www.w3.org/2000/svg">
<rect width="50" height="50" rx="25" fill="white"/>
<path d="M36.4399 22.7148H35.5002V22.6663H25.0002V27.333H31.5936C30.6317 30.0496 28.0469 31.9997 25.0002 31.9997C21.1344 31.9997 18.0002 28.8654 18.0002 24.9997C18.0002 21.1339 21.1344 17.9997 25.0002 17.9997C26.7846 17.9997 28.408 18.6728 29.6441 19.7724L32.944 16.4725C30.8603 14.5306 28.0732 13.333 25.0002 13.333C18.5572 13.333 13.3335 18.5568 13.3335 24.9997C13.3335 31.4426 18.5572 36.6663 25.0002 36.6663C31.4431 36.6663 36.6668 31.4426 36.6668 24.9997C36.6668 24.2174 36.5863 23.4538 36.4399 22.7148Z" fill="#EBA63F"/>
<path d="M14.6787 19.5694L18.5118 22.3805C19.549 19.8127 22.0608 17.9997 25.0002 17.9997C26.7846 17.9997 28.408 18.6728 29.6441 19.7724L32.944 16.4725C30.8604 14.5306 28.0732 13.333 25.0002 13.333C20.519 13.333 16.6329 15.8629 14.6787 19.5694Z" fill="#E06464"/>
<path d="M25 36.6671C28.0135 36.6671 30.7517 35.5138 32.8219 33.6384L29.2111 30.5829C28.0006 31.504 26.5211 32.002 25 32.0004C21.9655 32.0004 19.3889 30.0655 18.4183 27.3652L14.6138 30.2965C16.5446 34.0747 20.4658 36.6671 25 36.6671Z" fill="#4BAE7E"/>
<path d="M36.4398 22.7154H35.5V22.667H25V27.3337H31.5934C31.1333 28.6266 30.3045 29.7563 29.2093 30.5834L29.2111 30.5822L32.8219 33.6377C32.5664 33.8699 36.6667 30.8337 36.6667 25.0003C36.6667 24.2181 36.5862 23.4545 36.4398 22.7154Z" fill="#1976D2"/>
</svg>
