<svg width="94" height="92" viewBox="0 0 94 92" fill="none" xmlns="http://www.w3.org/2000/svg">
<path d="M50.3491 91.5793C48.3222 90.9681 31.9145 78.1958 25.0297 71.8901C11.4853 59.4395 2.60586 44.9621 0.418161 31.7716C-0.25745 27.7823 -0.0965884 21.8627 0.772055 18.549C2.92758 10.2164 9.16894 3.29944 16.9867 0.661335C19.7213 -0.271652 27.1852 -0.20731 30.5955 0.790021C36.6116 2.52731 40.7618 5.03673 45.5554 9.86252C48.6118 12.9189 51.8611 17.069 53.0515 19.4498C53.9523 21.1871 53.8558 22.9565 52.7298 24.726C51.6359 26.4633 50.2204 27.0745 47.8718 26.8493C45.7163 26.6241 44.719 25.7876 42.0487 21.8627C38.9602 17.2621 35.9038 14.2379 32.5901 12.5328C26.1236 9.18691 20.8152 9.21908 16.3111 12.6937C12.2896 15.75 10.5845 19.4498 10.3271 25.6268C10.1341 29.97 10.8097 33.6054 12.6757 38.3991C16.1824 47.5359 25.8984 59.4074 38.4133 69.8954C41.6305 72.5979 50.0273 79.0323 51.3142 79.7722C51.7325 80.0296 59.0677 74.689 63.797 70.6997C70.0061 65.4557 75.6684 59.5039 78.8534 54.8389C83.9044 47.4072 84.6766 40.3294 80.8803 36.0183C79.1752 34.0558 77.5022 33.2837 74.6389 33.0907C71.6469 32.8977 68.7836 33.6376 66.2742 35.2784C63.7326 36.9192 62.8318 38.013 61.2554 41.1337C59.6146 44.3831 58.5208 45.2517 56.0757 45.2517C50.9282 45.2517 49.963 39.7825 54.0167 33.7341C57.2339 28.9405 62.7353 25.1442 68.3976 23.8252C71.3895 23.1174 77.1483 23.3426 80.1081 24.3077C88.1511 26.8815 93.6525 35.2462 93.1378 44.0292C92.4943 54.5172 84.5157 66.5495 70.2314 78.5497C65.5986 82.4425 55.1749 90.2281 53.3732 91.1611C51.829 91.9654 51.7003 91.9654 50.3491 91.5793Z" fill="#00AEC0"/>
</svg>
