<svg width="130" height="65" viewBox="0 0 130 65" fill="none" xmlns="http://www.w3.org/2000/svg">
<path d="M84.5946 64.4008C83.1732 63.9433 82.0296 62.9631 81.5558 61.8521C81.1474 60.8556 81.2127 59.2055 81.7192 58.2089C82.7484 56.1994 84.7253 55.3989 88.8259 55.3989H91.1785L91.0641 54.631C90.9498 53.7162 90.329 52.7196 89.6918 52.3928C88.2705 51.6576 86.5224 51.9354 85.1664 53.128C84.4149 53.7815 84.1371 53.9285 83.6307 53.9285C82.4217 53.9285 81.6702 52.7686 82.144 51.6413C82.6504 50.416 84.7906 49.158 86.8981 48.8476C90.1002 48.3738 93.139 49.7789 94.2826 52.2621C94.6257 52.9973 94.642 53.3077 94.691 58.2906C94.7237 61.7705 94.6747 63.6656 94.5603 63.878C94.2499 64.4824 92.1261 64.5315 91.5379 63.9597C91.4072 63.8126 91.2929 63.4369 91.2929 63.1265V62.5383L90.7047 63.1428C89.7572 64.123 88.8913 64.4171 86.8001 64.4825C85.8199 64.5151 84.8233 64.4825 84.5946 64.4008ZM89.4631 61.2967C90.2636 60.8882 90.7374 60.2021 90.8844 59.2545C90.9498 58.8787 91.0315 58.454 91.0641 58.3069C91.1458 58.0292 90.9661 58.0129 88.973 58.0129C87.7803 58.0129 86.5387 58.0946 86.212 58.1762C85.3297 58.4213 84.8723 59.0095 84.8723 59.8917C84.8723 60.7085 85.1827 61.1823 85.9832 61.5581C86.7021 61.8848 88.5809 61.7541 89.4631 61.2967Z" fill="#EFA987"/>
<path d="M118.135 64.319C116.926 63.9269 116.028 63.159 115.423 62.0154C115.162 61.5253 115.08 61.0679 115.08 60.1366C115.08 58.7316 115.407 57.9474 116.322 57.0979C117.727 55.8072 118.658 55.5458 122.138 55.4478L124.948 55.3498V54.8433C124.948 54.1082 124.311 52.9319 123.674 52.5071C122.955 52.0333 121.844 51.8863 120.782 52.115C120.128 52.262 119.687 52.5071 118.985 53.1116C118.233 53.7814 117.955 53.9284 117.449 53.9284C116.24 53.9284 115.489 52.7685 115.962 51.6412C116.485 50.3832 118.642 49.1416 120.814 48.8475C124.049 48.4228 126.957 49.6644 128.134 52.017L128.542 52.8502V58.3559C128.542 62.7833 128.493 63.8942 128.313 64.0412C128.199 64.1393 127.66 64.2536 127.137 64.3026C125.879 64.4333 125.405 64.1883 125.193 63.3061L125.03 62.6526L124.637 63.1264C124.409 63.4041 123.821 63.8125 123.33 64.0412C122.546 64.4007 122.154 64.466 120.618 64.4987C119.442 64.5314 118.593 64.466 118.135 64.319ZM123.167 61.4436C124.164 60.9208 124.637 60.1693 124.85 58.7806L124.964 58.0128H122.791C121.599 58.0128 120.357 58.0945 120.03 58.1762C119.148 58.4212 118.658 59.042 118.658 59.8916C118.658 60.6758 119.001 61.1822 119.802 61.558C120.39 61.8194 122.579 61.754 123.167 61.4436Z" fill="#EFA987"/>
<path d="M61.8532 64.205C61.6244 64.1069 61.363 63.9109 61.2977 63.7639C61.0853 63.2737 61.0036 45.2863 61.216 44.5838C61.4447 43.8323 61.412 43.8487 64.5488 43.7343C69.205 43.5873 72.0803 44.0284 74.1388 45.221C75.3315 45.9235 76.8345 47.4755 77.4553 48.6682C78.4029 50.4816 78.6153 51.4455 78.6316 53.8471C78.6316 56.314 78.4355 57.2453 77.5533 59.0914C76.034 62.2935 73.5834 63.8292 69.3193 64.2213C67.0811 64.4174 62.4413 64.4173 61.8532 64.205ZM70.7897 60.4964C73.4036 59.5325 74.7433 57.5883 74.9067 54.5006C74.9557 53.6674 74.923 52.6381 74.8087 52.1644C74.2695 49.5994 72.3907 47.7043 69.9565 47.2468C69.499 47.1488 68.1757 47.0671 67.0157 47.0508L64.9082 47.0344L64.8592 54.0105L64.8266 60.9865L67.3098 60.9212C69.352 60.8558 69.9891 60.7905 70.7897 60.4964Z" fill="#00AEC0"/>
<path d="M98.7265 64.1886C98.5468 64.0906 98.3508 63.9272 98.2854 63.8292C98.2201 63.7311 98.1547 60.5127 98.1547 56.6734C98.1547 48.4884 98.0404 49.0276 99.8702 49.0276C101.161 49.0276 101.586 49.338 101.586 50.3019V50.9227L102.386 50.1548C103.432 49.1419 104.461 48.7988 106.405 48.7988C108.235 48.8152 109.395 49.2236 110.555 50.2692C111.568 51.1841 112.172 52.393 112.368 53.9614C112.45 54.6313 112.466 57.0819 112.417 59.4671C112.303 64.6134 112.385 64.3846 110.522 64.3846C108.611 64.3846 108.692 64.597 108.692 59.2547C108.676 54.4679 108.594 53.8307 107.843 52.9322C107.271 52.2623 106.552 51.9683 105.425 51.9683C104.396 51.9683 103.66 52.2297 103.023 52.8505C102.043 53.7817 102.01 53.9288 101.896 59.075C101.782 63.6658 101.765 63.8128 101.422 64.0906C100.997 64.4337 99.2657 64.499 98.7265 64.1886Z" fill="#00AEC0"/>
<path d="M25.5679 63.0774C24.5386 62.767 16.2066 56.2811 12.7104 53.0789C5.83239 46.7564 1.32329 39.4046 0.212347 32.7063C-0.130736 30.6805 -0.0490488 27.6744 0.392059 25.9917C1.48666 21.7603 4.6561 18.2478 8.62607 16.9081C10.0147 16.4343 13.805 16.467 15.5368 16.9734C18.5918 17.8557 20.6994 19.13 23.1336 21.5806C24.6857 23.1326 26.3357 25.2401 26.9402 26.4491C27.3977 27.3313 27.3487 28.2299 26.7768 29.1284C26.2214 30.0106 25.5025 30.321 24.3099 30.2067C23.2153 30.0923 22.7088 29.6676 21.3529 27.6744C19.7845 25.3382 18.2324 23.8025 16.5497 22.9366C13.2659 21.2375 10.5702 21.2538 8.28299 23.0183C6.24082 24.5703 5.37495 26.4491 5.24425 29.5859C5.14622 31.7914 5.48931 33.6375 6.43687 36.0718C8.21764 40.7116 13.1515 46.7401 19.5067 52.066C21.1405 53.4384 25.4045 56.7058 26.058 57.0816C26.2704 57.2123 29.9953 54.5003 32.3969 52.4745C35.55 49.8115 38.4254 46.7891 40.0428 44.4202C42.6077 40.6462 42.9998 37.052 41.072 34.8628C40.2061 33.8662 39.3566 33.4742 37.9026 33.3761C36.3832 33.2781 34.9292 33.6539 33.6549 34.4871C32.3642 35.3203 31.9068 35.8757 31.1062 37.4605C30.273 39.1105 29.7176 39.5516 28.4759 39.5516C25.862 39.5516 25.3718 36.7743 27.4303 33.7029C29.0641 31.2686 31.8578 29.3408 34.7331 28.671C36.2525 28.3116 39.1769 28.4259 40.6799 28.916C44.7642 30.223 47.5579 34.4707 47.2965 38.9308C46.9698 44.2568 42.9181 50.3669 35.6644 56.4608C33.3118 58.4376 28.0185 62.3912 27.1036 62.865C26.3194 63.2734 26.254 63.2734 25.5679 63.0774Z" fill="#00AEC0"/>
<path d="M67.3588 36.284C65.2186 36.0389 63.7483 35.3528 62.4903 34.0131C61.6244 33.0819 61.0036 31.8892 60.7422 30.6313C60.6278 30.0921 60.5788 25.5504 60.6115 17.2183C60.6605 2.75979 60.4808 4.26283 62.3433 3.00485C63.5032 2.22066 64.8592 1.8449 65.6761 2.07362L66.2152 2.237L66.2969 15.7153C66.3949 30.9744 66.2806 29.7817 67.7346 30.4516C68.4534 30.7783 68.7638 30.811 72.015 30.811C76.0993 30.811 76.8345 30.6639 77.782 29.602C78.6643 28.6218 78.7459 27.9356 78.6152 22.6096C78.4845 17.5124 78.4519 17.7738 79.5628 17.0713C80.8698 16.2381 82.8956 15.797 83.6308 16.1891C83.9249 16.3525 83.9412 16.5975 83.9412 22.2829C83.9412 27.7069 83.9739 28.246 84.2516 28.8668C85.0031 30.5169 86.4572 30.958 90.8682 30.86C94.201 30.7783 95.0506 30.6149 95.8348 29.8634C96.7333 29.0302 96.766 28.8342 96.766 24.5211C96.7824 22.3156 96.7987 20.3551 96.815 20.159C96.9131 19.1298 98.7755 17.9372 100.328 17.9208C101.798 17.9045 101.749 17.7248 101.749 23.1978V27.8703L102.909 25.8281C105.572 21.1393 107.859 18.7867 111.47 17.0059C113.888 15.8133 115.244 15.4866 118.005 15.4702C119.753 15.4539 120.586 15.5192 121.517 15.7643C125.487 16.7609 128.215 19.2932 129.522 23.2141C130.029 24.7498 130.16 27.7886 129.784 29.4713C129.016 32.8695 126.859 35.1567 123.559 36.0389C122.726 36.2677 121.272 36.3167 114.247 36.3657C109.673 36.3983 105.114 36.3657 104.118 36.3003C102.059 36.1696 101.226 35.8592 100.001 34.7319L99.2493 34.0621L98.4488 34.5849C97.5175 35.2221 96.2105 35.7285 94.6422 36.0716C93.1065 36.4147 87.3557 36.4637 86.0651 36.137C84.7254 35.8102 83.255 35.0587 82.3728 34.2582L81.5723 33.5557L80.8535 34.0948C79.2361 35.3528 77.1285 36.0389 74.3022 36.284C72.162 36.4637 69.0416 36.4637 67.3588 36.284ZM122.465 30.6313C124.017 29.9941 124.703 28.6218 124.588 26.3999C124.507 24.7172 123.984 23.5735 122.824 22.4953C121.027 20.8125 118.413 20.2244 115.472 20.8452C112.107 21.5477 109.558 23.5245 107.108 27.3148C106.013 28.9975 105.016 30.6803 105.016 30.8273C105.016 30.86 108.807 30.8927 113.43 30.8927C120.668 30.8927 121.942 30.86 122.465 30.6313Z" fill="#00AEC0"/>
<path d="M34.7819 25.5999C30.5996 24.2275 29.3579 18.8199 32.5437 15.8955C33.7853 14.7519 34.8963 14.3108 36.5627 14.3271C37.739 14.3271 38.0984 14.3924 38.9643 14.7845C40.2059 15.3564 41.3169 16.4836 41.9213 17.7906C42.5422 19.1466 42.5421 20.9274 41.8887 22.3487C41.3332 23.5577 40.0425 24.8647 38.8989 25.3711C37.9024 25.8122 35.8112 25.9266 34.7819 25.5999Z" fill="#EFA987"/>
<path d="M19.7192 15.3071C18.1835 14.8987 16.4191 13.5591 15.5042 12.1377C13.9358 9.65443 13.9195 5.76615 15.5042 3.39723C16.174 2.36798 17.3667 1.33873 18.4613 0.799599C23.6075 -1.73269 29.538 2.05757 29.538 7.84099C29.538 11.3535 27.4958 14.2289 24.2937 15.2255C23.1337 15.5849 20.8955 15.6339 19.7192 15.3071Z" fill="#EFA987"/>
<path d="M115.734 12.3989C112.956 11.8108 112.466 7.80811 115.015 6.56648C117.204 5.52089 119.72 7.0566 119.72 9.45819C119.72 10.3077 118.854 11.6801 118.005 12.1538C117.498 12.4316 116.436 12.5459 115.734 12.3989Z" fill="#00AEC0"/>
<path d="M80.0204 11.7784C77.3084 11.2883 76.3282 8.08618 78.2887 6.1257C79.3343 5.06377 80.6576 4.81871 81.9809 5.42319C83.4676 6.09302 84.0067 7.00792 83.9087 8.67432C83.8107 10.4061 82.9121 11.4517 81.2947 11.7457C80.9026 11.8111 80.3308 11.8274 80.0204 11.7784Z" fill="#00AEC0"/>
</svg>
