<svg width="16" height="16" viewBox="0 0 16 16" fill="none" xmlns="http://www.w3.org/2000/svg">
<path d="M14.1668 12.3134L13.0668 12.5734C12.8202 12.6334 12.6268 12.82 12.5735 13.0667L12.3402 14.0467C12.2135 14.58 11.5335 14.7467 11.1802 14.3267L9.18683 12.0334C9.02683 11.8467 9.11349 11.5534 9.35349 11.4934C10.5335 11.2067 11.5935 10.5467 12.3735 9.6067C12.5002 9.45337 12.7268 9.43337 12.8668 9.57337L14.3468 11.0534C14.8535 11.56 14.6735 12.1934 14.1668 12.3134Z" fill="#E6F7F9"/>
<path d="M1.80011 12.3134L2.90011 12.5734C3.14678 12.6334 3.34011 12.82 3.39344 13.0667L3.62678 14.0467C3.75344 14.58 4.43344 14.7467 4.78678 14.3267L6.78011 12.0334C6.94011 11.8467 6.85344 11.5534 6.61344 11.4934C5.43344 11.2067 4.37344 10.5467 3.59344 9.6067C3.46678 9.45337 3.24011 9.43337 3.10011 9.57337L1.62011 11.0534C1.11344 11.56 1.29344 12.1934 1.80011 12.3134Z" fill="#E6F7F9"/>
<path d="M8.00016 1.33337C5.42016 1.33337 3.3335 3.42004 3.3335 6.00004C3.3335 6.96671 3.62016 7.85337 4.1135 8.59337C4.8335 9.66004 5.9735 10.4134 7.30016 10.6067C7.52683 10.6467 7.76016 10.6667 8.00016 10.6667C8.24016 10.6667 8.4735 10.6467 8.70016 10.6067C10.0268 10.4134 11.1668 9.66004 11.8868 8.59337C12.3802 7.85337 12.6668 6.96671 12.6668 6.00004C12.6668 3.42004 10.5802 1.33337 8.00016 1.33337ZM10.0402 5.85337L9.48683 6.40671C9.3935 6.50004 9.34016 6.68004 9.3735 6.81337L9.5335 7.50004C9.66016 8.04004 9.3735 8.25337 8.8935 7.96671L8.22683 7.57337C8.10683 7.50004 7.90683 7.50004 7.78683 7.57337L7.12016 7.96671C6.64016 8.24671 6.3535 8.04004 6.48016 7.50004L6.64016 6.81337C6.66683 6.68671 6.62016 6.50004 6.52683 6.40671L5.96016 5.85337C5.6335 5.52671 5.74016 5.20004 6.1935 5.12671L6.90683 5.00671C7.02683 4.98671 7.16683 4.88004 7.22016 4.77337L7.6135 3.98671C7.82683 3.56004 8.1735 3.56004 8.38683 3.98671L8.78016 4.77337C8.8335 4.88004 8.9735 4.98671 9.10016 5.00671L9.8135 5.12671C10.2602 5.20004 10.3668 5.52671 10.0402 5.85337Z" fill="#E6F7F9"/>
</svg>
