<svg width="16" height="16" viewBox="0 0 16 16" fill="none" xmlns="http://www.w3.org/2000/svg">
<path d="M8.86681 5.40667L9.74681 7.16667C9.86681 7.40667 10.1868 7.64667 10.4535 7.68667L12.0468 7.95334C13.0668 8.12667 13.3068 8.86001 12.5735 9.59334L11.3335 10.84C11.1268 11.0467 11.0068 11.4533 11.0735 11.7467L11.4268 13.2867C11.7068 14.5 11.0601 14.9733 9.98681 14.34L8.49348 13.4533C8.22014 13.2933 7.78015 13.2933 7.50681 13.4533L6.00681 14.3333C4.93348 14.9667 4.28681 14.4933 4.56681 13.28L4.92015 11.74C4.98681 11.4533 4.86681 11.0467 4.66015 10.8333L3.42681 9.60001C2.69348 8.86667 2.93348 8.12667 3.95348 7.96001L5.54681 7.69334C5.81348 7.64667 6.13348 7.41334 6.25348 7.17334L7.13348 5.41334C7.60681 4.45334 8.39348 4.45334 8.86681 5.40667Z" fill="#E6F7F9"/>
<path d="M4 6.50004C3.72667 6.50004 3.5 6.27337 3.5 6.00004V1.33337C3.5 1.06004 3.72667 0.833374 4 0.833374C4.27333 0.833374 4.5 1.06004 4.5 1.33337V6.00004C4.5 6.27337 4.27333 6.50004 4 6.50004Z" fill="#E6F7F9"/>
<path d="M12 6.50004C11.7267 6.50004 11.5 6.27337 11.5 6.00004V1.33337C11.5 1.06004 11.7267 0.833374 12 0.833374C12.2733 0.833374 12.5 1.06004 12.5 1.33337V6.00004C12.5 6.27337 12.2733 6.50004 12 6.50004Z" fill="#E6F7F9"/>
<path d="M8 3.16671C7.72667 3.16671 7.5 2.94004 7.5 2.66671V1.33337C7.5 1.06004 7.72667 0.833374 8 0.833374C8.27333 0.833374 8.5 1.06004 8.5 1.33337V2.66671C8.5 2.94004 8.27333 3.16671 8 3.16671Z" fill="#E6F7F9"/>
</svg>
