<svg width="16" height="16" viewBox="0 0 16 16" fill="none" xmlns="http://www.w3.org/2000/svg">
<path d="M9.33334 11.2731C9.20667 11.2731 9.08001 11.2264 8.98001 11.1264L6.34001 8.48643C6.14667 8.2931 6.14667 7.9731 6.34001 7.77977C6.53334 7.58643 6.85334 7.58643 7.04667 7.77977L9.68667 10.4198C9.88001 10.6131 9.88001 10.9331 9.68667 11.1264C9.58667 11.2198 9.46001 11.2731 9.33334 11.2731Z" fill="#004951"/>
<path d="M6.66667 11.3C6.54 11.3 6.41333 11.2533 6.31333 11.1533C6.12 10.96 6.12 10.64 6.31333 10.4466L8.95334 7.80662C9.14667 7.61329 9.46667 7.61329 9.66 7.80662C9.85333 7.99995 9.85333 8.31995 9.66 8.51329L7.02 11.1533C6.92 11.2533 6.79333 11.3 6.66667 11.3Z" fill="#004951"/>
<path d="M9.33331 4.50016H6.66665C6.02665 4.50016 4.83331 4.50016 4.83331 2.66683C4.83331 0.833496 6.02665 0.833496 6.66665 0.833496H9.33331C9.97331 0.833496 11.1666 0.833496 11.1666 2.66683C11.1666 3.30683 11.1666 4.50016 9.33331 4.50016ZM6.66665 1.8335C6.00665 1.8335 5.83331 1.8335 5.83331 2.66683C5.83331 3.50016 6.00665 3.50016 6.66665 3.50016H9.33331C10.1666 3.50016 10.1666 3.32683 10.1666 2.66683C10.1666 1.8335 9.99331 1.8335 9.33331 1.8335H6.66665Z" fill="#004951"/>
<path d="M10 15.1665H6C2.25333 15.1665 1.5 13.4465 1.5 10.6665V6.66646C1.5 3.62646 2.6 2.32646 5.30667 2.18646C5.58667 2.17313 5.82 2.37979 5.83333 2.65979C5.84667 2.93979 5.63333 3.16646 5.36 3.17979C3.46667 3.28646 2.5 3.85313 2.5 6.66646V10.6665C2.5 13.1331 2.98667 14.1665 6 14.1665H10C13.0133 14.1665 13.5 13.1331 13.5 10.6665V6.66646C13.5 3.85313 12.5333 3.28646 10.64 3.17979C10.3667 3.16646 10.1533 2.92646 10.1667 2.65313C10.18 2.37979 10.42 2.16646 10.6933 2.17979C13.4 2.32646 14.5 3.62646 14.5 6.65979V10.6598C14.5 13.4465 13.7467 15.1665 10 15.1665Z" fill="#004951"/>
</svg>
