<svg width="16" height="16" viewBox="0 0 16 16" fill="none" xmlns="http://www.w3.org/2000/svg">
<path d="M7.20665 11.2998C7.07998 11.2998 6.95331 11.2531 6.85331 11.1531L5.85331 10.1531C5.65998 9.95977 5.65998 9.63977 5.85331 9.44643C6.04665 9.2531 6.36665 9.2531 6.55998 9.44643L7.20665 10.0931L9.51998 7.77977C9.71331 7.58643 10.0333 7.58643 10.2266 7.77977C10.42 7.9731 10.42 8.2931 10.2266 8.48643L7.55998 11.1531C7.46665 11.2531 7.33331 11.2998 7.20665 11.2998Z" fill="#004951"/>
<path d="M9.33331 4.50016H6.66665C6.02665 4.50016 4.83331 4.50016 4.83331 2.66683C4.83331 0.833496 6.02665 0.833496 6.66665 0.833496H9.33331C9.97331 0.833496 11.1666 0.833496 11.1666 2.66683C11.1666 3.30683 11.1666 4.50016 9.33331 4.50016ZM6.66665 1.8335C6.00665 1.8335 5.83331 1.8335 5.83331 2.66683C5.83331 3.50016 6.00665 3.50016 6.66665 3.50016H9.33331C10.1666 3.50016 10.1666 3.32683 10.1666 2.66683C10.1666 1.8335 9.99331 1.8335 9.33331 1.8335H6.66665Z" fill="#004951"/>
<path d="M10 15.1665H6C2.25333 15.1665 1.5 13.4465 1.5 10.6665V6.66646C1.5 3.62646 2.6 2.32646 5.30667 2.18646C5.58 2.17313 5.82 2.37979 5.83333 2.65979C5.84667 2.93979 5.63333 3.16646 5.36 3.17979C3.46667 3.28646 2.5 3.85313 2.5 6.66646V10.6665C2.5 13.1331 2.98667 14.1665 6 14.1665H10C13.0133 14.1665 13.5 13.1331 13.5 10.6665V6.66646C13.5 3.85313 12.5333 3.28646 10.64 3.17979C10.3667 3.16646 10.1533 2.92646 10.1667 2.65313C10.18 2.37979 10.4133 2.16646 10.6933 2.17979C13.4 2.32646 14.5 3.62646 14.5 6.65979V10.6598C14.5 13.4465 13.7467 15.1665 10 15.1665Z" fill="#004951"/>
</svg>
