<svg width="16" height="16" viewBox="0 0 16 16" fill="none" xmlns="http://www.w3.org/2000/svg">
<path d="M9.56667 1.3335H6.43334C5.74001 1.3335 5.17334 1.8935 5.17334 2.58683V3.2135C5.17334 3.90683 5.73334 4.46683 6.42667 4.46683H9.56667C10.26 4.46683 10.82 3.90683 10.82 3.2135V2.58683C10.8267 1.8935 10.26 1.3335 9.56667 1.3335Z" fill="#004951"/>
<path d="M11.4933 3.21332C11.4933 4.27332 10.6267 5.13999 9.56666 5.13999H6.43333C5.37333 5.13999 4.50666 4.27332 4.50666 3.21332C4.50666 2.83999 4.10666 2.60665 3.77333 2.77999C2.83333 3.27999 2.19333 4.27332 2.19333 5.41332V11.6867C2.19333 13.3267 3.53333 14.6667 5.17333 14.6667H10.8267C12.4667 14.6667 13.8067 13.3267 13.8067 11.6867V5.41332C13.8067 4.27332 13.1667 3.27999 12.2267 2.77999C11.8933 2.60665 11.4933 2.83999 11.4933 3.21332ZM8.25333 11.3H5.33333C5.06 11.3 4.83333 11.0733 4.83333 10.8C4.83333 10.5267 5.06 10.3 5.33333 10.3H8.25333C8.52666 10.3 8.75333 10.5267 8.75333 10.8C8.75333 11.0733 8.52666 11.3 8.25333 11.3ZM10 8.63332H5.33333C5.06 8.63332 4.83333 8.40665 4.83333 8.13332C4.83333 7.85999 5.06 7.63332 5.33333 7.63332H10C10.2733 7.63332 10.5 7.85999 10.5 8.13332C10.5 8.40665 10.2733 8.63332 10 8.63332Z" fill="#004951"/>
</svg>
